<?xml version="1.0" encoding="UTF-8"?>
<svg width="48px" height="544px" viewBox="0 0 48 544" version="1.1" xmlns="http://www.w3.org/2000/svg" xmlns:xlink="http://www.w3.org/1999/xlink">
    <!-- Generator: Sketch 45.2 (43514) - http://www.bohemiancoding.com/sketch -->
    <title>large latern copy</title>
    <desc>Created with Sketch.</desc>
    <defs>
        <polygon id="path-1" points="47.6518991 75.6174582 0.587258628 75.6174582 0.587258628 0.731564537 47.6518991 0.731564537"></polygon>
        <polygon id="path-3" points="0.231719667 0.51144899 1.62491695 0.51144899 1.62491695 207.597283 0.231719667 207.597283 0.231719667 0.51144899"></polygon>
    </defs>
    <g id="Page-1" stroke="none" stroke-width="1" fill="none" fill-rule="evenodd">
        <g id="Home" transform="translate(-736.000000, -14.000000)">
            <g id="header-copy" transform="translate(123.000000, -217.000000)">
                <g id="large-latern-copy" transform="translate(613.000000, 231.000000)">
                    <path d="M7.92882503,468.70166 L7.92882503,470.862945 C7.92882503,470.862945 0.948906667,474.465086 0.822125714,480.106148 C0.695344762,485.74721 0.822125714,533.307842 0.822125714,533.307842 C0.822125714,533.307842 1.33064272,537.968627 6.27927946,540.421382 C11.2279162,542.874138 42.8298101,546.06382 46.3824631,536.864612 C46.3824631,536.864612 47.5248849,524.747946 47.271323,518.859408 C47.0177611,512.97362 47.271323,479.73906 47.271323,479.73906 C47.271323,479.73906 46.7572332,474.128244 40.6689611,470.862945 L40.6689611,468.654915 C40.6689611,468.654915 26.0766128,473.484808 7.92882503,468.70166" id="Fill-1" fill="#FEFEFE"></path>
                    <path d="M4.11397224,475.948563 C4.11397224,475.948563 5.38317497,474.108996 8.68226612,475.948563 C11.9799641,477.788129 15.5354035,477.297303 14.1394199,480.609348 C12.742043,483.921392 11.2220648,486.742611 10.7135478,491.033558 C10.2050307,495.32588 8.93582803,503.174972 7.53984435,504.277612 C6.14386068,505.383002 1.95590966,506.731742 1.95590966,497.656273 L1.95590966,481.834351 C1.95590966,481.834351 1.58671238,477.617646 4.11397224,475.948563" id="Fill-3" fill="#FEFEFE"></path>
                    <path d="M5.26085224,467.060899 C5.26085224,467.060899 5.35280327,465.512803 6.78222367,464.485781 C6.78222367,464.485781 5.6439815,462.538975 7.54848218,461.987655 C7.54848218,461.987655 5.16193524,459.655888 7.92603864,459.211807 L7.92603864,457.494603 C7.92603864,457.494603 8.59477333,454.905736 24.0132876,455.180709 C39.4345883,455.457056 39.9068822,457.494603 39.9068822,457.494603 L39.9807216,460.12884 C39.9807216,460.12884 42.5734618,460.791524 40.2900114,462.354743 C40.2900114,462.354743 40.2189584,463.79285 41.444972,464.866618 C42.6695924,465.941761 42.9551978,467.597096 41.9075135,468.334022 C40.8612223,469.069574 19.0590781,474.435663 5.26085224,467.060899" id="Fill-5" fill="#D0D2D3"></path>
                    <g id="Group-9" transform="translate(0.000000, 467.554887)">
                        <mask id="mask-2" fill="white">
                            <use xlink:href="#path-1"></use>
                        </mask>
                        <g id="Clip-8"></g>
                        <path d="M23.7887042,75.6175957 C5.77187701,75.6175957 2.66922667,70.6295932 2.54662531,70.4164894 C0.355125986,67.1800622 0.589183129,64.906039 0.59893551,64.8111735 L0.597542313,11.5242381 C0.597542313,7.42302216 6.45315048,3.77413608 7.57746068,3.11145218 L7.57746068,0.731564537 L8.27405932,0.731564537 L8.27405932,3.50741269 L8.09851646,3.60640281 C8.0302498,3.64489897 1.29414095,7.48214126 1.29414095,11.5242381 L1.29414095,64.8496697 C1.28996136,64.9074139 1.09073415,67.0274525 3.13873415,70.0549005 C3.17913687,70.1208939 6.2887532,74.9301643 23.7887042,74.9301643 C41.3638879,74.9301643 43.5874307,72.3426723 44.782794,70.9513111 L44.8440947,70.8811931 C45.9628321,69.5860723 46.9185654,58.7177812 46.9185654,55.6752097 L46.9185654,12.628253 C46.9561818,12.3670291 47.6597464,7.47939154 40.5014988,3.60915254 L40.3203831,3.51153727 L40.3203831,1.10140265 L41.0169818,1.10140265 L41.0169818,3.10595273 C48.4385437,7.20991841 47.6472076,12.4605197 47.6109845,12.6846224 L47.6151641,55.6752097 C47.6151641,57.7223805 46.8071097,69.6671892 45.3749029,71.3266487 L45.3149954,71.3967667 C43.9580212,72.9751093 41.6871097,75.6175957 23.7887042,75.6175957" id="Fill-7" fill="#020303" mask="url(#mask-2)"></path>
                    </g>
                    <path d="M5.61319184,466.908564 C6.22201905,467.385642 9.80114286,469.721534 21.8968816,470.150491 C36.1938721,470.66194 41.8112435,468.616144 42.1010286,467.118918 C42.2682122,466.262379 41.8488599,465.823797 41.2678966,465.218858 C40.7092245,464.633166 40.0753197,463.970482 39.9401796,462.807348 L39.9011701,462.469132 L40.2438966,462.427886 C40.3539592,462.411388 40.9140245,462.28765 40.8290395,461.454483 C40.7315156,460.511327 40.020985,460.416462 39.9903347,460.412337 L39.6991565,460.377966 L39.5584435,457.512751 C39.5584435,457.512751 39.5584435,457.512751 39.5584435,457.512751 C39.540332,457.512751 38.5553415,455.631939 26.4526367,455.631939 C15.2624762,455.631939 9.95021497,456.21763 8.27419864,457.646113 L8.27419864,459.487054 L7.99973878,459.547548 C7.77543401,459.597043 7.13038367,459.822521 7.13038367,460.192359 C7.13038367,460.618567 7.80887075,461.266127 8.13627211,461.514977 L8.69773061,461.938435 L8.01645714,462.119917 C7.54555646,462.245029 6.74586122,462.595619 6.6051483,463.002579 C6.4518966,463.449409 6.88239456,464.076347 7.04539864,464.260578 L7.34075646,464.59467 L6.93672925,464.794025 C6.88518095,464.820148 5.69121088,465.426462 5.61319184,466.908564 M26.0834395,470.916289 C24.7403973,470.916289 23.3360544,470.890167 21.8718041,470.837922 C8.05546667,470.347096 5.12417959,467.420013 5.00575782,467.296276 L4.91241361,467.195911 L4.91241361,467.061174 C4.91241361,465.587321 5.78037551,464.752779 6.28192653,464.39119 C6.0436898,464.021352 5.73718639,463.386166 5.94477279,462.782601 C6.13703401,462.227156 6.76815238,461.862817 7.25159184,461.659338 C6.88239456,461.296374 6.43378503,460.743679 6.43378503,460.192359 C6.43378503,459.521426 7.0635102,459.128215 7.5776,458.952233 L7.5776,457.350517 L7.6820898,457.250153 C9.1142966,455.865666 12.8550313,454.944507 26.4526367,454.944507 C39.3118476,454.944507 40.2048871,457.037049 40.2522558,457.456382 L40.3678912,459.803273 C40.8276463,459.969631 41.4225415,460.423336 41.5214585,461.384365 C41.6203755,462.348144 41.1257905,462.822472 40.6799673,463.013578 C40.8513306,463.780751 41.3194449,464.271577 41.7750204,464.745905 C42.386634,465.385216 43.0191456,466.046525 42.7864816,467.248155 C42.3392653,469.548301 35.9277714,470.916289 26.0834395,470.916289" id="Fill-10" fill="#020303"></path>
                    <path d="M24.0418482,473.3157 C21.4045257,473.310201 18.779742,473.253831 16.1549584,472.977484 C14.7729067,472.831748 13.4117529,472.5664 12.0617448,472.243307 C10.997342,471.988958 9.0733366,471.720859 8.38091755,470.798326 C8.09670531,470.420239 7.4349366,470.785952 7.72472163,471.169539 C8.94934204,472.801501 12.0826427,473.046227 13.9425611,473.395442 C17.2569774,474.018255 20.6786699,474.044378 24.0418482,474.049877 C24.5336468,474.051252 24.5336468,473.3157 24.0418482,473.3157" id="Fill-12" fill="#020303"></path>
                    <path d="M4.44792163,532.708677 C3.55766857,531.133084 3.67469714,529.468125 3.48382912,527.744047 C3.32500463,526.300441 3.32918422,524.844461 3.34311619,523.389856 C3.34590259,523.367858 3.35844136,523.35136 3.35844136,523.326612 L3.35844136,505.29941 C3.35844136,504.825083 2.59496925,504.825083 2.59496925,505.29941 L2.59496925,521.610783 C2.59496925,523.84631 2.53645497,526.070839 2.78305088,528.298116 C2.97252571,530.01257 2.90565224,531.512546 3.78893932,533.07989 C4.02578286,533.495098 4.68197878,533.123885 4.44792163,532.708677" id="Fill-14" fill="#020303"></path>
                    <path d="M45.0573932,536.264622 C44.7299918,535.765547 44.2172952,535.413582 43.7324626,535.073991 C43.438498,534.866386 43.1640381,534.544668 42.8199184,534.42643 C42.6638803,534.283445 42.4827646,534.17483 42.2821442,534.099213 C40.7134041,532.857712 38.3672599,532.61986 36.5003755,532.186779 C33.7390585,531.543343 30.9373388,531.26837 28.1049687,531.177629 C22.0835701,530.982399 16.4076844,530.942528 10.5590422,532.544243 C7.97744762,533.249548 5.33873197,534.191329 3.30605714,535.948403 C2.94939864,536.256373 2.3043483,536.796694 2.4046585,537.349389 C2.42277007,537.447004 2.84908844,538.553769 2.84908844,538.043694 C2.84908844,538.303544 3.07478639,538.416282 3.28237279,538.391535 C3.39243537,538.725626 3.63206531,539.017097 4.05281088,539.220577 C4.49027483,539.430931 4.87619048,538.797119 4.43594014,538.58539 C3.46209524,538.113812 3.4816,536.865437 4.00265578,536.38561 C4.22556735,536.180755 5.43486259,535.342089 5.70096327,535.182605 C5.16318912,536.23575 5.30947483,538.017572 7.12899048,538.864488 C10.9421714,540.638061 15.2652626,541.19488 19.3473306,541.478102 C19.8363429,541.511099 19.8335565,540.776922 19.3473306,540.74255 C16.7476245,540.562443 14.152098,540.422207 11.6053333,539.861263 C10.3417034,539.584916 9.10593741,539.121587 7.97048163,538.523522 C5.98378231,537.477251 5.84028299,535.727051 7.09416054,534.752273 C7.11087891,534.746773 9.26336871,533.567141 10.4893823,533.334789 C14.5394068,531.658831 20.084332,531.709701 20.7642122,531.702827 C22.8372898,531.679454 36.785981,530.886158 42.4033524,535.354463 C43.4078476,536.153258 43.5694585,537.306768 42.881219,538.104188 C42.8631075,538.49465 40.7858503,540.012498 40.6409578,540.284721 C41.7262585,539.714153 42.711249,538.924982 43.5276626,538.076691 C44.0988735,537.486875 44.0501116,536.714202 43.7589333,535.997899 C43.8258068,536.055643 43.8829279,536.103763 43.919151,536.13126 C44.9125007,536.923181 45.0448544,538.106938 44.2744163,539.085841 C43.9762721,539.462553 44.6380408,539.828267 44.929219,539.455679 C45.7121959,538.465777 45.7442395,537.310893 45.0573932,536.264622" id="Fill-16" fill="#020303"></path>
                    <path d="M30.4139146,537.444117 C27.8741159,537.922569 25.3440697,538.396897 22.7527227,538.515135 C20.3299527,538.626499 16.9793132,538.398272 15.0483418,536.803431 C14.6763581,536.496836 14.1344044,537.01516 14.5105676,537.323129 C16.3537676,538.847852 18.9799445,539.114575 21.3246955,539.247937 C24.4343118,539.423919 27.5857241,538.725489 30.6173214,538.153546 C31.0979744,538.06418 30.8931744,537.354751 30.4139146,537.444117" id="Fill-18" fill="#020303"></path>
                    <path d="M39.5254248,457.494603 C39.3986438,458.517501 33.6294139,459.101818 32.9147037,459.18431 C31.7137676,459.323171 30.4403853,459.141689 29.2366629,459.097693 C27.959101,459.049573 26.6857186,459.215931 25.4067635,459.206307 C22.7373976,459.18431 20.0652452,459.107317 17.3930928,459.066071 C16.1628996,459.046823 8.24814585,459.12519 8.79985197,457.223755 C8.93359891,456.767301 8.19938395,456.573445 8.06563701,457.028525 C7.43312544,459.215931 10.2320588,459.22968 11.8523472,459.429035 C15.9107309,459.929485 19.9997649,459.767251 24.0818329,459.907487 C26.0086248,459.974856 27.9228778,459.785125 29.8482765,459.856618 C31.6023118,459.921236 33.2058819,459.945984 34.9306601,459.596768 C36.2346928,459.33142 40.0659853,459.269551 40.2861105,457.494603 C40.346018,457.0244 39.583939,457.029899 39.5254248,457.494603" id="Fill-20" fill="#020303"></path>
                    <path d="M38.6022922,462.803499 C38.6259766,462.758128 38.635729,462.705883 38.635729,462.645389 L38.635729,460.928186 C38.635729,460.914437 38.6315494,460.906188 38.628763,460.893814 C38.6454814,460.888315 38.6608065,460.88144 38.6761317,460.875941 C38.7430052,461.262277 38.8739657,461.63899 38.8920773,462.030826 C38.9101888,462.505153 39.6722678,462.506528 39.6513698,462.030826 C39.6332582,461.556498 39.4451766,461.111042 39.4089535,460.640839 C39.7363548,461.144039 39.7795439,461.676111 39.7795439,462.276926 C39.7795439,462.2893 39.7851167,462.297549 39.7865099,462.308548 C39.4061671,462.462533 39.0230378,462.69076 38.6789181,462.785625 C38.6538405,462.7925 38.6259766,462.797999 38.6022922,462.803499 M37.1241099,463.099094 C37.2578569,463.055099 37.3651331,462.94511 37.3679195,462.767752 C37.3748854,462.232931 37.4835548,461.707733 37.4947004,461.172911 C37.4974868,461.13854 37.4835548,461.111042 37.4765888,461.08217 C37.5671467,461.072546 37.6577045,461.058798 37.7482623,461.050548 C37.7942378,461.047799 37.8318541,461.040924 37.8750433,461.0368 L37.8750433,462.645389 C37.8750433,462.782876 37.9419167,462.874992 38.0338678,462.932736 C37.7399031,462.994605 37.4347929,463.049599 37.1241099,463.099094 M34.5160446,463.426312 C34.532763,463.402939 34.5522678,463.383691 34.5634133,463.356194 C34.8002569,462.766377 34.9465426,462.175186 34.9576882,461.541375 C34.9576882,461.520752 34.9479358,461.508378 34.9465426,461.48913 C35.1206922,461.461632 35.2934487,461.428636 35.4689916,461.398389 C35.4689916,461.405263 35.464812,461.410763 35.464812,461.419012 C35.4425208,461.918087 35.232148,462.386915 35.2098569,462.890115 C35.1903521,463.364443 35.952431,463.363068 35.9719358,462.890115 C35.9914405,462.39104 36.2045997,461.920837 36.2254977,461.419012 C36.2268909,461.361267 36.2185317,461.310398 36.1990269,461.265027 C36.3773562,461.23478 36.5542922,461.205908 36.7326215,461.178411 C36.7228691,461.710483 36.6128065,462.234305 36.6058405,462.767752 C36.601661,463.001479 36.7841698,463.118342 36.9722514,463.122467 C36.1516582,463.247579 35.3018079,463.342445 34.5160446,463.426312 M33.897465,463.49368 C33.8709943,463.49643 33.8417371,463.500554 33.8152664,463.503304 C30.9438868,463.83877 28.1505263,464.038125 25.2568555,464.110993 C23.5836256,464.152239 21.9396528,464.051874 20.3123984,463.869017 C20.3458351,463.805774 20.3611603,463.734281 20.3486215,463.651789 C20.2455249,463.016602 20.2371657,462.378666 20.2371657,461.73798 C20.4489317,461.755853 20.6593045,461.770977 20.8696773,461.787475 C20.8794297,462.362168 20.988099,462.928611 20.9964582,463.503304 C21.0048174,463.977632 21.7655031,463.977632 21.7585371,463.503304 C21.7487848,462.947859 21.651261,462.402039 21.637329,461.847969 C21.7641099,461.857593 21.8908909,461.861718 22.0204582,461.868592 C22.019065,461.883715 22.012099,461.894714 22.012099,461.909838 C22.0218514,462.48453 22.1291276,463.052349 22.13888,463.625667 C22.1472392,464.099994 22.9079249,464.101369 22.9009589,463.625667 C22.8925997,463.13759 22.8201535,462.652264 22.7922895,462.164187 C22.8535902,462.098194 22.8842405,462.008828 22.8856337,461.918087 C22.9998759,461.923586 23.1155113,461.93321 23.2283603,461.937335 C23.2882678,461.940085 23.3481752,461.940085 23.4066895,461.94146 L23.4066895,463.136215 C23.4066895,463.609168 24.1701616,463.609168 24.1701616,463.136215 L24.1701616,461.956583 C24.4251167,461.963457 24.674499,461.960708 24.9294541,461.964832 C24.9127358,462.476281 24.8347167,462.969857 24.9447793,463.479931 C25.0436963,463.94326 25.7779113,463.746655 25.6789943,463.283326 C25.5856501,462.850244 25.6734215,462.408913 25.6887467,461.973081 C25.9005127,461.973081 26.1136718,461.967582 26.326831,461.967582 L26.326831,463.258578 C26.326831,463.732906 27.0889099,463.732906 27.0889099,463.258578 L27.0889099,461.963457 C27.2992827,461.960708 27.5110487,461.946959 27.7242079,461.944209 L27.7242079,463.380941 C27.7242079,463.855269 28.4848936,463.855269 28.4848936,463.380941 L28.4848936,461.919462 C28.6646161,461.915337 28.8429453,461.904338 29.0226678,461.898839 C29.0059494,461.940085 28.9920174,461.981331 28.9920174,462.030826 C28.9794786,462.525776 28.876382,463.009728 28.8652365,463.503304 C28.8554841,463.977632 29.6161698,463.977632 29.6273154,463.503304 C29.6370678,463.009728 29.7429507,462.525776 29.7527031,462.030826 C29.7554895,461.970332 29.7429507,461.916712 29.7206596,461.871342 C29.9505371,461.863092 30.1790215,461.849344 30.408899,461.838345 C30.2570405,462.290675 30.2612201,462.795249 30.2598269,463.258578 C30.2598269,463.732906 31.0219059,463.732906 31.0219059,463.258578 C31.0219059,462.804873 30.9773235,462.253553 31.2253127,461.849344 C31.235065,461.832845 31.235065,461.816347 31.242031,461.801224 C31.3827439,461.792974 31.5290297,461.779226 31.672529,461.772351 C31.6669562,461.886465 31.7143249,461.996454 31.8034895,462.070697 C31.8271739,462.331921 31.8438922,462.598644 31.7101453,462.828246 C31.4635494,463.240705 32.1225317,463.610543 32.3663412,463.199459 C32.6338351,462.745754 32.5586024,462.2838 32.5460637,461.7861 C32.5460637,461.761353 32.5349181,461.739355 32.5293453,461.714607 C32.6547331,461.706358 32.7801208,461.696734 32.9069018,461.68986 C32.8762514,462.172437 32.8079848,462.650889 32.7996256,463.136215 C32.7926596,463.610543 33.5519521,463.609168 33.5603113,463.136215 C33.5686705,462.634391 33.6439031,462.13944 33.6703739,461.63899 C33.7595385,461.632115 33.8459167,461.629366 33.9350814,461.622491 C34.0214596,461.615617 34.1064446,461.599119 34.1914297,461.589495 C34.1761045,462.140815 34.0367848,462.646764 33.8291984,463.159588 C33.7706841,463.303949 33.8138732,463.416687 33.897465,463.49368 M13.4230378,462.707258 C13.5748963,462.609643 13.6793861,462.419912 13.5832555,462.213682 C13.4885181,462.001954 13.4049263,461.329646 13.5247412,461.188035 C13.5776827,461.124791 13.5985807,461.058798 13.6069399,460.992804 C13.7462596,461.009303 13.8813997,461.027176 14.0193263,461.043674 C14.0193263,461.046424 14.0179331,461.047799 14.0179331,461.050548 C14.0179331,461.634865 14.0680882,462.172437 14.3230433,462.707258 C14.5278433,463.138965 15.1840392,462.765002 14.9792392,462.33742 C14.7995167,461.956583 14.7814052,461.553748 14.780012,461.144039 C14.9471956,461.168787 15.1171657,461.188035 15.2857426,461.208658 C15.2899222,461.258153 15.3066405,461.307648 15.3386841,461.359893 C15.58528,461.762727 15.5406977,462.315422 15.5406977,462.767752 C15.5406977,463.24208 16.3013834,463.24208 16.3013834,462.767752 C16.3013834,462.296174 16.3013834,461.779226 16.1411657,461.321396 C16.319495,461.344769 16.4992174,461.364017 16.6789399,461.386015 C16.6064936,461.795724 16.9143902,462.344294 16.9352882,462.645389 C16.9701181,463.115593 17.7335902,463.118342 17.6973671,462.645389 C17.6806487,462.452909 17.6179548,462.274176 17.5594405,462.09132 C17.5162514,461.967582 17.4786351,461.841095 17.4479848,461.714607 C17.4396256,461.677486 17.4326596,461.63899 17.4312664,461.601868 C17.4298732,461.58812 17.4312664,461.586745 17.4298732,461.577121 C17.4716691,461.549624 17.5037127,461.520752 17.5260038,461.48638 C17.6736827,461.502878 17.8199684,461.513877 17.9676473,461.529001 C18.162695,462.022577 18.2044909,462.488655 18.2058841,463.012478 C18.2058841,463.48818 18.9665698,463.48818 18.9665698,463.012478 C18.9651766,462.525776 18.9275603,462.067947 18.7924201,461.608743 C19.0181181,461.632115 19.2466024,461.648614 19.4750868,461.670612 C19.4750868,462.381416 19.4987712,463.082596 19.6074405,463.786526 C17.5287902,463.521177 15.4752174,463.130716 13.4230378,462.707258 M11.3262759,462.272802 C11.3165235,462.253553 11.3137371,462.234305 11.2998052,462.213682 C10.9793698,461.764102 10.9724038,461.249904 10.9710106,460.721956 C11.1883494,460.750828 11.4084746,460.767327 11.6285997,460.790699 C11.6132746,460.83057 11.6049154,460.875941 11.6049154,460.928186 C11.6188473,461.259528 11.7191576,461.578496 11.7330895,461.909838 C11.7525943,462.382791 12.51328,462.384165 12.4951684,461.909838 C12.4812365,461.577121 12.3795331,461.258153 12.3656011,460.928186 C12.3656011,460.903438 12.3558487,460.885565 12.3502759,460.863567 C12.5146732,460.878691 12.6748909,460.895189 12.837895,460.911687 C12.6108038,461.413512 12.7152936,462.121567 12.9270596,462.584895 C12.9326324,462.597269 12.9409916,462.601394 12.9465644,462.611018 C12.407397,462.498279 11.8668365,462.386915 11.3262759,462.272802 M9.90800109,461.978581 C9.90521469,461.975831 9.90521469,461.973081 9.9038215,461.968957 C9.59174531,461.530376 9.57642014,460.996929 9.57642014,460.478606 C9.78539973,460.53085 10.0097045,460.562472 10.2270433,460.600968 C10.2200773,460.628466 10.2103249,460.651838 10.2103249,460.68346 C10.2103249,461.159163 10.2298297,461.637615 10.387261,462.078946 C10.2270433,462.044574 10.0682188,462.011578 9.90800109,461.978581 M8.38105687,460.077146 C8.5217698,460.140389 8.67641469,460.195384 8.8282732,460.249003 C8.82270041,460.271001 8.81434122,460.290249 8.81434122,460.314997 C8.81434122,460.790699 8.82966639,461.284275 8.96759293,461.739355 C8.70706503,461.215532 8.06201469,460.625716 8.38105687,460.077146 M40.7951848,461.172911 C40.7854324,461.33377 40.6781562,461.611493 40.5276909,461.849344 C40.4984337,461.233405 40.386978,460.650463 39.9801644,460.12939 C39.9592664,460.100518 39.9300093,460.08402 39.9049317,460.064772 C39.8770678,459.83517 39.6179331,459.616566 39.3337208,459.752678 C37.8012038,460.48823 35.6570732,460.783825 33.9350814,460.885565 C30.8017807,461.071171 27.8175521,461.383265 24.6577807,461.259528 C21.9814487,461.157788 19.3469127,460.749453 16.6775467,460.662837 C15.3261453,460.618842 13.868861,460.310872 12.5327848,460.090894 C11.5491875,459.93141 8.75582694,460.041399 8.25427592,459.025375 C8.04250993,458.597793 7.38492082,458.970381 7.5966868,459.396588 C7.64126912,459.487329 7.7025698,459.553323 7.76108408,459.624816 C7.58136163,459.88329 7.52842014,460.261377 7.53538612,460.561097 C7.5451385,460.984555 7.81959837,461.28565 8.04808272,461.608743 C7.9561317,461.592244 7.86418068,461.571621 7.77362286,461.553748 C7.2929698,461.465757 7.0881698,462.175186 7.57021605,462.264552 C10.4123385,462.78975 13.2168446,463.650414 16.0979766,464.079371 C18.8871576,464.49458 21.7167412,464.79705 24.5505045,464.853419 C27.6782324,464.915288 30.7223684,464.579821 33.8152664,464.238855 C35.2920555,464.076622 36.7298351,463.669662 38.2149834,463.596795 C38.7639031,463.570672 39.3741235,463.18846 39.9049317,462.998729 C39.9453344,463.008353 39.9843439,463.016602 40.0331059,463.012478 C40.1877507,463.001479 40.3340365,462.947859 40.4705698,462.879116 C40.5875984,462.862618 40.669797,462.804873 40.7199521,462.725131 C41.2019984,462.355293 41.5293997,461.702233 41.5558705,461.172911 C41.580948,460.698584 40.8174759,460.701333 40.7951848,461.172911" id="Fill-22" fill="#020303"></path>
                    <path d="M40.9065012,464.34747 C39.8128414,465.403364 37.945957,465.593095 36.505391,465.84607 C35.1038346,466.09492 33.7315352,466.391891 32.31744,466.581622 C29.5003951,466.963834 26.7474373,466.650365 23.927606,466.703985 C21.0255761,466.758979 18.2336087,466.14579 15.3413312,466.057799 C13.8798672,466.012429 12.529859,465.520228 11.0976522,465.34287 C10.4595679,465.264503 7.02115701,464.911163 6.90970122,463.99413 C6.85258014,463.528051 6.09189442,463.522552 6.14901551,463.99413 C6.33291755,465.503729 9.35894204,465.863943 10.5180822,466.006929 C14.3493747,466.481257 18.1360849,467.183812 22.0008141,467.475283 C23.5806999,467.594896 25.2023815,467.45191 26.7961992,467.537152 C28.4638563,467.626518 30.1997801,467.605895 31.8535053,467.381792 C33.6897393,467.134317 35.4869638,466.771353 37.3134454,466.449635 C38.7540114,466.195285 40.3756931,465.89969 41.4442754,464.867168 C41.7925747,464.531701 41.2534073,464.010628 40.9065012,464.34747" id="Fill-24" fill="#020303"></path>
                    <path d="M41.3023086,465.22092 C41.164382,467.934899 35.2906623,468.352858 33.1660365,468.593459 C30.1065752,468.938549 27.0512936,468.843684 23.98208,468.788689 C20.9769535,468.736444 18.1125399,468.508217 15.1324909,468.109507 C13.6752065,467.912902 12.2429997,467.688799 10.8177589,467.317586 C10.1211603,467.137479 6.4723766,466.386804 6.40271673,465.465646 C6.3678868,464.995443 5.60441469,464.992693 5.64063782,465.465646 C5.71169088,466.390928 6.19513034,466.649403 7.06309224,466.954622 C8.89236027,467.599433 10.8567684,468.152128 12.7738079,468.505467 C16.736061,469.23552 20.684382,469.466497 24.7051494,469.537989 C28.6534705,469.606733 32.5363113,469.58061 36.4233317,468.845059 C38.6691657,468.420226 41.9292473,467.882655 42.0629943,465.22092 C42.0866786,464.746592 41.3259929,464.749342 41.3023086,465.22092" id="Fill-26" fill="#020303"></path>
                    <path d="M37.3935543,463.884966 C36.5353448,464.183311 35.6172278,464.195685 34.7283679,464.374417 C33.2515788,464.672762 31.7218482,464.99448 30.2144087,465.064598 C27.6202754,465.189711 24.9787733,465.012353 22.3818536,464.954609 C19.8225502,464.896865 17.271606,464.624642 14.7234482,464.417038 C13.3650808,464.305674 12.066621,464.023827 10.7528359,463.68836 C9.89880599,463.471132 7.82154884,463.211283 7.23919238,462.459233 C6.94940735,462.08527 6.28624544,462.450984 6.58160327,462.830446 C7.60003048,464.14344 10.3320903,464.359293 11.861821,464.718133 C14.5841284,465.358819 17.5042699,465.409689 20.2906645,465.592545 C23.3417665,465.79465 26.4444169,465.827647 29.5010917,465.818023 C30.9750944,465.812524 32.2735543,465.576047 33.7057611,465.283201 C34.990289,465.020603 36.3556223,465.026102 37.5955679,464.59577 C38.0539298,464.434911 37.857489,463.724107 37.3935543,463.884966" id="Fill-28" fill="#020303"></path>
                    <path d="M27.8445801,475.029467 C27.8445801,475.029467 36.0937012,474.661004 38.7588876,473.558363 L40.1548713,472.945175 C40.1548713,472.945175 39.3941856,475.153204 35.2048414,476.009744 C33.0398128,476.4552 25.8146917,475.274192 25.8146917,475.274192 L27.8445801,475.029467 Z" id="Fill-30" fill="#FEFEFE"></path>
                    <path d="M25.3064533,540.678619 C24.0790465,540.686868 22.8544261,540.792733 21.6256261,540.800982 C21.1352207,540.805107 21.1338275,541.540658 21.6256261,541.536534 C22.8544261,541.528284 24.0790465,541.423795 25.3064533,541.414171 C25.798252,541.411421 25.798252,540.675869 25.3064533,540.678619" id="Fill-32" fill="#020303"></path>
                    <path d="M40.3031075,470.58206 C38.6521687,472.728221 33.8623565,472.758468 31.3977905,472.974322 C30.0575347,473.093935 28.7075265,473.181926 27.361698,473.260293 C25.9782531,473.282291 24.6045605,473.366158 23.2211156,473.414278 C22.9173986,473.385406 22.6262204,473.34141 22.3629061,473.264418 C21.8906122,473.128306 21.691385,473.837736 22.1608925,473.973847 C22.2166204,473.990345 22.2779211,473.998595 22.3364354,474.012343 C22.3949497,474.105834 22.4938667,474.174577 22.6415456,474.171827 C22.8268408,474.166328 23.0093497,474.156704 23.1932517,474.151204 C24.3175619,474.241945 25.5728327,474.081086 26.6051918,474.04259 C26.8657197,474.032966 27.1262476,474.008219 27.3853823,473.995845 C27.644517,473.99172 27.9022585,473.986221 28.1627864,473.986221 C28.2366259,473.987596 28.2951401,473.966973 28.3480816,473.938101 C29.7956136,473.845985 31.2445388,473.729121 32.6823184,473.594385 C35.2806313,473.352409 39.2582095,473.166803 40.9606966,470.953273 C41.253268,470.572436 40.5914993,470.205348 40.3031075,470.58206" id="Fill-34" fill="#020303"></path>
                    <path d="M42.6608152,470.98682 C42.3961078,471.08306 42.2149921,470.901578 42.1146819,470.693974 C42.1341867,470.417627 42.086818,470.139904 41.9447118,469.915802 C42.383569,469.522591 43.0327989,469.320486 43.6402329,469.291614 C43.6109758,469.471721 43.5608207,469.649078 43.4967336,469.820936 C43.4897676,469.83056 43.4828016,469.837435 43.4758356,469.845684 C43.2891472,469.892429 43.1358955,470.051913 43.2139146,470.28289 C43.2236669,470.309013 43.2320261,470.335135 43.2403853,470.361257 C43.2417785,470.362632 43.2431717,470.362632 43.2431717,470.365382 C43.2362057,470.377756 43.2320261,470.391504 43.2236669,470.405253 C43.0996724,470.614232 42.9088044,470.896079 42.6608152,470.98682 M6.47112272,469.743944 C6.51988463,469.866307 6.50455946,469.834685 6.60765605,469.749443 L6.61322884,469.749443 C6.51152544,469.834685 6.47390912,469.946049 6.4836615,470.054663 C6.36802612,470.249893 6.29557986,470.471246 6.26910912,470.700848 C6.23706558,470.711847 6.20362884,470.720097 6.17019211,470.73247 C5.77034449,470.894704 5.51538939,471.045939 5.27436626,470.643104 C5.07374585,470.307638 4.77838803,470.021666 4.56104925,469.694449 C5.19634721,469.651828 5.83721796,469.715072 6.47112272,469.743944 M47.5829812,443.607801 C47.270905,438.786157 46.1730656,434.264233 43.9982846,429.911417 C42.2442493,426.401392 40.3160642,422.916114 37.4293595,420.144391 C34.4938928,417.328672 30.7893812,416.303024 26.7463227,416.18891 C24.4210765,416.121542 22.0247771,416.521627 19.834671,417.259928 C17.5581867,418.027102 15.329071,418.74753 13.3967064,420.171888 C9.76603429,422.847371 7.0465132,427.004957 5.00547918,430.872446 C2.69695129,435.248634 0.664276463,440.180267 0.0958519728,445.084403 C-0.189753469,447.559157 0.243530884,450.062782 0.352200272,452.537535 C0.465049252,455.09478 0.484554014,457.652025 0.676815238,460.20652 C0.913658776,463.341208 1.18951184,467.266441 3.4632098,469.709572 C3.5621268,469.812687 3.67497578,469.83606 3.78085878,469.814062 C3.91042612,470.061537 4.06507102,470.293889 4.25315265,470.513867 C4.49835537,470.805338 4.66693224,471.13668 4.91492136,471.425401 C5.12111456,471.664627 5.50285061,471.737495 5.79960163,471.652254 C5.99604245,471.598634 6.17855129,471.524391 6.36245333,471.447399 C6.3819581,471.496894 6.39171048,471.550514 6.41818122,471.597259 C6.63830639,472.011093 7.27221116,471.659128 7.08134313,471.246669 C7.13010503,471.23567 7.18165333,471.23292 7.22762884,471.215047 C7.65673361,471.047314 7.49512272,470.399754 7.08412952,470.494619 C7.1997649,470.270516 7.41571048,470.106908 7.69852952,470.124781 C8.18893497,470.153653 8.18614857,469.418101 7.69852952,469.387854 C7.5034819,469.376856 7.32933224,469.415352 7.16911456,469.474471 C7.1482166,469.415352 7.12871184,469.354858 7.11338667,469.290239 C7.07716354,469.128005 6.90858667,469.023516 6.74697578,469.019391 C5.78566966,469.005643 4.83968871,468.861282 3.88534857,469.03314 C3.88395537,469.034515 3.88116898,469.03589 3.87977578,469.03589 C2.4893649,467.434174 2.09648327,465.194523 1.77883429,463.185848 C1.33301116,460.357755 1.26613769,457.484292 1.18393905,454.630076 C1.1045268,451.873476 0.733936327,449.107252 0.774339048,446.354777 C0.817528163,443.387823 1.78580027,440.537732 2.80701388,437.772883 C4.7421649,432.53878 7.31122068,427.691013 11.0338438,423.437187 C14.5753513,419.386841 20.0729078,417.251679 25.5035907,416.939585 C30.6026928,416.648114 34.9146384,418.337821 38.2360207,422.063699 C41.1784533,425.361995 43.4423989,429.82755 44.9637703,433.897144 C46.8599118,438.967638 46.9852996,444.528959 47.0117703,449.859302 C47.0396343,455.662598 47.7571309,461.762865 44.9150084,467.068461 C44.707422,467.453422 44.4761513,468.037739 44.2114438,468.601433 C44.1640751,468.579435 44.1125268,468.564312 44.0581921,468.560187 C43.1289295,468.47632 41.9474982,468.802163 41.3052343,469.497843 C41.0934683,469.463472 40.8649839,469.473096 40.6309268,469.47997 C40.1405214,469.492344 40.1391282,470.227896 40.6309268,470.215522 C40.8343336,470.211397 41.168701,470.127531 41.3135935,470.292514 C41.338671,470.320011 41.3512098,470.362632 41.3609622,470.408003 C41.3122003,470.482245 41.2871227,470.574361 41.3094139,470.6816 C41.3191663,470.718722 41.3358846,470.751718 41.3484234,470.787465 C41.3358846,470.849334 41.324739,470.905703 41.3094139,470.945574 C41.2244288,471.24117 41.5002819,471.422651 41.741305,471.395154 C42.157871,471.777366 42.7820234,471.927226 43.2793948,471.48727 C43.6764561,471.13668 43.9662411,470.688475 44.1626819,470.201773 C44.8746057,469.290239 45.4068071,467.750393 45.8846737,466.858107 C47.107901,464.575834 47.5718356,462.219319 47.7390193,459.671698 C48.0859254,454.394975 47.9243146,448.883149 47.5829812,443.607801" id="Fill-36" fill="#020303"></path>
                    <path d="M8.03637986,473.985671 C6.72956082,475.926977 5.30849959,477.678553 4.44889687,479.865959 C3.5112751,482.244472 3.42768327,484.904832 3.41514449,487.416706 C3.41375129,487.889659 4.1758302,487.889659 4.1758302,487.416706 C4.18836898,485.126185 4.33604789,482.881034 4.97831184,480.664755 C5.67351728,478.26012 7.31609687,476.404055 8.69396898,474.356884 C8.96285605,473.956799 8.30108735,473.588335 8.03637986,473.985671" id="Fill-38" fill="#020303"></path>
                    <path d="M43.9996778,482.19044 C43.7071064,480.398994 43.110818,479.677191 41.9474982,478.325701 C41.6326356,477.959987 41.0976479,478.48381 41.4097241,478.846774 C42.7026112,480.350874 43.2320261,481.573127 43.3615935,483.529557 C43.4660833,485.116148 43.3908506,486.724738 43.3908506,488.312704 L43.3908506,498.453693 C43.3908506,498.928021 44.1515363,498.928021 44.1515363,498.453693 L44.1515363,486.8581 C44.1515363,485.315503 44.2504533,483.719288 43.9996778,482.19044" id="Fill-40" fill="#020303"></path>
                    <path d="M28.8444778,512.552224 L18.5473567,503.388763 C16.3851146,506.039499 15.2412996,508.191159 15.1131254,509.84237 C15.0643635,510.608168 15.1813921,511.358843 15.462818,512.094395 C16.1259799,513.834971 17.3687118,515.127343 19.1951935,515.977008 C21.0188887,516.823923 22.8133268,516.922913 24.5757214,516.268479 C25.4158193,515.956385 26.1514275,515.512304 26.7825459,514.934862 C27.4136642,514.35467 28.0991173,513.561374 28.8444778,512.552224 M32.659052,528.636745 C32.4166356,528.484135 32.2508452,528.295779 32.1672533,528.075801 C32.0836615,527.854448 32.1533214,527.531355 32.3776261,527.102398 C32.6005377,526.677566 32.8791771,526.179865 33.2121513,525.613422 C33.5465186,525.046978 33.859988,524.418666 34.1539527,523.72986 C34.8658765,522.104772 34.8561241,520.338073 34.1274819,518.424264 C33.7443527,517.421989 33.0073513,516.382592 31.9164778,515.3047 C31.5723581,514.974733 31.0680207,514.505905 30.4034656,513.898215 C29.0799282,515.70341 27.7633567,517.221259 26.4523581,518.446262 C25.1399663,519.674014 23.7356234,520.5663 22.2365431,521.12312 C20.7388561,521.679939 19.2634601,521.92054 17.8131418,521.850422 C16.3628234,521.778929 15.0197812,521.354097 13.7868016,520.574549 C12.553822,519.796377 11.6649622,518.697861 11.1244016,517.280378 C10.4305894,515.460059 10.342818,513.667238 10.8610873,511.903289 C11.2525758,510.535301 11.6733214,509.465657 12.1219309,508.695734 C12.5719336,507.925811 12.9230193,507.33737 13.1779744,506.93041 C13.4315363,506.520701 13.8090928,505.995503 14.305071,505.352068 C15.0685431,504.352542 15.7275254,503.515251 16.2848044,502.842943 C16.8406901,502.16926 17.1903826,501.738928 17.3338819,501.549197 C16.3851146,500.236203 15.7344914,499.118439 15.3820125,498.194531 C14.8108016,496.697306 14.7676125,495.079092 15.2496588,493.34264 C15.7303118,491.606188 16.5731962,490.060843 17.7741322,488.706603 C18.9764615,487.350988 20.3208969,486.396833 21.8130112,485.841388 C23.5475418,485.197953 25.3433731,485.056342 27.1991118,485.42068 C28.0991173,485.589789 28.9169241,485.955502 29.6497459,486.516446 C30.3811744,487.076015 30.9161622,487.796443 31.2533159,488.679105 C31.5026982,489.33629 31.0373703,490.309693 29.8601186,491.603439 C29.0214139,492.525972 28.1367336,493.411383 27.2060778,494.261049 C26.2768152,495.109339 25.7390411,495.607039 25.5941486,495.75415 C25.173403,495.543796 24.8306765,495.234452 24.5673622,494.828867 C24.6732452,494.698255 24.9532778,494.410909 25.4102465,493.965453 C25.8686084,493.519998 26.2559173,493.125412 26.5721731,492.778947 C26.8884288,492.432481 27.1628887,492.036521 27.3941595,491.591065 C27.6282166,491.144235 27.6853377,490.768897 27.5683091,490.460928 C27.1907527,489.471026 26.4830084,488.794594 25.4464697,488.43163 C24.4099309,488.067291 23.4555907,488.049418 22.5806629,488.373886 C21.705735,488.698353 21.0481459,489.110812 20.6037159,489.611262 C20.1606792,490.114462 19.8876125,490.674031 19.7831227,491.29272 C19.5560316,492.520472 19.650769,493.686356 20.0701214,494.782122 C20.4880805,495.880637 20.9798792,496.834792 21.5455173,497.645961 C22.1111554,498.45988 22.6754003,499.178933 23.238252,499.801746 C23.8011037,500.425934 24.5339254,501.129864 25.4381105,501.91766 C26.3422955,502.702707 27.0834765,503.321395 27.6644397,503.7696 C28.245403,504.217806 29.0464914,504.82412 30.0635254,505.583044 C31.0791663,506.341969 31.7869105,506.878165 32.1853649,507.188884 C32.955803,506.168736 33.6119989,504.868116 34.1539527,503.281524 C34.6959064,501.700432 35.0651037,500.21558 35.2629377,498.828343 C35.314486,498.473629 35.2030302,497.577218 34.9355363,496.141861 C34.6666493,494.707879 34.6373921,493.822467 34.8491581,493.481501 L35.6265622,493.148785 C35.6683581,493.132286 35.7004016,493.121287 35.7282656,493.110288 C36.2437486,492.919183 36.6115527,493.111663 36.8288914,493.684981 C37.249637,494.783497 37.3959227,496.293096 37.270535,498.219279 C37.1451472,500.144087 36.7787363,502.078519 36.1657295,504.022575 C35.5527227,505.969381 34.8143282,507.492729 33.951939,508.593994 C34.8366193,509.211308 35.6864697,509.981231 36.5014901,510.898264 C37.3179037,511.818048 37.8905078,512.711708 38.2220887,513.581997 C38.8295227,515.172713 39.0134248,517.016404 38.7765812,519.114445 C38.5383445,521.209736 37.8751826,523.167541 36.7801295,524.986484 C35.6864697,526.805428 34.3141703,528.022181 32.659052,528.636745" id="Fill-42" fill="#1E2F55"></path>
                    <path d="M24.9996713,210.691318 C24.9996713,210.278859 25.2824903,209.955767 25.640542,209.955767 C25.9999869,209.955767 26.282806,210.278859 26.282806,210.691318 C26.282806,211.102402 25.9999869,211.42687 25.640542,211.42687 C25.2824903,211.42687 24.9996713,211.102402 24.9996713,210.691318 M24.9996713,213.633525 C24.9996713,213.221066 25.2824903,212.896598 25.640542,212.896598 C25.9999869,212.896598 26.282806,213.221066 26.282806,213.633525 C26.282806,214.029485 25.9999869,214.367702 25.640542,214.367702 C25.2824903,214.367702 24.9996713,214.029485 24.9996713,213.633525 M24.9996713,216.559233 C24.9996713,216.161898 25.2824903,215.823681 25.640542,215.823681 C25.9999869,215.823681 26.282806,216.161898 26.282806,216.559233 C26.282806,216.971692 25.9999869,217.294785 25.640542,217.294785 C25.2824903,217.294785 24.9996713,216.971692 24.9996713,216.559233 M24.9996713,219.50144 C24.9996713,219.088981 25.2824903,218.765888 25.640542,218.765888 C25.9999869,218.765888 26.282806,219.088981 26.282806,219.50144 C26.282806,219.913898 25.9999869,220.236991 25.640542,220.236991 C25.2824903,220.236991 24.9996713,219.913898 24.9996713,219.50144 M24.9996713,222.442271 C24.9996713,222.031187 25.2824903,221.708094 25.640542,221.708094 C25.9999869,221.708094 26.282806,222.031187 26.282806,222.442271 C26.282806,222.839607 25.9999869,223.179198 25.640542,223.179198 C25.2824903,223.179198 24.9996713,222.839607 24.9996713,222.442271 M24.9996713,225.385853 C24.9996713,224.973394 25.2824903,224.648926 25.640542,224.648926 C25.9999869,224.648926 26.282806,224.973394 26.282806,225.385853 C26.282806,225.781813 25.9999869,226.106281 25.640542,226.106281 C25.2824903,226.106281 24.9996713,225.781813 24.9996713,225.385853 M24.9996713,228.311561 C24.9996713,227.9156 25.2824903,227.577384 25.640542,227.577384 C25.9999869,227.577384 26.282806,227.9156 26.282806,228.311561 C26.282806,228.72402 25.9999869,229.048487 25.640542,229.048487 C25.2824903,229.048487 24.9996713,228.72402 24.9996713,228.311561 M24.9996713,231.253767 C24.9996713,230.841309 25.2824903,230.518216 25.640542,230.518216 C25.9999869,230.518216 26.282806,230.841309 26.282806,231.253767 C26.282806,231.651103 25.9999869,231.989319 25.640542,231.989319 C25.2824903,231.989319 24.9996713,231.651103 24.9996713,231.253767 M24.9996713,234.195974 C24.9996713,233.783515 25.2824903,233.460422 25.640542,233.460422 C25.9999869,233.460422 26.282806,233.783515 26.282806,234.195974 C26.282806,234.593309 25.9999869,234.931526 25.640542,234.931526 C25.2824903,234.931526 24.9996713,234.593309 24.9996713,234.195974 M24.9996713,237.123057 C24.9996713,236.725722 25.2824903,236.386131 25.640542,236.386131 C25.9999869,236.386131 26.282806,236.725722 26.282806,237.123057 C26.282806,237.534141 25.9999869,237.858609 25.640542,237.858609 C25.2824903,237.858609 24.9996713,237.534141 24.9996713,237.123057 M24.9996713,240.063889 C24.9996713,239.652805 25.2824903,239.329712 25.640542,239.329712 C25.9999869,239.329712 26.282806,239.652805 26.282806,240.063889 C26.282806,240.476348 25.9999869,240.79944 25.640542,240.79944 C25.2824903,240.79944 24.9996713,240.476348 24.9996713,240.063889 M24.9996713,243.006095 C24.9996713,242.595011 25.2824903,242.270544 25.640542,242.270544 C25.9999869,242.270544 26.282806,242.595011 26.282806,243.006095 C26.282806,243.403431 25.9999869,243.741647 25.640542,243.741647 C25.2824903,243.741647 24.9996713,243.403431 24.9996713,243.006095 M24.9996713,245.933178 C24.9996713,245.535843 25.2824903,245.197627 25.640542,245.197627 C25.9999869,245.197627 26.282806,245.535843 26.282806,245.933178 C26.282806,246.345637 25.9999869,246.66873 25.640542,246.66873 C25.2824903,246.66873 24.9996713,246.345637 24.9996713,245.933178 M24.9996713,248.875385 C24.9996713,248.462926 25.2824903,248.139833 25.640542,248.139833 C25.9999869,248.139833 26.282806,248.462926 26.282806,248.875385 C26.282806,249.286469 25.9999869,249.610937 25.640542,249.610937 C25.2824903,249.610937 24.9996713,249.286469 24.9996713,248.875385 M24.9996713,251.817591 C24.9996713,251.405133 25.2824903,251.080665 25.640542,251.080665 C25.9999869,251.080665 26.282806,251.405133 26.282806,251.817591 C26.282806,252.214927 25.9999869,252.553143 25.640542,252.553143 C25.2824903,252.553143 24.9996713,252.214927 24.9996713,251.817591 M24.9996713,254.744675 C24.9996713,254.345964 25.2824903,254.024246 25.640542,254.024246 C25.9999869,254.024246 26.282806,254.345964 26.282806,254.744675 C26.282806,255.155759 25.9999869,255.493975 25.640542,255.493975 C25.2824903,255.493975 24.9996713,255.155759 24.9996713,254.744675 M24.9996713,257.685506 C24.9996713,257.274422 25.2824903,256.949955 25.640542,256.949955 C25.9999869,256.949955 26.282806,257.274422 26.282806,257.685506 C26.282806,258.097965 25.9999869,258.421058 25.640542,258.421058 C25.2824903,258.421058 24.9996713,258.097965 24.9996713,257.685506 M24.9996713,260.627713 C24.9996713,260.215254 25.2824903,259.892161 25.640542,259.892161 C25.9999869,259.892161 26.282806,260.215254 26.282806,260.627713 C26.282806,261.040172 25.9999869,261.36189 25.640542,261.36189 C25.2824903,261.36189 24.9996713,261.040172 24.9996713,260.627713 M24.9996713,263.568545 C24.9996713,263.157461 25.2824903,262.832993 25.640542,262.832993 C25.9999869,262.832993 26.282806,263.157461 26.282806,263.568545 C26.282806,263.96588 25.9999869,264.304096 25.640542,264.304096 C25.2824903,264.304096 24.9996713,263.96588 24.9996713,263.568545 M24.9996713,266.497002 C24.9996713,266.099667 25.2824903,265.761451 25.640542,265.761451 C25.9999869,265.761451 26.282806,266.099667 26.282806,266.497002 C26.282806,266.908086 25.9999869,267.232554 25.640542,267.232554 C25.2824903,267.232554 24.9996713,266.908086 24.9996713,266.497002 M24.9996713,269.437834 C24.9996713,269.02675 25.2824903,268.702282 25.640542,268.702282 C25.9999869,268.702282 26.282806,269.02675 26.282806,269.437834 C26.282806,269.850293 25.9999869,270.173386 25.640542,270.173386 C25.2824903,270.173386 24.9996713,269.850293 24.9996713,269.437834 M24.9996713,272.380041 C24.9996713,271.967582 25.2824903,271.644489 25.640542,271.644489 C25.9999869,271.644489 26.282806,271.967582 26.282806,272.380041 C26.282806,272.777376 25.9999869,273.115592 25.640542,273.115592 C25.2824903,273.115592 24.9996713,272.777376 24.9996713,272.380041 M24.9996713,275.307124 C24.9996713,274.909788 25.2824903,274.571572 25.640542,274.571572 C25.9999869,274.571572 26.282806,274.909788 26.282806,275.307124 C26.282806,275.718208 25.9999869,276.056424 25.640542,276.056424 C25.2824903,276.056424 24.9996713,275.718208 24.9996713,275.307124 M24.9996713,278.247955 C24.9996713,277.836871 25.2824903,277.513779 25.640542,277.513779 C25.9999869,277.513779 26.282806,277.836871 26.282806,278.247955 C26.282806,278.661789 25.9999869,278.983507 25.640542,278.983507 C25.2824903,278.983507 24.9996713,278.661789 24.9996713,278.247955 M24.9996713,281.190162 C24.9996713,280.779078 25.2824903,280.45461 25.640542,280.45461 C25.9999869,280.45461 26.282806,280.779078 26.282806,281.190162 C26.282806,281.587497 25.9999869,281.925714 25.640542,281.925714 C25.2824903,281.925714 24.9996713,281.587497 24.9996713,281.190162 M24.9996713,284.117245 C24.9996713,283.721285 25.2824903,283.396817 25.640542,283.396817 C25.9999869,283.396817 26.282806,283.721285 26.282806,284.117245 C26.282806,284.529704 25.9999869,284.852797 25.640542,284.852797 C25.2824903,284.852797 24.9996713,284.529704 24.9996713,284.117245 M24.9996713,287.059452 C24.9996713,286.662116 25.2824903,286.3239 25.640542,286.3239 C25.9999869,286.3239 26.282806,286.662116 26.282806,287.059452 C26.282806,287.470536 25.9999869,287.795003 25.640542,287.795003 C25.2824903,287.795003 24.9996713,287.470536 24.9996713,287.059452 M24.9996713,290.001658 C24.9996713,289.589199 25.2824903,289.266107 25.640542,289.266107 C25.9999869,289.266107 26.282806,289.589199 26.282806,290.001658 C26.282806,290.412742 25.9999869,290.73721 25.640542,290.73721 C25.2824903,290.73721 24.9996713,290.412742 24.9996713,290.001658 M24.9996713,292.94249 C24.9996713,292.530031 25.2824903,292.208313 25.640542,292.208313 C25.9999869,292.208313 26.282806,292.530031 26.282806,292.94249 C26.282806,293.339825 25.9999869,293.678042 25.640542,293.678042 C25.2824903,293.678042 24.9996713,293.339825 24.9996713,292.94249 M24.9996713,295.869573 C24.9996713,295.472238 25.2824903,295.134021 25.640542,295.134021 C25.9999869,295.134021 26.282806,295.472238 26.282806,295.869573 C26.282806,296.282032 25.9999869,296.605125 25.640542,296.605125 C25.2824903,296.605125 24.9996713,296.282032 24.9996713,295.869573 M24.9996713,298.811779 C24.9996713,298.399321 25.2824903,298.076228 25.640542,298.076228 C25.9999869,298.076228 26.282806,298.399321 26.282806,298.811779 C26.282806,299.224238 25.9999869,299.547331 25.640542,299.547331 C25.2824903,299.547331 24.9996713,299.224238 24.9996713,298.811779 M24.9996713,301.752611 C24.9996713,301.341527 25.2824903,301.018434 25.640542,301.018434 C25.9999869,301.018434 26.282806,301.341527 26.282806,301.752611 C26.282806,302.149947 25.9999869,302.489538 25.640542,302.489538 C25.2824903,302.489538 24.9996713,302.149947 24.9996713,301.752611 M24.9996713,304.681069 C24.9996713,304.283734 25.2824903,303.945517 25.640542,303.945517 C25.9999869,303.945517 26.282806,304.283734 26.282806,304.681069 C26.282806,305.092153 25.9999869,305.415246 25.640542,305.415246 C25.2824903,305.415246 24.9996713,305.092153 24.9996713,304.681069 M24.9996713,307.621901 C24.9996713,307.210817 25.2824903,306.886349 25.640542,306.886349 C25.9999869,306.886349 26.282806,307.210817 26.282806,307.621901 C26.282806,308.03436 25.9999869,308.357452 25.640542,308.357452 C25.2824903,308.357452 24.9996713,308.03436 24.9996713,307.621901 M24.9996713,310.564107 C24.9996713,310.151649 25.2824903,309.828556 25.640542,309.828556 C25.9999869,309.828556 26.282806,310.151649 26.282806,310.564107 C26.282806,310.961443 25.9999869,311.299659 25.640542,311.299659 C25.2824903,311.299659 24.9996713,310.961443 24.9996713,310.564107 M24.9996713,313.49119 C24.9996713,313.093855 25.2824903,312.770762 25.640542,312.770762 C25.9999869,312.770762 26.282806,313.093855 26.282806,313.49119 C26.282806,313.903649 25.9999869,314.241866 25.640542,314.241866 C25.2824903,314.241866 24.9996713,313.903649 24.9996713,313.49119 M24.9996713,316.433397 C24.9996713,316.020938 25.2824903,315.69647 25.640542,315.69647 C25.9999869,315.69647 26.282806,316.020938 26.282806,316.433397 C26.282806,316.844481 25.9999869,317.167574 25.640542,317.167574 C25.2824903,317.167574 24.9996713,316.844481 24.9996713,316.433397 M24.9996713,319.374229 C24.9996713,318.963145 25.2824903,318.638677 25.640542,318.638677 C25.9999869,318.638677 26.282806,318.963145 26.282806,319.374229 C26.282806,319.771564 25.9999869,320.10978 25.640542,320.10978 C25.2824903,320.10978 24.9996713,319.771564 24.9996713,319.374229 M24.9996713,322.316435 C24.9996713,321.905351 25.2824903,321.580884 25.640542,321.580884 C25.9999869,321.580884 26.282806,321.905351 26.282806,322.316435 C26.282806,322.713771 25.9999869,323.051987 25.640542,323.051987 C25.2824903,323.051987 24.9996713,322.713771 24.9996713,322.316435 M24.9996713,325.243518 C24.9996713,324.846183 25.2824903,324.507967 25.640542,324.507967 C25.9999869,324.507967 26.282806,324.846183 26.282806,325.243518 C26.282806,325.655977 25.9999869,325.97907 25.640542,325.97907 C25.2824903,325.97907 24.9996713,325.655977 24.9996713,325.243518 M24.9996713,328.185725 C24.9996713,327.773266 25.2824903,327.450173 25.640542,327.450173 C25.9999869,327.450173 26.282806,327.773266 26.282806,328.185725 C26.282806,328.596809 25.9999869,328.921276 25.640542,328.921276 C25.2824903,328.921276 24.9996713,328.596809 24.9996713,328.185725 M24.9996713,331.127931 C24.9996713,330.715473 25.2824903,330.391005 25.640542,330.391005 C25.9999869,330.391005 26.282806,330.715473 26.282806,331.127931 C26.282806,331.523892 25.9999869,331.862108 25.640542,331.862108 C25.2824903,331.862108 24.9996713,331.523892 24.9996713,331.127931 M24.9996713,334.05364 C24.9996713,333.656304 25.2824903,333.318088 25.640542,333.318088 C25.9999869,333.318088 26.282806,333.656304 26.282806,334.05364 C26.282806,334.466098 25.9999869,334.789191 25.640542,334.789191 C25.2824903,334.789191 24.9996713,334.466098 24.9996713,334.05364 M24.9996713,336.995846 C24.9996713,336.583387 25.2824903,336.260295 25.640542,336.260295 C25.9999869,336.260295 26.282806,336.583387 26.282806,336.995846 C26.282806,337.408305 25.9999869,337.731398 25.640542,337.731398 C25.2824903,337.731398 24.9996713,337.408305 24.9996713,336.995846 M24.9996713,339.938053 C24.9996713,339.526969 25.2824903,339.202501 25.640542,339.202501 C25.9999869,339.202501 26.282806,339.526969 26.282806,339.938053 C26.282806,340.334013 25.9999869,340.673604 25.640542,340.673604 C25.2824903,340.673604 24.9996713,340.334013 24.9996713,339.938053 M24.9996713,342.865136 C24.9996713,342.4678 25.2824903,342.143333 25.640542,342.143333 C25.9999869,342.143333 26.282806,342.4678 26.282806,342.865136 C26.282806,343.27622 25.9999869,343.614436 25.640542,343.614436 C25.2824903,343.614436 24.9996713,343.27622 24.9996713,342.865136 M24.9996713,345.805967 C24.9996713,345.410007 25.2824903,345.071791 25.640542,345.071791 C25.9999869,345.071791 26.282806,345.410007 26.282806,345.805967 C26.282806,346.218426 25.9999869,346.542894 25.640542,346.542894 C25.2824903,346.542894 24.9996713,346.218426 24.9996713,345.805967 M24.9996713,348.748174 C24.9996713,348.335715 25.2824903,348.012622 25.640542,348.012622 C25.9999869,348.012622 26.282806,348.335715 26.282806,348.748174 C26.282806,349.159258 25.9999869,349.483726 25.640542,349.483726 C25.2824903,349.483726 24.9996713,349.159258 24.9996713,348.748174 M24.9996713,351.690381 C24.9996713,351.277922 25.2824903,350.954829 25.640542,350.954829 C25.9999869,350.954829 26.282806,351.277922 26.282806,351.690381 C26.282806,352.087716 25.9999869,352.425932 25.640542,352.425932 C25.2824903,352.425932 24.9996713,352.087716 24.9996713,351.690381 M24.9996713,354.617464 C24.9996713,354.220128 25.2824903,353.881912 25.640542,353.881912 C25.9999869,353.881912 26.282806,354.220128 26.282806,354.617464 C26.282806,355.028548 25.9999869,355.353015 25.640542,355.353015 C25.2824903,355.353015 24.9996713,355.028548 24.9996713,354.617464 M24.9996713,357.558295 C24.9996713,357.147211 25.2824903,356.824119 25.640542,356.824119 C25.9999869,356.824119 26.282806,357.147211 26.282806,357.558295 C26.282806,357.970754 25.9999869,358.293847 25.640542,358.293847 C25.2824903,358.293847 24.9996713,357.970754 24.9996713,357.558295 M24.9996713,360.500502 C24.9996713,360.089418 25.2824903,359.76495 25.640542,359.76495 C25.9999869,359.76495 26.282806,360.089418 26.282806,360.500502 C26.282806,360.897837 25.9999869,361.236054 25.640542,361.236054 C25.2824903,361.236054 24.9996713,360.897837 24.9996713,360.500502 M24.9996713,363.427585 C24.9996713,363.03025 25.2824903,362.692033 25.640542,362.692033 C25.9999869,362.692033 26.282806,363.03025 26.282806,363.427585 C26.282806,363.840044 25.9999869,364.163137 25.640542,364.163137 C25.2824903,364.163137 24.9996713,363.840044 24.9996713,363.427585 M24.9996713,366.369792 C24.9996713,365.958708 25.2824903,365.63424 25.640542,365.63424 C25.9999869,365.63424 26.282806,365.958708 26.282806,366.369792 C26.282806,366.780876 25.9999869,367.105343 25.640542,367.105343 C25.2824903,367.105343 24.9996713,366.780876 24.9996713,366.369792 M24.9996713,369.311998 C24.9996713,368.899539 25.2824903,368.576446 25.640542,368.576446 C25.9999869,368.576446 26.282806,368.899539 26.282806,369.311998 C26.282806,369.709333 25.9999869,370.04755 25.640542,370.04755 C25.2824903,370.04755 24.9996713,369.709333 24.9996713,369.311998 M24.9996713,372.237706 C24.9996713,371.841746 25.2824903,371.518653 25.640542,371.518653 C25.9999869,371.518653 26.282806,371.841746 26.282806,372.237706 C26.282806,372.650165 25.9999869,372.973258 25.640542,372.973258 C25.2824903,372.973258 24.9996713,372.650165 24.9996713,372.237706 M24.9996713,375.179913 C24.9996713,374.768829 25.2824903,374.444361 25.640542,374.444361 C25.9999869,374.444361 26.282806,374.768829 26.282806,375.179913 C26.282806,375.592372 25.9999869,375.915464 25.640542,375.915464 C25.2824903,375.915464 24.9996713,375.592372 24.9996713,375.179913 M24.9996713,378.122119 C24.9996713,377.709661 25.2824903,377.386568 25.640542,377.386568 C25.9999869,377.386568 26.282806,377.709661 26.282806,378.122119 C26.282806,378.51808 25.9999869,378.856296 25.640542,378.856296 C25.2824903,378.856296 24.9996713,378.51808 24.9996713,378.122119 M24.9996713,381.062951 C24.9996713,380.651867 25.2824903,380.327399 25.640542,380.327399 C25.9999869,380.327399 26.282806,380.651867 26.282806,381.062951 C26.282806,381.460286 25.9999869,381.798503 25.640542,381.798503 C25.2824903,381.798503 24.9996713,381.460286 24.9996713,381.062951 M24.9996713,383.991409 C24.9996713,383.594074 25.2824903,383.255857 25.640542,383.255857 C25.9999869,383.255857 26.282806,383.594074 26.282806,383.991409 C26.282806,384.402493 25.9999869,384.725586 25.640542,384.725586 C25.2824903,384.725586 24.9996713,384.402493 24.9996713,383.991409 M24.9996713,386.932241 C24.9996713,386.521157 25.2824903,386.196689 25.640542,386.196689 C25.9999869,386.196689 26.282806,386.521157 26.282806,386.932241 C26.282806,387.3447 25.9999869,387.667792 25.640542,387.667792 C25.2824903,387.667792 24.9996713,387.3447 24.9996713,386.932241 M24.9996713,389.874447 C24.9996713,389.463363 25.2824903,389.138896 25.640542,389.138896 C25.9999869,389.138896 26.282806,389.463363 26.282806,389.874447 C26.282806,390.271783 25.9999869,390.609999 25.640542,390.609999 C25.2824903,390.609999 24.9996713,390.271783 24.9996713,389.874447 M24.9996713,392.80153 C24.9996713,392.404195 25.2824903,392.065979 25.640542,392.065979 C25.9999869,392.065979 26.282806,392.404195 26.282806,392.80153 C26.282806,393.212614 25.9999869,393.537082 25.640542,393.537082 C25.2824903,393.537082 24.9996713,393.212614 24.9996713,392.80153 M24.9996713,395.743737 C24.9996713,395.331278 25.2824903,395.008185 25.640542,395.008185 C25.9999869,395.008185 26.282806,395.331278 26.282806,395.743737 C26.282806,396.154821 25.9999869,396.479289 25.640542,396.479289 C25.2824903,396.479289 24.9996713,396.154821 24.9996713,395.743737 M24.9996713,398.685943 C24.9996713,398.273485 25.2824903,397.950392 25.640542,397.950392 C25.9999869,397.950392 26.282806,398.273485 26.282806,398.685943 C26.282806,399.081904 25.9999869,399.42012 25.640542,399.42012 C25.2824903,399.42012 24.9996713,399.081904 24.9996713,398.685943 M24.9996713,401.611652 C24.9996713,401.215691 25.2824903,400.891224 25.640542,400.891224 C25.9999869,400.891224 26.282806,401.215691 26.282806,401.611652 C26.282806,402.024111 25.9999869,402.362327 25.640542,402.362327 C25.2824903,402.362327 24.9996713,402.024111 24.9996713,401.611652 M24.9996713,404.553858 C24.9996713,404.142774 25.2824903,403.818307 25.640542,403.818307 C25.9999869,403.818307 26.282806,404.142774 26.282806,404.553858 C26.282806,404.964942 25.9999869,405.28941 25.640542,405.28941 C25.2824903,405.28941 24.9996713,404.964942 24.9996713,404.553858 M24.9996713,407.496065 C24.9996713,407.083606 25.2824903,406.760513 25.640542,406.760513 C25.9999869,406.760513 26.282806,407.083606 26.282806,407.496065 C26.282806,407.907149 25.9999869,408.231616 25.640542,408.231616 C25.2824903,408.231616 24.9996713,407.907149 24.9996713,407.496065 M24.9996713,410.436896 C24.9996713,410.025812 25.2824903,409.701345 25.640542,409.701345 C25.9999869,409.701345 26.282806,410.025812 26.282806,410.436896 C26.282806,410.834232 25.9999869,411.172448 25.640542,411.172448 C25.2824903,411.172448 24.9996713,410.834232 24.9996713,410.436896 M24.9996713,413.365354 C24.9996713,412.968019 25.2824903,412.629803 25.640542,412.629803 C25.9999869,412.629803 26.282806,412.968019 26.282806,413.365354 C26.282806,413.776438 25.9999869,414.100906 25.640542,414.100906 C25.2824903,414.100906 24.9996713,413.776438 24.9996713,413.365354 M24.9996713,416.306186 C24.9996713,415.893727 25.2824903,415.572009 25.640542,415.572009 C25.9999869,415.572009 26.282806,415.893727 26.282806,416.306186 C26.282806,416.718645 25.9999869,417.041738 25.640542,417.041738 C25.2824903,417.041738 24.9996713,416.718645 24.9996713,416.306186" id="Fill-44" fill="#231F1E"></path>
                    <g id="Group-48" transform="translate(24.767952, 0.101509)">
                        <mask id="mask-4" fill="white">
                            <use xlink:href="#path-3"></use>
                        </mask>
                        <g id="Clip-47"></g>
                        <path d="M0.231719667,1.24686314 C0.231719667,0.83440428 0.514538715,0.511311504 0.872590416,0.511311504 C1.23203531,0.511311504 1.51485436,0.83440428 1.51485436,1.24686314 C1.51485436,1.65794714 1.23203531,1.98241478 0.872590416,1.98241478 C0.514538715,1.98241478 0.231719667,1.65794714 0.231719667,1.24686314 M0.231719667,4.1890697 C0.231719667,3.77661084 0.514538715,3.45351806 0.872590416,3.45351806 C1.23203531,3.45351806 1.51485436,3.77661084 1.51485436,4.1890697 C1.51485436,4.58640507 1.23203531,4.92462134 0.872590416,4.92462134 C0.514538715,4.92462134 0.231719667,4.58640507 0.231719667,4.1890697 M0.231719667,7.11615276 C0.231719667,6.71744253 0.514538715,6.37922626 0.872590416,6.37922626 C1.23203531,6.37922626 1.51485436,6.71744253 1.51485436,7.11615276 C1.51485436,7.52723676 1.23203531,7.85032954 0.872590416,7.85032954 C0.514538715,7.85032954 0.231719667,7.52723676 0.231719667,7.11615276 M0.231719667,10.0569845 C0.231719667,9.64590046 0.514538715,9.32143282 0.872590416,9.32143282 C1.23203531,9.32143282 1.51485436,9.64590046 1.51485436,10.0569845 C1.51485436,10.4694433 1.23203531,10.7925361 0.872590416,10.7925361 C0.514538715,10.7925361 0.231719667,10.4694433 0.231719667,10.0569845 M0.231719667,12.999191 C0.231719667,12.588107 0.514538715,12.2636394 0.872590416,12.2636394 C1.23203531,12.2636394 1.51485436,12.588107 1.51485436,12.999191 C1.51485436,13.3965264 1.23203531,13.7347427 0.872590416,13.7347427 C0.514538715,13.7347427 0.231719667,13.3965264 0.231719667,12.999191 M0.231719667,15.9413976 C0.231719667,15.5289387 0.514538715,15.2044711 0.872590416,15.2044711 C1.23203531,15.2044711 1.51485436,15.5289387 1.51485436,15.9413976 C1.51485436,16.3387329 1.23203531,16.6618257 0.872590416,16.6618257 C0.514538715,16.6618257 0.231719667,16.3387329 0.231719667,15.9413976 M0.231719667,18.8684806 C0.231719667,18.4711453 0.514538715,18.132929 0.872590416,18.132929 C1.23203531,18.132929 1.51485436,18.4711453 1.51485436,18.8684806 C1.51485436,19.2795646 1.23203531,19.6040323 0.872590416,19.6040323 C0.514538715,19.6040323 0.231719667,19.2795646 0.231719667,18.8684806 M0.231719667,21.8106872 C0.231719667,21.3982283 0.514538715,21.0737607 0.872590416,21.0737607 C1.23203531,21.0737607 1.51485436,21.3982283 1.51485436,21.8106872 C1.51485436,22.2066477 1.23203531,22.544864 0.872590416,22.544864 C0.514538715,22.544864 0.231719667,22.2066477 0.231719667,21.8106872 M0.231719667,24.7515189 C0.231719667,24.33906 0.514538715,24.0159672 0.872590416,24.0159672 C1.23203531,24.0159672 1.51485436,24.33906 1.51485436,24.7515189 C1.51485436,25.1488543 1.23203531,25.4870705 0.872590416,25.4870705 C0.514538715,25.4870705 0.231719667,25.1488543 0.231719667,24.7515189 M0.231719667,27.678602 C0.231719667,27.2812666 0.514538715,26.9430503 0.872590416,26.9430503 C1.23203531,26.9430503 1.51485436,27.2812666 1.51485436,27.678602 C1.51485436,28.0910608 1.23203531,28.4141536 0.872590416,28.4141536 C0.514538715,28.4141536 0.231719667,28.0910608 0.231719667,27.678602 M0.231719667,30.6208085 C0.231719667,30.2083496 0.514538715,29.8852569 0.872590416,29.8852569 C1.23203531,29.8852569 1.51485436,30.2083496 1.51485436,30.6208085 C1.51485436,31.0332674 1.23203531,31.3549853 0.872590416,31.3549853 C0.514538715,31.3549853 0.231719667,31.0332674 0.231719667,30.6208085 M0.231719667,33.5616402 C0.231719667,33.1505562 0.514538715,32.8260886 0.872590416,32.8260886 C1.23203531,32.8260886 1.51485436,33.1505562 1.51485436,33.5616402 C1.51485436,33.9589756 1.23203531,34.2971918 0.872590416,34.2971918 C0.514538715,34.2971918 0.231719667,33.9589756 0.231719667,33.5616402 M0.231719667,36.4887233 C0.231719667,36.0927628 0.514538715,35.7545465 0.872590416,35.7545465 C1.23203531,35.7545465 1.51485436,36.0927628 1.51485436,36.4887233 C1.51485436,36.9011821 1.23203531,37.2242749 0.872590416,37.2242749 C0.514538715,37.2242749 0.231719667,36.9011821 0.231719667,36.4887233 M0.231719667,39.4309298 C0.231719667,39.018471 0.514538715,38.6953782 0.872590416,38.6953782 C1.23203531,38.6953782 1.51485436,39.018471 1.51485436,39.4309298 C1.51485436,39.8420138 1.23203531,40.1664815 0.872590416,40.1664815 C0.514538715,40.1664815 0.231719667,39.8420138 0.231719667,39.4309298 M0.231719667,42.3731364 C0.231719667,41.9606775 0.514538715,41.6375847 0.872590416,41.6375847 C1.23203531,41.6375847 1.51485436,41.9606775 1.51485436,42.3731364 C1.51485436,42.7704717 1.23203531,43.108688 0.872590416,43.108688 C0.514538715,43.108688 0.231719667,42.7704717 0.231719667,42.3731364 M0.231719667,45.3002194 C0.231719667,44.9015092 0.514538715,44.5797913 0.872590416,44.5797913 C1.23203531,44.5797913 1.51485436,44.9015092 1.51485436,45.3002194 C1.51485436,45.7113034 1.23203531,46.0495197 0.872590416,46.0495197 C0.514538715,46.0495197 0.231719667,45.7113034 0.231719667,45.3002194 M0.231719667,48.2410511 C0.231719667,47.8299671 0.514538715,47.5054995 0.872590416,47.5054995 C1.23203531,47.5054995 1.51485436,47.8299671 1.51485436,48.2410511 C1.51485436,48.65351 1.23203531,48.9766028 0.872590416,48.9766028 C0.514538715,48.9766028 0.231719667,48.65351 0.231719667,48.2410511 M0.231719667,51.1832577 C0.231719667,50.7707988 0.514538715,50.4477061 0.872590416,50.4477061 C1.23203531,50.4477061 1.51485436,50.7707988 1.51485436,51.1832577 C1.51485436,51.5957166 1.23203531,51.9188093 0.872590416,51.9188093 C0.514538715,51.9188093 0.231719667,51.5957166 0.231719667,51.1832577 M0.231719667,54.1240894 C0.231719667,53.7130054 0.514538715,53.3899126 0.872590416,53.3899126 C1.23203531,53.3899126 1.51485436,53.7130054 1.51485436,54.1240894 C1.51485436,54.5227996 1.23203531,54.8610159 0.872590416,54.8610159 C0.514538715,54.8610159 0.231719667,54.5227996 0.231719667,54.1240894 M0.231719667,57.0525473 C0.231719667,56.6552119 0.514538715,56.3169957 0.872590416,56.3169957 C1.23203531,56.3169957 1.51485436,56.6552119 1.51485436,57.0525473 C1.51485436,57.4636313 1.23203531,57.788099 0.872590416,57.788099 C0.514538715,57.788099 0.231719667,57.4636313 0.231719667,57.0525473 M0.231719667,59.993379 C0.231719667,59.582295 0.514538715,59.2592022 0.872590416,59.2592022 C1.23203531,59.2592022 1.51485436,59.582295 1.51485436,59.993379 C1.51485436,60.4058379 1.23203531,60.7303055 0.872590416,60.7303055 C0.514538715,60.7303055 0.231719667,60.4058379 0.231719667,59.993379 M0.231719667,62.9355856 C0.231719667,62.5231267 0.514538715,62.2000339 0.872590416,62.2000339 C1.23203531,62.2000339 1.51485436,62.5231267 1.51485436,62.9355856 C1.51485436,63.3329209 1.23203531,63.6711372 0.872590416,63.6711372 C0.514538715,63.6711372 0.231719667,63.3329209 0.231719667,62.9355856 M0.231719667,65.8626686 C0.231719667,65.4653333 0.514538715,65.127117 0.872590416,65.127117 C1.23203531,65.127117 1.51485436,65.4653333 1.51485436,65.8626686 C1.51485436,66.2751275 1.23203531,66.6133438 0.872590416,66.6133438 C0.514538715,66.6133438 0.231719667,66.2751275 0.231719667,65.8626686 M0.231719667,68.8048752 C0.231719667,68.3924163 0.514538715,68.0693235 0.872590416,68.0693235 C1.23203531,68.0693235 1.51485436,68.3924163 1.51485436,68.8048752 C1.51485436,69.217334 1.23203531,69.539052 0.872590416,69.539052 C0.514538715,69.539052 0.231719667,69.217334 0.231719667,68.8048752 M0.231719667,71.7457069 C0.231719667,71.3346229 0.514538715,71.0101552 0.872590416,71.0101552 C1.23203531,71.0101552 1.51485436,71.3346229 1.51485436,71.7457069 C1.51485436,72.1430423 1.23203531,72.4812585 0.872590416,72.4812585 C0.514538715,72.4812585 0.231719667,72.1430423 0.231719667,71.7457069 M0.231719667,74.6741648 C0.231719667,74.2768294 0.514538715,73.9523618 0.872590416,73.9523618 C1.23203531,73.9523618 1.51485436,74.2768294 1.51485436,74.6741648 C1.51485436,75.0852488 1.23203531,75.4083416 0.872590416,75.4083416 C0.514538715,75.4083416 0.231719667,75.0852488 0.231719667,74.6741648 M0.231719667,77.6149965 C0.231719667,77.2176611 0.514538715,76.8794449 0.872590416,76.8794449 C1.23203531,76.8794449 1.51485436,77.2176611 1.51485436,77.6149965 C1.51485436,78.0274554 1.23203531,78.3505481 0.872590416,78.3505481 C0.514538715,78.3505481 0.231719667,78.0274554 0.231719667,77.6149965 M0.231719667,80.5572031 C0.231719667,80.1447442 0.514538715,79.8216514 0.872590416,79.8216514 C1.23203531,79.8216514 1.51485436,80.1447442 1.51485436,80.5572031 C1.51485436,80.9682871 1.23203531,81.2927547 0.872590416,81.2927547 C0.514538715,81.2927547 0.231719667,80.9682871 0.231719667,80.5572031 M0.231719667,83.4994096 C0.231719667,83.0869507 0.514538715,82.763858 0.872590416,82.763858 C1.23203531,82.763858 1.51485436,83.0869507 1.51485436,83.4994096 C1.51485436,83.896745 1.23203531,84.2335864 0.872590416,84.2335864 C0.514538715,84.2335864 0.231719667,83.896745 0.231719667,83.4994096 M0.231719667,86.4251178 C0.231719667,86.0291573 0.514538715,85.6895662 0.872590416,85.6895662 C1.23203531,85.6895662 1.51485436,86.0291573 1.51485436,86.4251178 C1.51485436,86.8375767 1.23203531,87.1606695 0.872590416,87.1606695 C0.514538715,87.1606695 0.231719667,86.8375767 0.231719667,86.4251178 M0.231719667,89.3673244 C0.231719667,88.9562404 0.514538715,88.6317727 0.872590416,88.6317727 C1.23203531,88.6317727 1.51485436,88.9562404 1.51485436,89.3673244 C1.51485436,89.7797832 1.23203531,90.102876 0.872590416,90.102876 C0.514538715,90.102876 0.231719667,89.7797832 0.231719667,89.3673244 M0.231719667,92.3095309 C0.231719667,91.8984469 0.514538715,91.5739793 0.872590416,91.5739793 C1.23203531,91.5739793 1.51485436,91.8984469 1.51485436,92.3095309 C1.51485436,92.7054914 1.23203531,93.0450826 0.872590416,93.0450826 C0.514538715,93.0450826 0.231719667,92.7054914 0.231719667,92.3095309 M0.231719667,95.236614 C0.231719667,94.8392786 0.514538715,94.5010624 0.872590416,94.5010624 C1.23203531,94.5010624 1.51485436,94.8392786 1.51485436,95.236614 C1.51485436,95.647698 1.23203531,95.9721656 0.872590416,95.9721656 C0.514538715,95.9721656 0.231719667,95.647698 0.231719667,95.236614 M0.231719667,98.1774457 C0.231719667,97.7663617 0.514538715,97.4432689 0.872590416,97.4432689 C1.23203531,97.4432689 1.51485436,97.7663617 1.51485436,98.1774457 C1.51485436,98.5899045 1.23203531,98.9143722 0.872590416,98.9143722 C0.514538715,98.9143722 0.231719667,98.5899045 0.231719667,98.1774457 M0.231719667,101.119652 C0.231719667,100.707193 0.514538715,100.384101 0.872590416,100.384101 C1.23203531,100.384101 1.51485436,100.707193 1.51485436,101.119652 C1.51485436,101.516988 1.23203531,101.855204 0.872590416,101.855204 C0.514538715,101.855204 0.231719667,101.516988 0.231719667,101.119652 M0.231719667,104.046735 C0.231719667,103.6494 0.514538715,103.326307 0.872590416,103.326307 C1.23203531,103.326307 1.51485436,103.6494 1.51485436,104.046735 C1.51485436,104.459194 1.23203531,104.79741 0.872590416,104.79741 C0.514538715,104.79741 0.231719667,104.459194 0.231719667,104.046735 M0.231719667,106.988942 C0.231719667,106.576483 0.514538715,106.25339 0.872590416,106.25339 C1.23203531,106.25339 1.51485436,106.576483 1.51485436,106.988942 C1.51485436,107.400026 1.23203531,107.724494 0.872590416,107.724494 C0.514538715,107.724494 0.231719667,107.400026 0.231719667,106.988942 M0.231719667,109.929774 C0.231719667,109.51869 0.514538715,109.195597 0.872590416,109.195597 C1.23203531,109.195597 1.51485436,109.51869 1.51485436,109.929774 C1.51485436,110.327109 1.23203531,110.665325 0.872590416,110.665325 C0.514538715,110.665325 0.231719667,110.327109 0.231719667,109.929774 M0.231719667,112.87198 C0.231719667,112.460896 0.514538715,112.136428 0.872590416,112.136428 C1.23203531,112.136428 1.51485436,112.460896 1.51485436,112.87198 C1.51485436,113.269315 1.23203531,113.607532 0.872590416,113.607532 C0.514538715,113.607532 0.231719667,113.269315 0.231719667,112.87198 M0.231719667,115.799063 C0.231719667,115.401728 0.514538715,115.064886 0.872590416,115.064886 C1.23203531,115.064886 1.51485436,115.401728 1.51485436,115.799063 C1.51485436,116.211522 1.23203531,116.534615 0.872590416,116.534615 C0.514538715,116.534615 0.231719667,116.211522 0.231719667,115.799063 M0.231719667,118.74127 C0.231719667,118.328811 0.514538715,118.005718 0.872590416,118.005718 C1.23203531,118.005718 1.51485436,118.328811 1.51485436,118.74127 C1.51485436,119.152354 1.23203531,119.476821 0.872590416,119.476821 C0.514538715,119.476821 0.231719667,119.152354 0.231719667,118.74127 M0.231719667,121.683476 C0.231719667,121.271017 0.514538715,120.947925 0.872590416,120.947925 C1.23203531,120.947925 1.51485436,121.271017 1.51485436,121.683476 C1.51485436,122.080812 1.23203531,122.419028 0.872590416,122.419028 C0.514538715,122.419028 0.231719667,122.080812 0.231719667,121.683476 M0.231719667,124.610559 C0.231719667,124.211849 0.514538715,123.873633 0.872590416,123.873633 C1.23203531,123.873633 1.51485436,124.211849 1.51485436,124.610559 C1.51485436,125.021643 1.23203531,125.344736 0.872590416,125.344736 C0.514538715,125.344736 0.231719667,125.021643 0.231719667,124.610559 M0.231719667,127.551391 C0.231719667,127.140307 0.514538715,126.815839 0.872590416,126.815839 C1.23203531,126.815839 1.51485436,127.140307 1.51485436,127.551391 C1.51485436,127.96385 1.23203531,128.286943 0.872590416,128.286943 C0.514538715,128.286943 0.231719667,127.96385 0.231719667,127.551391 M0.231719667,130.493598 C0.231719667,130.082514 0.514538715,129.758046 0.872590416,129.758046 C1.23203531,129.758046 1.51485436,130.082514 1.51485436,130.493598 C1.51485436,130.890933 1.23203531,131.229149 0.872590416,131.229149 C0.514538715,131.229149 0.231719667,130.890933 0.231719667,130.493598 M0.231719667,133.420681 C0.231719667,133.023345 0.514538715,132.700253 0.872590416,132.700253 C1.23203531,132.700253 1.51485436,133.023345 1.51485436,133.420681 C1.51485436,133.83314 1.23203531,134.171356 0.872590416,134.171356 C0.514538715,134.171356 0.231719667,133.83314 0.231719667,133.420681 M0.231719667,136.362887 C0.231719667,135.965552 0.514538715,135.627336 0.872590416,135.627336 C1.23203531,135.627336 1.51485436,135.965552 1.51485436,136.362887 C1.51485436,136.773971 1.23203531,137.098439 0.872590416,137.098439 C0.514538715,137.098439 0.231719667,136.773971 0.231719667,136.362887 M0.231719667,139.305094 C0.231719667,138.892635 0.514538715,138.568167 0.872590416,138.568167 C1.23203531,138.568167 1.51485436,138.892635 1.51485436,139.305094 C1.51485436,139.716178 1.23203531,140.039271 0.872590416,140.039271 C0.514538715,140.039271 0.231719667,139.716178 0.231719667,139.305094 M0.231719667,142.245925 C0.231719667,141.833467 0.514538715,141.510374 0.872590416,141.510374 C1.23203531,141.510374 1.51485436,141.833467 1.51485436,142.245925 C1.51485436,142.643261 1.23203531,142.981477 0.872590416,142.981477 C0.514538715,142.981477 0.231719667,142.643261 0.231719667,142.245925 M0.231719667,145.173009 C0.231719667,144.775673 0.514538715,144.437457 0.872590416,144.437457 C1.23203531,144.437457 1.51485436,144.775673 1.51485436,145.173009 C1.51485436,145.585467 1.23203531,145.90856 0.872590416,145.90856 C0.514538715,145.90856 0.231719667,145.585467 0.231719667,145.173009 M0.231719667,148.115215 C0.231719667,147.702756 0.514538715,147.379663 0.872590416,147.379663 C1.23203531,147.379663 1.51485436,147.702756 1.51485436,148.115215 C1.51485436,148.527674 1.23203531,148.849392 0.872590416,148.849392 C0.514538715,148.849392 0.231719667,148.527674 0.231719667,148.115215 M0.231719667,151.056047 C0.231719667,150.644963 0.514538715,150.320495 0.872590416,150.320495 C1.23203531,150.320495 1.51485436,150.644963 1.51485436,151.056047 C1.51485436,151.453382 1.23203531,151.791598 0.872590416,151.791598 C0.514538715,151.791598 0.231719667,151.453382 0.231719667,151.056047 M0.231719667,153.98313 C0.231719667,153.587169 0.514538715,153.248953 0.872590416,153.248953 C1.23203531,153.248953 1.51485436,153.587169 1.51485436,153.98313 C1.51485436,154.395589 1.23203531,154.718681 0.872590416,154.718681 C0.514538715,154.718681 0.231719667,154.395589 0.231719667,153.98313 M0.231719667,156.925336 C0.231719667,156.514252 0.514538715,156.189785 0.872590416,156.189785 C1.23203531,156.189785 1.51485436,156.514252 1.51485436,156.925336 C1.51485436,157.33642 1.23203531,157.660888 0.872590416,157.660888 C0.514538715,157.660888 0.231719667,157.33642 0.231719667,156.925336 M0.231719667,159.867543 C0.231719667,159.456459 0.514538715,159.131991 0.872590416,159.131991 C1.23203531,159.131991 1.51485436,159.456459 1.51485436,159.867543 C1.51485436,160.264878 1.23203531,160.603095 0.872590416,160.603095 C0.514538715,160.603095 0.231719667,160.264878 0.231719667,159.867543 M0.231719667,162.793251 C0.231719667,162.397291 0.514538715,162.074198 0.872590416,162.074198 C1.23203531,162.074198 1.51485436,162.397291 1.51485436,162.793251 C1.51485436,163.20571 1.23203531,163.530178 0.872590416,163.530178 C0.514538715,163.530178 0.231719667,163.20571 0.231719667,162.793251 M0.231719667,165.735458 C0.231719667,165.324374 0.514538715,164.999906 0.872590416,164.999906 C1.23203531,164.999906 1.51485436,165.324374 1.51485436,165.735458 C1.51485436,166.147917 1.23203531,166.471009 0.872590416,166.471009 C0.514538715,166.471009 0.231719667,166.147917 0.231719667,165.735458 M0.231719667,168.677664 C0.231719667,168.265205 0.514538715,167.942113 0.872590416,167.942113 C1.23203531,167.942113 1.51485436,168.265205 1.51485436,168.677664 C1.51485436,169.075 1.23203531,169.413216 0.872590416,169.413216 C0.514538715,169.413216 0.231719667,169.075 0.231719667,168.677664 M0.231719667,171.618496 C0.231719667,171.207412 0.514538715,170.884319 0.872590416,170.884319 C1.23203531,170.884319 1.51485436,171.207412 1.51485436,171.618496 C1.51485436,172.015831 1.23203531,172.355422 0.872590416,172.355422 C0.514538715,172.355422 0.231719667,172.015831 0.231719667,171.618496 M0.231719667,174.546954 C0.231719667,174.149619 0.514538715,173.811402 0.872590416,173.811402 C1.23203531,173.811402 1.51485436,174.149619 1.51485436,174.546954 C1.51485436,174.958038 1.23203531,175.282506 0.872590416,175.282506 C0.514538715,175.282506 0.231719667,174.958038 0.231719667,174.546954 M0.231719667,177.487786 C0.231719667,177.076702 0.514538715,176.753609 0.872590416,176.753609 C1.23203531,176.753609 1.51485436,177.076702 1.51485436,177.487786 C1.51485436,177.900244 1.23203531,178.224712 0.872590416,178.224712 C0.514538715,178.224712 0.231719667,177.900244 0.231719667,177.487786 M0.231719667,180.429992 C0.231719667,180.018908 0.514538715,179.694441 0.872590416,179.694441 C1.23203531,179.694441 1.51485436,180.018908 1.51485436,180.429992 C1.51485436,180.827328 1.23203531,181.165544 0.872590416,181.165544 C0.514538715,181.165544 0.231719667,180.827328 0.231719667,180.429992 M0.231719667,183.35845 C0.231719667,182.95974 0.514538715,182.621524 0.872590416,182.621524 C1.23203531,182.621524 1.51485436,182.95974 1.51485436,183.35845 C1.51485436,183.769534 1.23203531,184.092627 0.872590416,184.092627 C0.514538715,184.092627 0.231719667,183.769534 0.231719667,183.35845 M0.231719667,186.299282 C0.231719667,185.886823 0.514538715,185.56373 0.872590416,185.56373 C1.23203531,185.56373 1.51485436,185.886823 1.51485436,186.299282 C1.51485436,186.710366 1.23203531,187.034833 0.872590416,187.034833 C0.514538715,187.034833 0.231719667,186.710366 0.231719667,186.299282 M0.231719667,189.241488 C0.231719667,188.829029 0.514538715,188.505937 0.872590416,188.505937 C1.23203531,188.505937 1.51485436,188.829029 1.51485436,189.241488 C1.51485436,189.637449 1.23203531,189.97704 0.872590416,189.97704 C0.514538715,189.97704 0.231719667,189.637449 0.231719667,189.241488 M0.231719667,192.168571 C0.231719667,191.771236 0.514538715,191.448143 0.872590416,191.448143 C1.23203531,191.448143 1.51485436,191.771236 1.51485436,192.168571 C1.51485436,192.579655 1.23203531,192.919247 0.872590416,192.919247 C0.514538715,192.919247 0.231719667,192.579655 0.231719667,192.168571 M0.231719667,195.109403 C0.231719667,194.698319 0.514538715,194.373851 0.872590416,194.373851 C1.23203531,194.373851 1.51485436,194.698319 1.51485436,195.109403 C1.51485436,195.521862 1.23203531,195.844955 0.872590416,195.844955 C0.514538715,195.844955 0.231719667,195.521862 0.231719667,195.109403 M0.231719667,198.05161 C0.231719667,197.640526 0.514538715,197.316058 0.872590416,197.316058 C1.23203531,197.316058 1.51485436,197.640526 1.51485436,198.05161 C1.51485436,198.462694 1.23203531,198.787161 0.872590416,198.787161 C0.514538715,198.787161 0.231719667,198.462694 0.231719667,198.05161 M0.231719667,200.993816 C0.231719667,200.581357 0.514538715,200.258265 0.872590416,200.258265 C1.23203531,200.258265 1.51485436,200.581357 1.51485436,200.993816 C1.51485436,201.391152 1.23203531,201.727993 0.872590416,201.727993 C0.514538715,201.727993 0.231719667,201.391152 0.231719667,200.993816 M0.231719667,203.920899 C0.231719667,203.523564 0.514538715,203.185348 0.872590416,203.185348 C1.23203531,203.185348 1.51485436,203.523564 1.51485436,203.920899 C1.51485436,204.331983 1.23203531,204.656451 0.872590416,204.656451 C0.514538715,204.656451 0.231719667,204.331983 0.231719667,203.920899 M0.231719667,206.863106 C0.231719667,206.450647 0.514538715,206.127554 0.872590416,206.127554 C1.23203531,206.127554 1.51485436,206.450647 1.51485436,206.863106 C1.51485436,207.27419 1.23203531,207.597283 0.872590416,207.597283 C0.514538715,207.597283 0.231719667,207.27419 0.231719667,206.863106" id="Fill-46" fill="#231F1E" mask="url(#mask-4)"></path>
                    </g>
                </g>
            </g>
        </g>
    </g>
</svg>