<?xml version="1.0" encoding="UTF-8"?>
<svg width="323px" height="115px" viewBox="0 0 323 115" version="1.1" xmlns="http://www.w3.org/2000/svg" xmlns:xlink="http://www.w3.org/1999/xlink">
    <!-- Generator: Sketch 45.2 (43514) - http://www.bohemiancoding.com/sketch -->
    <title>branch + bird</title>
    <desc>Created with Sketch.</desc>
    <defs>
        <polygon id="path-1" points="0 0.000496555638 0 114.143034 316.034084 114.143034 316.034084 0.000496555638 4.52479783e-20 0.000496555638"></polygon>
        <polygon id="path-3" points="0 0.0445571764 0 28.0226501 36.0638325 28.0226501 36.0638325 0.0445571764"></polygon>
    </defs>
    <g id="Page-1" stroke="none" stroke-width="1" fill="none" fill-rule="evenodd">
        <g id="Home" transform="translate(-115.000000, -113.000000)">
            <g id="branch-+-bird" transform="translate(115.000000, 113.000000)">
                <g id="branch" transform="translate(7.000000, 0.000000)">
                    <mask id="mask-2" fill="white">
                        <use xlink:href="#path-1"></use>
                    </mask>
                    <g id="Clip-2"></g>
                    <path d="M210.561851,55.6696756 C204.296759,54.1705941 198.031666,54.4376911 194.185471,54.831659 C199.425578,53.4344083 204.849315,52.3994077 209.181293,53.5612793 C214.676813,55.0336511 220.836735,58.5626691 223.514382,60.0600812 C221.663066,60.0317022 215.316176,56.8065069 210.561851,55.6696756 M190.235775,57.4024669 C187.544774,54.2907878 184.568312,55.1655302 181.521738,55.971829 C177.590405,57.013507 173.732524,58.674516 169.747772,59.096863 C164.270616,59.6761294 158.831855,58.8731693 153.590078,56.5794745 C151.394875,55.6195949 148.723906,55.8516354 145.622243,55.4593368 C147.223155,56.5878213 148.231446,57.2972975 149.239736,58.008443 C149.199672,58.0902415 149.733866,58.3306287 149.695471,58.4140965 C151.424923,59.2153872 152.578448,59.8580892 154.307901,60.65938 C154.189376,60.9615333 154.728578,62.0399372 154.610054,62.3420906 C151.092721,62.0883485 148.092889,60.9264769 146.35342,61.0416624 C144.613952,61.1585173 142.877822,62.0966953 143.11654,62.100034 C144.061395,62.1100501 145.410234,62.0032113 146.373453,62.100034 C146.987776,62.0232436 149.273124,63.1450507 149.630366,63.2518894 C148.690518,63.4672363 145.381855,65.1148905 144.492089,64.9780033 C142.80437,64.7192531 139.328771,63.9229704 138.161892,63.5874299 C138.669376,62.7310504 140.547401,61.7160821 141.475563,60.8229768 C140.882942,61.0967512 140.308683,61.4272836 139.69436,61.6326144 C138.418972,62.0616388 137.347246,63.8294865 136.687851,63.3236717 C135.405785,62.3404212 133.622913,60.2336942 132.903421,59.7128552 C127.574838,59.0785001 124.872151,58.6928789 122.291327,58.6928789 C122.23123,58.4241126 124.965634,57.1136683 125.75357,56.8265391 C127.51641,56.2973534 129.280919,55.3575061 131.045428,55.3558367 C132.875042,55.3558367 133.304066,55.7831918 135.13368,56.2940147 C136.280528,56.1504501 136.836423,56.0987 136.986665,55.7614902 C135.873205,55.0253043 129.404451,53.6514245 127.887007,52.6481417 C130.093895,53.0070532 133.375849,52.7366176 135.941649,50.7016729 C137.939867,49.1157849 139.550796,46.6518158 140.983103,44.5484276 C143.205015,41.2848371 143.24508,33.8228169 143.812661,32.9380583 C143.715838,33.208494 145.870977,34.0849057 145.93942,35.3636322 C146.011202,36.7041249 144.285089,39.3700861 142.203402,43.4483222 C140.664256,46.4665174 142.734257,45.2061538 138.620965,52.9252548 C141.342014,53.2975211 143.645725,53.2574566 146.049598,53.5312309 C149.62035,53.9402231 153.291263,54.4727475 156.631644,55.5995627 C164.936689,58.402411 172.769306,57.6395154 180.825617,54.4827637 C183.928949,53.264134 187.65829,51.8652139 190.704864,55.4676836 C191.050421,55.8332725 192.818268,55.5544901 193.232269,55.5544901 C193.370825,55.7848612 192.225647,57.6044589 190.235775,57.4024669 M169.893006,62.053292 C168.916433,62.053292 166.292205,61.3671868 166.237117,61.1000899 C169.938078,60.9264769 175.600533,59.9732747 179.658737,58.4424755 C181.835577,57.4158217 187.265991,56.8232004 187.391193,57.1704264 C183.980699,57.9550236 174.467041,61.7344451 169.893006,62.053292 M166.555964,72.8356608 C169.876312,75.5049607 173.849379,76.1576788 177.622123,77.5816392 C182.843868,79.551479 189.880202,79.9805034 191.6998,87.7012738 C191.946865,88.7496292 194.282293,89.6911458 194.537705,91.1735337 C193.299043,91.8446148 190.821719,88.664492 189.811759,87.4792495 C185.132554,81.9770529 184.830401,81.4862623 180.122818,80.9220201 C176.009525,80.4295601 170.968071,78.8703819 167.198666,76.7803484 C162.405945,74.1227341 158.608161,71.4066923 153.89557,68.5754649 C151.788843,67.3100933 148.84076,66.2567298 146.557082,65.3135438 C149.692132,63.5991154 153.630142,63.09497 156.411289,65.0781646 C159.870194,67.5471418 163.235615,70.1646916 166.555964,72.8356608 M134.380801,66.3201653 C126.796918,66.6774074 119.229728,67.3618433 111.649184,67.7825209 C109.205247,67.9194081 106.809721,67.5003998 105.469229,64.4004062 C112.210087,63.9480108 115.084718,63.2585669 121.648625,62.8195263 C122.840545,62.9146796 128.718346,63.3570588 128.758411,63.7777365 C126.581571,64.0882367 124.441457,65.2033663 119.034413,65.6974956 C115.3635,66.0330361 111.478909,65.7158585 111.465555,66.0814474 C115.742444,67.4903837 120.740495,66.7158026 125.037417,66.0163426 C131.40434,64.9830114 137.806319,63.7343332 144.440339,66.7441817 C140.839538,66.5739074 137.597649,66.1682539 134.380801,66.3201653 M93.1627381,59.125242 C101.349259,59.125242 112.343636,59.1452743 120.530156,59.1452743 C112.373684,60.0250248 103.117106,64.1149464 93.1627381,59.125242 M200.936345,88.3523225 C202.180015,88.0484998 203.837686,88.3523225 203.837686,88.3523225 C203.837686,88.3523225 202.762621,88.6795162 202.263483,88.8280889 C201.103281,89.1753149 203.091484,88.8280889 205.451953,90.9949127 C206.864228,92.2903327 208.850761,95.4571006 209.181293,96.3251656 C209.571923,97.3484807 206.363421,92.5540909 204.168218,91.4272758 C203.103169,90.8813965 200.719329,89.5993313 198.659344,89.8680975 C197.99661,89.954904 199.694345,88.6544759 200.936345,88.3523225 M153.71361,18.8353409 C155.887111,19.1091153 158.704984,19.4095993 160.83842,19.680035 C159.863516,24.2457229 154.963957,22.3059316 152.222875,21.9336652 C152.396488,20.9854712 153.561699,19.6499866 153.71361,18.8353409 M197.043408,18.4230101 C196.949924,18.0307115 198.637643,15.5984601 200.358748,14.7838145 C201.176733,14.3948546 202.922879,14.7003468 203.630686,14.1344352 C204.842638,13.1628701 205.712372,11.6437564 207.151357,11.6637886 C208.523567,11.6821516 210.341496,12.5735875 210.465028,12.660394 C211.44327,13.3431605 212.476602,15.4916214 213.788715,16.6034123 C214.857103,17.324574 216.401257,17.8287194 216.117467,18.2610826 C215.554894,19.1157927 213.039175,21.6064715 212.241223,22.8134157 C211.745424,23.457787 211.139448,24.7765781 210.665351,24.4894489 C209.480108,23.7666178 209.498471,22.2091089 207.121308,21.3009794 C206.124703,20.9186969 201.355354,21.5029714 201.161708,21.2325358 C199.928055,19.51143 197.9699,18.8987765 197.043408,18.4230101 M230.041563,28.1904106 C231.660838,28.7112496 233.841017,32.5541065 235.613872,34.5890512 C235.476985,34.9947046 235.340098,35.4003581 235.203211,35.8076809 C233.487113,37.5955609 229.799506,36.1298665 225.369036,34.452164 C224.94502,34.3386478 227.774578,29.5826533 230.041563,28.1904106 M244.705184,38.2900129 C243.940619,39.0879649 240.680367,42.2814425 240.049351,41.8824665 C238.598681,39.6689007 238.715535,37.3301333 238.251455,35.3152209 C241.167819,33.9980992 243.216119,35.9846326 244.705184,38.2900129 M237.889204,58.0668705 C238.965939,58.0234672 241.513376,58.4458142 241.575142,58.9766694 C239.141221,59.1820001 238.423398,59.9482344 235.984469,60.016678 C234.408598,60.0600812 231.961322,59.3405889 231.922927,58.8898629 C234.335146,58.6027337 236.81247,58.1102737 237.889204,58.0668705 M309.968647,98.8809492 C305.858693,99.68224 301.600167,101.697152 297.124624,101.089507 C294.907719,100.789023 293.09146,96.1632381 294.51709,91.8613083 C300.461666,92.8478976 301.955739,89.9365411 305.411306,87.6595399 C305.411306,87.6595399 307.482976,86.228902 309.554647,86.055289 C304.010716,85.0904014 300.510077,93.751019 294.682356,90.9515094 C293.27342,90.3989527 292.408694,89.2337424 291.351992,88.4424677 C289.592491,87.1236767 287.225344,84.4093042 285.651142,83.1956826 C282.844955,81.0188427 280.018735,80.2659633 277.821863,82.5463032 C275.279434,85.1838853 273.514925,85.1888934 270.650311,82.2408111 C269.319834,80.8686007 268.046116,79.945447 266.348381,78.4914381 C262.330242,74.7904764 256.903166,71.757257 253.404197,70.5052402 C250.549598,69.4835945 248.649871,70.3883853 246.947129,72.8607011 C246.187572,73.9641453 243.895546,78.1275185 243.21111,75.778735 C241.510037,66.989577 234.603912,64.7810193 229.253627,60.6710654 C230.350394,60.5859283 231.316951,60.9531866 232.305209,61.0416624 C234.346831,61.2269609 236.65555,61.9381065 238.396688,61.2219528 C242.105997,59.6911536 245.177612,60.2403717 248.26425,62.5524294 C249.110614,63.1867846 255.190407,69.0428845 261.872838,68.8125134 C262.553936,70.2030868 262.266806,72.1228459 264.672348,74.1511131 C264.71909,74.1911777 267.385051,76.5149209 271.236255,76.6401226 C278.414485,76.8704937 279.906889,75.9172915 282.586205,74.7620973 C280.688147,75.1744282 278.359396,76.1292997 275.155902,76.2344691 C262.094863,76.6685016 262.679137,68.5637794 262.537242,68.0613034 C256.130255,68.580473 248.411154,62.7894779 248.589775,59.772952 C252.374204,60.4740815 255.829771,61.133477 259.292014,61.7494693 C261.233475,62.0933565 263.934493,62.672623 265.490332,61.9948646 C266.48193,61.5641708 267.191406,61.0015979 267.919245,61.1184528 C269.702117,61.4072513 271.025916,63.4638976 272.711965,64.6958822 C275.085789,66.4286734 276.22262,67.7257629 278.940332,68.754086 C280.070485,69.1814411 281.883406,68.1130534 283.496003,68.233247 C284.332351,68.2966825 293.046388,75.3830977 295.532058,75.3830977 C298.735552,75.3830977 299.273085,72.1195072 299.508464,72.1478862 C299.413311,72.0360394 297.630439,75.3830977 295.03626,74.7470731 C292.024742,74.0108873 284.80144,68.1948518 284.444198,67.7858597 C292.049782,61.1451625 295.795817,59.7278794 301.805497,66.318496 C301.429892,65.6924875 299.261399,63.5123089 299.010996,63.2368652 C298.855746,63.0632522 301.623538,64.28689 302.26624,64.2718658 C300.264682,63.4004621 298.318213,62.302026 296.239865,61.757816 C292.261791,60.7178074 289.322055,63.2635749 286.313876,65.4220519 C283.701334,67.2950691 281.582922,68.4319003 279.596388,68.2632954 C277.227573,68.0629727 275.027362,66.1382055 272.142715,63.2368652 C271.401521,62.4940019 268.505189,60.6460251 268.363294,60.2904523 C268.349939,58.8514677 270.236311,59.3639599 272.159409,60.490775 C271.291344,59.7512504 269.909117,59.223734 269.790593,59.0384355 C269.593609,58.7296047 270.733779,58.3990723 270.892368,58.1019269 C267.981011,59.1135565 266.622156,61.4690175 263.143218,61.0132834 C257.933159,60.3305169 252.679696,59.101871 247.449605,58.3840481 C242.863884,57.7563703 238.563624,55.0486753 233.605637,57.0235231 C225.542649,60.2353636 218.791775,55.8466273 211.525069,52.5012384 C212.772078,51.354391 213.753659,50.5965035 214.569974,49.6783578 C218.2075,45.5817588 220.367646,43.9624837 224.096987,39.9593686 C224.743028,39.266586 225.340657,35.9128503 226.385674,35.967939 C229.016578,36.1064956 232.285177,39.1614166 236.587107,36.2584069 C237.114623,37.5087544 238.349947,42.4700797 239.847359,42.8623783 C240.95748,43.1511768 242.74536,40.4568366 245.216007,39.5954491 C247.112395,40.70724 248.4195,44.3614597 252.616261,44.0643144 C252.54114,44.0309273 252.474366,44.0225805 252.422615,44.0142338 C249.053856,43.4950641 247.314387,40.3466592 246.486386,39.740683 C245.656717,39.1330375 247.369476,39.5086426 249.661501,40.4034173 C251.180615,40.9977079 252.445986,42.1328698 253.030261,42.917467 C258.612587,48.9588655 259.761103,50.6265519 266.705623,51.2525603 C267.339978,51.3109877 272.426505,50.9570843 275.708459,48.6216556 C275.820306,48.5431959 276.054016,49.9588096 277.863597,50.7450761 C280.401018,51.8451816 282.504406,49.271035 284.450875,47.1910177 C287.504127,43.1294752 289.752749,37.9110691 290.912951,36.2300279 C292.02975,34.6124222 295.375139,33.7276636 297.854132,34.2985833 C294.764155,33.5874377 292.65242,33.5874377 290.996419,35.1900192 C289.597499,36.5421974 289.402184,39.4084812 282.958471,47.8420665 C281.300801,49.3545028 280.142268,51.0906328 278.147388,49.8285998 C276.947121,49.0673736 276.306088,48.1926312 276.48304,48.0156795 C277.239258,47.2594613 279.092243,46.3062592 279.810066,45.4148232 C280.928534,44.029258 281.467736,41.1262483 281.270752,40.683869 C280.813349,40.70724 281.506131,43.1628623 279.063864,45.545033 C278.442864,46.1510091 275.434685,47.7903165 274.135926,48.6216556 C270.688706,50.8285439 267.588712,50.3995195 266.907615,50.336084 C265.426897,50.1991968 264.188235,50.3327453 262.952912,49.9738338 C259.196861,48.8820751 255.57102,44.8522503 253.831552,42.6286685 C256.772957,43.6286126 261.99804,47.4514372 265.622211,46.0508478 C262.675799,45.8371702 261.083233,45.8021138 258.096756,43.8055643 C255.599399,42.1362085 251.564567,40.0912477 249.870171,39.0679327 C248.037218,37.9594804 248.404476,39.1931343 246.578201,38.0713273 C245.190966,37.2199558 242.762054,33.0649294 240.23131,33.3988005 C236.909292,33.8345024 236.101324,33.7176475 234.054694,30.2420488 C233.143226,28.694556 230.41216,25.0820702 229.916361,25.6529898 C226.664456,30.7428555 224.7881,32.3237354 222.594567,35.7008421 C219.070557,41.1229096 215.371265,46.3279608 208.969285,48.1358731 C205.154807,49.2126076 201.215128,49.8452934 197.307166,50.5030196 C194.868237,50.9120117 192.008631,50.3911727 188.659903,50.7050116 C190.693178,47.2060419 192.883373,45.6368475 193.399204,43.1194591 C193.66964,41.7873132 192.70976,40.3550059 192.444333,38.872618 C192.235663,37.7023997 191.833348,35.9812939 192.223978,34.85114 C194.7831,34.5022447 198.597578,34.3336397 200.856216,33.8912605 C201.517281,33.7593814 201.559015,31.5074205 201.640814,29.515879 C201.750991,26.8899825 201.762676,25.147175 201.615773,22.3843913 C203.478774,22.5112623 205.103057,21.5864392 207.121308,22.317617 C208.333261,22.7549883 210.501754,25.7297802 211.025932,25.6496511 C211.274666,25.7297802 212.226198,23.8701179 212.742029,23.1088917 C213.020812,22.9519722 216.631628,17.1943642 220.472816,19.4279622 C222.910075,21.79177 225.347335,24.1572471 227.737852,26.4776516 C228.791215,24.8166426 229.5057,23.5896661 230.342047,23.1222465 C231.782701,24.4510537 229.994821,25.517772 237.350002,28.0568621 C239.396633,28.764669 243.436473,28.689548 245.745192,29.2187337 C249.130646,29.9949841 251.865051,31.3070978 254.834835,30.7428555 C260.690935,29.6293952 263.629001,22.1122863 265.243268,20.6549387 C262.662444,22.2825606 260.453886,27.9400072 256.153626,29.5826533 C252.48939,30.979904 246.701733,28.3773784 244.623385,28.1470073 C237.279889,27.3323617 232.700847,26.3875064 231.104943,22.9052303 C232.076508,20.8736243 234.92109,21.9620443 238.830721,23.2724885 C233.916138,20.3711482 231.175055,20.0756723 227.636021,25.0820702 C225.405762,23.1756659 222.683043,20.6315677 220.419396,18.6967844 C221.664736,18.0974857 223.279003,17.498187 224.303987,16.6635091 C227.168602,14.3347578 232.909516,9.98775546 234.089751,9.40681966 C234.625614,9.14306145 240.15452,9.00951299 243.802062,11.0761754 C243.843796,11.0995464 245.468079,11.2214094 246.578201,10.9309415 C242.621828,9.99944095 238.112898,8.31839971 234.435307,8.68231927 C237.376712,5.7909951 241.750424,4.40209112 245.599959,4.86283331 C249.442815,5.32190614 249.35267,4.83445426 257.020021,7.18824587 C250.758268,4.27188137 244.334587,2.71604181 237.628785,5.2401077 C236.251566,5.75927734 235.096372,6.99960867 233.919476,8.01290761 C230.076619,11.3215707 225.601077,15.9056216 220.628066,17.5349128 C219.531299,17.8954937 218.526347,17.5048644 217.366145,17.6083645 C216.331144,17.6985097 213.992377,16.0925894 213.980691,16.0842427 C213.115965,15.3881213 212.072618,13.5902252 211.274666,12.5602327 C214.174337,12.5602327 214.691837,12.1412244 215.062434,11.8808049 C212.992433,12.5735875 211.805521,12.1495712 210.64031,12.0393937 C208.146293,11.8056839 206.904292,11.0160786 206.904292,10.9276028 C206.904292,8.80752095 206.0813,5.33859969 205.234936,3.25691307 C205.889324,5.85943869 206.05459,6.89777797 206.193147,7.8810285 C206.293308,8.60219019 206.515332,9.99276353 206.323356,10.797393 C206.281623,10.971006 203.969565,13.8823624 202.470483,13.8306124 C198.614272,13.6970639 197.817989,16.1860734 195.97502,18.7234941 C197.727844,19.708414 199.827893,19.9554787 200.522345,21.8451894 C200.729345,22.4094316 200.812813,29.1252498 200.605813,33.0665987 C197.594295,33.6325103 194.11035,33.5023006 191.210679,34.0448412 C191.12888,34.2635268 191.708147,38.7006744 191.162267,41.7756277 C190.581332,45.0342101 188.836855,46.9756709 187.434596,48.5348491 C185.693458,50.4696324 183.029166,51.5830927 180.181245,52.8384483 C172.979645,56.0118935 165.899907,56.891644 158.300999,54.4911105 C154.590022,53.3175534 150.561866,53.2157227 146.667259,52.7032304 C144.760855,52.4528271 142.832749,52.3710286 140.527369,52.1823914 C142.256821,47.7185342 143.752564,43.8623224 145.288371,39.8942638 C149.870753,43.3464915 150.066068,42.5785878 153.423142,39.4368603 C155.416353,39.4368603 157.037297,40.3984092 158.798468,40.1546833 C160.866799,39.8692234 162.110469,40.3099333 162.769865,42.6086362 C163.794849,46.1843962 169.173514,47.980623 172.427088,45.9824042 C170.849547,45.8488557 168.418965,46.5700174 165.878205,45.0692666 C166.597698,44.1294193 168.869691,43.9658224 169.966457,42.5385233 C167.657738,43.2212898 166.394036,44.010895 165.160382,44.3748146 C162.564534,41.6020147 163.574494,40.4368044 162.821615,38.7106905 C163.733083,37.8242626 164.684616,37.0263106 165.487576,36.089802 C166.941585,34.3937366 168.163553,33.3270182 169.792844,36.0530762 C170.138401,36.6323426 172.700862,35.2784951 172.672483,35.0748337 C171.791063,35.522221 170.655901,35.8544228 170.268611,35.6524308 C169.44061,35.2200677 168.936465,34.0231396 168.888054,33.9196395 C169.362151,33.0181874 170.655901,32.2853402 171.347015,31.6376302 C172.118257,30.9164685 174.492081,29.0050562 175.461977,28.5176043 C175.052984,28.075225 166.79969,33.9012766 163.826567,36.5455361 C160.711549,39.3166667 156.443007,39.4802635 153.725295,36.6941088 C151.448294,37.3752059 149.738874,39.9860783 146.104686,37.9628192 C146.30167,37.5287867 146.902638,35.5372452 147.099622,35.1032127 C146.305009,33.3837763 144.647339,32.5691307 143.896129,30.829662 C143.53054,29.9816293 144.477065,28.2588542 145.166508,28.4024188 C147.481905,28.8865319 150.333164,28.7246044 150.775544,26.2840063 C150.934133,25.4042558 151.40656,24.5846022 151.828907,23.5028596 C155.795297,24.0737793 160.033791,25.5511591 162.91176,19.9671641 C163.684672,24.5245053 166.20373,22.8050689 168.116811,22.6665124 C169.44228,24.0370535 168.452352,27.6662329 171.367047,26.8515873 C171.028168,26.2222401 170.200167,27.5209989 169.662635,24.8784088 C169.489022,24.0353841 169.500707,22.908569 169.115086,22.0939234 C170.128385,21.5697457 170.714329,21.2692616 171.300273,20.9654389 C169.993167,21.0656002 168.869691,21.3377052 167.674432,21.8451894 C165.394092,22.8134157 164.143745,21.7567135 163.846599,19.3444945 C163.566148,17.0808481 166.30723,12.660394 167.176964,12.2697648 C167.626021,12.0694421 168.527473,12.1428937 168.916433,12.0978211 C169.273675,12.0560872 170.291982,12.2747728 170.988103,11.8374016 C171.744321,11.3616352 172.178354,10.1630378 172.495531,8.3718191 C171.996394,9.10466627 171.483902,10.5269574 170.862902,11.2297561 C170.595805,11.5352482 170.283635,11.491845 169.951433,11.4033691 C169.560804,10.1663765 169.719393,9.36675512 169.26032,8.50703691 C168.751166,7.55216542 167.590964,5.85943869 167.632698,5.81436608 C168.280408,5.13660765 169.672651,4.33698624 170.988103,3.60580842 C172.313572,2.86962254 174.500428,1.0299925 175.668977,0.0100161345 C175.543775,-0.125201681 173.722508,1.22697648 173.597306,1.09342802 C171.193434,2.70435632 169.236949,4.00979252 166.866464,5.59901919 C167.607658,7.16487489 169.342118,10.3449976 169.372167,11.491845 C169.036626,11.3749901 166.933238,11.5185547 166.596028,11.4033691 C164.238898,14.3330885 163.771478,15.7353473 161.294154,18.81197 C160.133952,18.7702361 156.281079,18.9438491 154.790344,17.9021711 C154.955611,16.4297993 156.044031,14.4900079 156.089103,13.2112814 C156.147531,11.5452644 156.364547,9.71398112 157.897015,8.76077899 C158.294322,8.51371433 158.826847,8.31005293 159.367718,7.31344755 C156.032345,8.33509327 155.352917,10.7806994 155.369611,13.6135962 C155.376288,14.6202177 153.753674,16.3396541 153.174408,17.2527917 C151.388197,20.0740029 148.536938,20.0506319 147.503606,23.8166985 C146.575445,27.2004826 144.477065,26.6596114 142.445459,24.4026424 C143.453749,22.9436255 146.313356,20.8919872 146.291654,20.7617775 C146.174799,20.0689948 144.196613,17.4147192 143.398661,15.7804199 C144.739153,15.466581 145.926065,15.3463874 147.458534,15.217847 C147.246526,14.194532 147.552018,12.0911437 147.500268,11.8374016 C147.171405,12.313168 147.294937,13.7822011 146.837534,14.7404113 C146.7958,14.8272178 143.356927,14.865613 142.403725,15.4331939 C143.415354,16.977348 144.528815,19.0206394 145.623912,20.6899952 C144.236677,21.4361972 143.281806,22.0087862 142.281862,22.4745365 C139.726078,23.6631178 138.472392,24.673078 140.34374,28.1353218 C141.769369,30.7745733 142.236789,34.7459706 141.50895,37.6873755 C140.710998,40.9175788 137.869754,44.4816534 136.080205,47.4664614 C133.24397,52.1957463 132.950163,51.5079717 127.706717,50.6198745 C126.089111,50.3461001 124.403062,50.5581083 122.750399,50.4696324 C120.358213,50.3394227 117.957679,50.237592 115.580516,49.9487934 C108.383924,49.0773897 101.347589,47.2461065 93.9022627,48.7935993 C88.4618323,49.9254225 82.7192485,49.369527 77.1486083,49.9404467 C71.6931537,50.5013502 66.2961266,51.6448589 60.8490188,52.3343028 C53.8644343,53.2190614 46.8698337,54.2507232 39.8518621,54.5879331 C31.283059,54.9985946 22.6791995,54.5795863 14.1020496,54.8834091 C12.489452,54.9401671 10.8835318,55.2606835 9.28095024,55.647974 C8.81686934,56.9650957 8.32941746,58.3723626 7.8185946,59.8630973 C8.11240121,59.7145246 8.40954654,59.5843148 8.70168379,59.4257261 C10.4979106,58.454161 12.4610729,57.8231445 14.8933243,56.8065069 C14.497687,58.1870641 14.3057111,58.8564757 14.1137351,59.5258874 C23.657442,57.1303619 33.436528,57.8615397 43.1037671,57.111999 C49.2870608,56.6328939 55.5004029,56.1704823 61.6085756,55.1204576 C78.0049878,52.3009157 94.570005,53.5562712 111.039869,52.5947223 C115.370178,52.3409802 122.341407,53.3943437 126.705103,54.2974652 C107.819682,58.6561531 86.0963552,56.1337565 67.0423286,55.896708 L66.9855705,57.3540556 C68.0422727,57.5009589 69.0973055,57.6895961 70.1590158,57.7880881 C74.3240584,58.1703705 78.535843,58.2555077 82.6391194,59.0017097 C84.5905963,59.3556131 86.2733069,61.1117754 88.1997434,61.9130661 C89.506849,62.4572761 91.0192853,62.5323971 92.4532619,62.6592681 C94.2244483,62.8161876 94.1259563,61.283719 101.78663,64.1149464 C101.774944,64.535624 97.7668212,63.7109623 97.7534664,64.1299706 C93.0341977,64.1299706 88.2782031,63.7360026 83.6006683,64.2050916 C70.4561611,65.5288907 57.3283475,67.0747141 44.2305823,68.8225296 C40.0254751,69.3851025 35.9756181,71.3699665 31.7721803,71.7722812 C26.6539355,72.2630718 21.2836181,72.5451929 16.3473331,71.3933374 C13.709751,70.7773452 11.1322658,69.1797717 8.195869,69.1831104 C6.63836008,69.9944173 5.19436736,70.9476195 3.82048757,71.9876281 C2.93906774,74.7637667 2.0426237,77.665107 1.14951837,80.6649393 C1.68371221,80.6332215 2.189527,80.5714554 2.58850303,80.4512617 C4.15936679,79.7668259 7.98052211,76.9355985 8.87195808,78.4296719 C9.04056301,78.7151318 8.93372424,80.6181973 3.00918068,81.658206 C2.21122863,81.813456 1.4616879,81.9269722 0.758889125,81.9853997 C0.50514705,82.8451179 0.253074332,83.7115135 -0.000667742301,84.5845866 C4.67519772,82.9169002 9.43953903,81.4495365 14.3207353,80.2041971 C35.0240853,74.9223555 55.7708386,70.2314658 76.8931969,67.2817142 C84.6006124,66.2066491 92.4682861,64.8344387 99.8919111,67.2917304 C108.661037,70.1980787 117.274913,69.7757317 126.049046,68.6305537 C137.721182,67.1097706 148.989333,68.3567793 159.417798,74.3080326 C166.676157,78.4513736 173.996282,82.2257869 182.678602,83.6981587 C182.44823,85.9684825 180.339834,87.5326688 178.747269,89.0885084 C177.328316,90.475743 174.692404,91.3354612 174.009637,93.0231799 C173.360258,94.6357776 173.223371,97.3701823 173.051427,97.500392 C172.181693,98.1497714 170.527361,99.1430381 169.297046,99.6555303 C167.999956,100.194732 167.641045,101.481806 167.726182,101.837378 C167.901464,102.550193 168.609271,103.685355 171.382071,104.71034 C171.382071,106.097574 169.617562,110.536391 168.953159,109.972149 C167.505827,108.740164 163.003575,104.281315 159.973694,105.403122 C158.795129,105.840493 156.439668,109.097406 153.471553,109.175866 C149.5686,109.279366 146.979429,105.388098 146.061283,104.635219 C145.892678,104.895638 148.782333,108.115825 149.912487,108.868705 C151.04431,109.621584 152.680279,109.292721 154.182699,110.100689 C153.459868,110.646569 152.343069,111.691585 150.281414,112.537949 C151.237955,112.898529 155.606659,109.972149 157.593193,107.943882 C162.025332,103.423266 166.380681,108.484753 166.906528,109.060681 C167.432375,109.638278 168.904747,110.459601 169.100062,110.896972 C169.297046,111.332674 168.757844,112.898529 167.18698,114.130514 C167.457416,114.205635 168.12015,113.975264 168.856336,112.898529 C170.355417,109.571503 171.198442,107.356268 172.634088,104.172807 C170.715998,103.471678 168.388916,102.19629 168.707763,101.480136 C169.00157,100.271523 173.500484,97.148158 177.809091,98.5337233 C177.256534,106.852123 177.562026,107.673446 179.26143,108.653358 C178.056155,106.708558 177.86418,105.494937 178.002736,102.576903 C178.106236,100.398394 178.333269,99.1697478 178.582003,97.8125616 C177.608768,97.5955453 176.67226,97.4753517 174.93613,97.0897305 C175.129775,94.8644793 176.772421,92.0833326 177.754002,92.0916794 C181.969125,92.1334133 183.514949,89.4240489 184.329594,86.1387568 C184.524909,85.3474822 183.992385,84.7965948 184.583336,83.4010134 C186.326144,83.4961666 188.571427,88.2538305 190.098888,90.3037994 C191.597969,92.3153731 193.167164,93.5757367 195.970012,91.7578083 C199.120086,89.7145168 203.184968,91.2269531 205.523735,94.4204307 C206.508655,95.7625927 207.60876,97.0880612 208.890826,98.0946827 C210.27806,99.1831026 212.261255,100.031135 213.820433,100.915894 C212.154416,103.655307 210.548496,105.336348 209.802294,106.723583 C209.274777,107.705164 211.498359,108.481414 213.1794,109.120777 C211.376496,107.892132 210.216294,107.199349 210.506762,106.723583 C211.424908,105.46155 212.835513,103.423266 213.917256,102.296451 C214.484837,101.705499 214.731901,100.830757 216.306104,101.39333 C217.229258,101.810669 217.703355,102.468395 217.631572,103.51675 C217.424572,106.506566 219.578041,110.406181 221.960212,112.511239 C219.401089,107.850398 218.57142,109.456318 218.227532,102.101136 C218.197484,101.476797 216.603249,100.602055 215.635023,100.416757 C212.334706,99.7874094 207.555341,93.7777287 207.804075,90.2770897 C208.743922,90.0550654 209.702132,89.828033 210.700407,89.5926538 C211.5234,91.6309372 213.862167,93.6809061 217.382838,93.2485429 C221.70647,92.7160185 224.177116,91.5591549 228.480715,97.4970533 C229.278667,98.5971588 229.983135,99.8107804 230.932999,100.748958 C233.502137,103.28471 237.698898,107.030744 240.333141,109.494713 C240.498407,109.297729 236.920978,105.259558 235.734066,103.690363 C239.421673,102.520145 241.284674,102.952508 242.493287,104.124396 C243.753651,105.344695 244.681813,107.112542 244.972281,108.975543 C245.279442,108.690084 245.05074,107.586639 245.635015,107.286155 C246.24433,106.970647 247.087355,106.426437 247.376153,106.15934 C246.504749,106.202744 245.100821,107.436397 244.930547,106.938929 C243.539974,102.892411 241.092698,101.857411 237.805737,102.476742 C234.11813,103.169524 232.438758,101.269797 230.971394,99.2265059 C229.120079,96.6523593 228.77953,95.2951731 226.247117,93.5089624 C224.435866,92.2268972 222.905067,91.019953 220.821711,91.3855419 C218.651549,91.4222677 217.92204,92.5540909 215.022369,92.0349213 C213.005787,91.6726711 211.905682,89.8831217 210.920762,88.3957258 C210.920762,86.9166766 210.884036,85.9267486 210.884036,84.7732238 C210.79723,84.0620782 204.209952,82.8067227 205.037952,81.8101173 C205.466977,80.0138905 205.912695,79.2142691 206.44355,76.9890179 C205.231598,78.6583737 204.665686,81.4628913 204.08642,81.1607379 C202.103225,79.5448016 198.79957,77.2744778 196.919875,75.7436785 C196.692843,76.0892352 205.784154,84.6263205 209.885762,85.4927161 C209.845697,85.9033776 210.010963,87.2622332 209.844028,89.0451052 C209.34656,89.2621214 208.498527,89.4874844 208.186357,89.3055247 C204.508767,87.1453783 201.517281,86.0586277 197.619336,87.9232981 C195.459189,88.9566293 193.115414,88.8714922 192.429308,84.839998 C192.06372,82.6965452 189.421129,80.6232054 187.387854,79.9204066 C182.895618,78.3679058 179.1596,74.5601053 173.884435,75.1109927 C172.497201,75.257896 170.837861,73.8940324 169.49403,72.9308141 C165.948318,70.3900546 162.49609,67.7040612 159.035516,65.0347614 C158.50633,64.6257692 158.139072,63.986406 157.000571,62.6158649 C161.008695,62.8011634 164.05193,63.1316958 167.08348,63.0332038 C170.547393,62.9180183 174.086427,62.8128489 177.440163,62.00655 C183.843812,60.4690734 190.128936,58.3890561 196.482504,56.6178697 C203.585613,54.6396831 210.222971,56.5944987 216.776862,59.3439276 C226.394021,63.3804298 236.802454,66.0781087 241.571803,77.5131956 C242.591779,79.9554631 246.102435,79.1992449 247.299363,76.3880498 C248.407815,73.7805162 250.374316,72.63033 252.803229,72.9558544 C255.045173,73.2563385 257.575917,73.7871936 259.315385,75.1460492 C262.513871,77.641736 270.984182,84.8132883 274.094192,86.3157085 C275.170926,86.8348781 275.544862,97.5805211 283.125406,97.9260778 C286.782965,98.0946827 289.711015,96.1932865 292.154952,93.3336801 C285.52594,98.0145536 283.415874,97.3635049 280.970268,96.3251656 C276.932097,94.6057292 275.91212,86.8599185 275.81029,86.2923375 C278.431178,83.0804971 279.603066,81.8535206 285.16369,83.845062 C288.469014,86.4459183 291.367016,89.7378878 293.977888,91.6442921 C293.735832,92.1651311 291.584032,100.029466 297.168027,101.825693 C298.783963,102.346532 301.802159,101.723862 302.885571,101.436733 C307.93871,100.092902 310.961914,98.9677557 316.035086,98.0813278 C312.950116,98.0579569 311.980221,98.4869813 309.968647,98.8809492" id="Fill-1" fill="#443327" mask="url(#mask-2)"></path>
                </g>
                <g id="birds" transform="translate(63.000000, 32.000000)">
                    <g id="Group-3" transform="translate(0.000000, 0.683288)">
                        <mask id="mask-4" fill="white">
                            <use xlink:href="#path-3"></use>
                        </mask>
                        <g id="Clip-2"></g>
                        <path d="M30.4487279,0.23013456 C31.0202011,0.489663834 31.6013603,0.724077372 32.1576126,1.01290834 C32.7595275,1.32545972 33.2050828,1.78870552 33.3268495,2.50171336 C33.4389302,3.15193187 33.8485091,3.45611134 34.473947,3.61517767 C35.0218971,3.75610485 35.5352544,4.04074986 36.0638325,4.26260553 C36.0375419,4.36167316 36.0098677,4.4621361 35.9835772,4.56120373 C35.2086983,4.47469397 34.4324357,4.4021374 33.6603242,4.29609318 C33.3393029,4.2528383 33.108223,4.27376808 32.9186544,4.5960867 C32.7401555,4.90026617 32.5007733,5.18351586 32.2392516,5.42351067 C31.2526647,6.32628186 31.058945,7.47881508 31.1170609,8.74436912 C31.2844901,12.3708024 29.8315922,15.1391146 26.662891,16.8874489 C25.4037128,17.5809223 24.036605,18.0748651 22.7165435,18.656713 C22.5048355,18.748804 19.116124,19.8594777 18.2236296,20.3213282 C17.3297514,20.784574 16.4427918,21.2868887 15.6264016,21.8743179 C13.6117164,23.3226586 11.6164033,24.8003011 9.65568291,26.3225938 C8.18064559,27.4681504 6.22546008,26.4132895 6.65579461,25.8398135 C3.87868399,27.5644274 -0.232325298,28.2704587 0.00982435745,27.9467447 C1.57203556,25.855162 3.43866348,24.0984558 5.50731339,22.5245364 C8.14466907,20.5166728 10.800013,18.5143905 13.0001156,15.9958403 C13.7030414,15.1893461 14.3865953,14.3549455 14.9954287,13.4744994 C17.356042,10.0559687 19.9892465,6.88859528 23.1136689,4.14679408 C23.7391069,3.59843384 24.2939755,2.9677498 24.8779021,2.37194873 C25.9807208,1.24732188 27.2246782,0.368271109 28.7951917,0.0445571764 C29.3459092,0.107346517 29.8980104,0.168740539 30.4487279,0.23013456" id="Fill-1" fill="#1E2F55" mask="url(#mask-4)"></path>
                    </g>
                    <path d="M61.7065124,23.6608839 C64.2663802,26.7040739 65.3705826,29.9635384 63.2604213,27.2315044 C62.1811257,25.9575784 60.9427032,24.7883014 59.6337113,23.7543702 C57.6951304,22.2237057 55.6361664,20.8465261 53.6173302,19.4205104 C50.6617207,17.7935689 46.7997796,16.673128 45.8671575,16.1847664 C44.7795596,15.6126858 43.6795083,15.0168847 42.7150608,14.2634126 C40.7045268,12.6894931 39.8480089,10.5044241 40.3655173,8.02354749 C40.7626428,6.12172814 39.8521601,4.9384979 38.7714807,3.71898938 C38.6663186,3.60178261 38.3992621,3.59480602 38.2069261,3.59201538 C37.3836173,3.57806219 36.5603085,3.5864341 35.7356159,3.5864341 C35.7231625,3.50131966 35.7107091,3.41760054 35.6982557,3.33388142 C36.355519,3.1678385 37.0210847,3.03109727 37.6658946,2.82459011 C37.9758462,2.72552248 38.4089481,2.55947956 38.505808,2.31250815 C39.0911183,0.825098444 40.4097961,0.593475543 41.7007997,0.279528841 C43.8676932,-0.245110981 45.6526821,0.534872159 47.1719982,2.00414272 C50.8540567,5.5663913 54.4710807,9.17608072 57.2578773,13.5504048 C59.1992257,16.5991761 62.0482893,18.7814545 64.8572253,20.9581516 C67.2289082,22.7957863 69.5410915,24.6780712 71.2790342,27.177087 C71.4589168,27.4352209 62.0579753,22.8460178 61.7065124,23.6608839" id="Fill-4" fill="#1E2F55"></path>
                </g>
                <path d="M21.5625,50.8149414 C20.09375,54.8862305 10.5327148,83.3657227 10.1489258,85.621582 C9.76513672,87.8774414 4.22412109,90.7348633 1.32128906,88.8100586 C-0.613932292,87.5268555 2.32861328,76.0849609 10.1489258,54.484375 C18.7371419,49.3238932 22.5416667,48.1007487 21.5625,50.8149414 Z" id="Path-5" fill="#F7F0D8"></path>
            </g>
        </g>
    </g>
</svg>