<?xml version="1.0" encoding="UTF-8"?>
<svg width="15px" height="201px" viewBox="0 0 15 201" version="1.1" xmlns="http://www.w3.org/2000/svg" xmlns:xlink="http://www.w3.org/1999/xlink">
    <!-- Generator: Sketch 45.2 (43514) - http://www.bohemiancoding.com/sketch -->
    <title>Page 1 Copy</title>
    <desc>Created with Sketch.</desc>
    <defs>
        <polygon id="path-1" points="14.8021904 23.1179339 0.182243283 23.1179339 0.182243283 0.149776923 14.8021904 0.149776923"></polygon>
        <polygon id="path-3" points="1.90523175 0.85005553 0.127453968 0.85005553 0.127453968 0.0856470872 1.90523175 0.0856470872 1.90523175 0.85005553"></polygon>
        <polygon id="path-5" points="14.8888889 0.00870322942 14.8888889 17.0621608 0.000282072345 17.0621608 0.000282072345 0.00870322942 14.8888889 0.00870322942"></polygon>
    </defs>
    <g id="Page-1" stroke="none" stroke-width="1" fill="none" fill-rule="evenodd">
        <g id="Home" transform="translate(-557.000000, -360.000000)">
            <g id="Page-1-Copy" transform="translate(557.000000, 360.000000)">
                <path d="M7.55804444,80.9148638 C7.55804444,80.7537737 7.68604444,80.6273266 7.85315556,80.6273266 C8.01848889,80.6273266 8.14826667,80.7537737 8.14826667,80.9148638 C8.14826667,81.0759539 8.01848889,81.2024009 7.85315556,81.2024009 C7.68604444,81.2024009 7.55804444,81.0759539 7.55804444,80.9148638 M7.55804444,82.0650124 C7.55804444,81.9039223 7.68604444,81.7774753 7.85315556,81.7774753 C8.01848889,81.7774753 8.14826667,81.9039223 8.14826667,82.0650124 C8.14826667,82.2191739 8.01848889,82.3525496 7.85315556,82.3525496 C7.68604444,82.3525496 7.55804444,82.2191739 7.55804444,82.0650124 M7.55804444,83.2099647 C7.55804444,83.054071 7.68604444,82.9224275 7.85315556,82.9224275 C8.01848889,82.9224275 8.14826667,83.054071 8.14826667,83.2099647 C8.14826667,83.3693226 8.01848889,83.4975018 7.85315556,83.4975018 C7.68604444,83.4975018 7.55804444,83.3693226 7.55804444,83.2099647 M7.55804444,84.3601133 C7.55804444,84.1990232 7.68604444,84.0725761 7.85315556,84.0725761 C8.01848889,84.0725761 8.14826667,84.1990232 8.14826667,84.3601133 C8.14826667,84.5212034 8.01848889,84.6476505 7.85315556,84.6476505 C7.68604444,84.6476505 7.55804444,84.5212034 7.55804444,84.3601133 M7.55804444,85.510262 C7.55804444,85.3491719 7.68604444,85.2227248 7.85315556,85.2227248 C8.01848889,85.2227248 8.14826667,85.3491719 8.14826667,85.510262 C8.14826667,85.6644235 8.01848889,85.7977991 7.85315556,85.7977991 C7.68604444,85.7977991 7.55804444,85.6644235 7.55804444,85.510262 M7.55804444,86.6604106 C7.55804444,86.4993205 7.68604444,86.3728735 7.85315556,86.3728735 C8.01848889,86.3728735 8.14826667,86.4993205 8.14826667,86.6604106 C8.14826667,86.8145721 8.01848889,86.9410192 7.85315556,86.9410192 C7.68604444,86.9410192 7.55804444,86.8145721 7.55804444,86.6604106 M7.55804444,87.8053628 C7.55804444,87.6494692 7.68604444,87.5178257 7.85315556,87.5178257 C8.01848889,87.5178257 8.14826667,87.6494692 8.14826667,87.8053628 C8.14826667,87.9647208 8.01848889,88.0929 7.85315556,88.0929 C7.68604444,88.0929 7.55804444,87.9647208 7.55804444,87.8053628 M7.55804444,88.9555115 C7.55804444,88.7944214 7.68604444,88.6679743 7.85315556,88.6679743 C8.01848889,88.6679743 8.14826667,88.7944214 8.14826667,88.9555115 C8.14826667,89.109673 8.01848889,89.2430487 7.85315556,89.2430487 C7.68604444,89.2430487 7.55804444,89.109673 7.55804444,88.9555115 M7.55804444,90.1056602 C7.55804444,89.9445701 7.68604444,89.818123 7.85315556,89.818123 C8.01848889,89.818123 8.14826667,89.9445701 8.14826667,90.1056602 C8.14826667,90.2615538 8.01848889,90.3931973 7.85315556,90.3931973 C7.68604444,90.3931973 7.55804444,90.2615538 7.55804444,90.1056602 M7.55804444,91.2488802 C7.55804444,91.0947187 7.68604444,90.9613431 7.85315556,90.9613431 C8.01848889,90.9613431 8.14826667,91.0947187 8.14826667,91.2488802 C8.14826667,91.4117025 8.01848889,91.5364174 7.85315556,91.5364174 C7.68604444,91.5364174 7.55804444,91.4117025 7.55804444,91.2488802 M7.55804444,92.3990289 C7.55804444,92.2396709 7.68604444,92.1114917 7.85315556,92.1114917 C8.01848889,92.1114917 8.14826667,92.2396709 8.14826667,92.3990289 C8.14826667,92.5618511 8.01848889,92.6865661 7.85315556,92.6865661 C7.68604444,92.6865661 7.55804444,92.5618511 7.55804444,92.3990289 M7.55804444,93.5491776 C7.55804444,93.3898196 7.68604444,93.2616404 7.85315556,93.2616404 C8.01848889,93.2616404 8.14826667,93.3898196 8.14826667,93.5491776 C8.14826667,93.7050712 8.01848889,93.8367147 7.85315556,93.8367147 C7.68604444,93.8367147 7.55804444,93.7050712 7.55804444,93.5491776 M7.55804444,94.6958619 C7.55804444,94.5399683 7.68604444,94.4083247 7.85315556,94.4083247 C8.01848889,94.4083247 8.14826667,94.5399683 8.14826667,94.6958619 C8.14826667,94.8552199 8.01848889,94.9833991 7.85315556,94.9833991 C7.68604444,94.9833991 7.55804444,94.8552199 7.55804444,94.6958619 M7.55804444,95.8460106 C7.55804444,95.6831883 7.68604444,95.5584734 7.85315556,95.5584734 C8.01848889,95.5584734 8.14826667,95.6831883 8.14826667,95.8460106 C8.14826667,96.0053685 8.01848889,96.1335477 7.85315556,96.1335477 C7.68604444,96.1335477 7.55804444,96.0053685 7.55804444,95.8460106 M7.55804444,96.9961592 C7.55804444,96.833337 7.68604444,96.7086221 7.85315556,96.7086221 C8.01848889,96.7086221 8.14826667,96.833337 8.14826667,96.9961592 C8.14826667,97.1503207 8.01848889,97.2836964 7.85315556,97.2836964 C7.68604444,97.2836964 7.55804444,97.1503207 7.55804444,96.9961592 M7.55804444,98.1393793 C7.55804444,97.9834857 7.68604444,97.8587707 7.85315556,97.8587707 C8.01848889,97.8587707 8.14826667,97.9834857 8.14826667,98.1393793 C8.14826667,98.3004694 8.01848889,98.4338451 7.85315556,98.4338451 C7.68604444,98.4338451 7.55804444,98.3004694 7.55804444,98.1393793 M7.55804444,99.289528 C7.55804444,99.1284379 7.68604444,99.0019908 7.85315556,99.0019908 C8.01848889,99.0019908 8.14826667,99.1284379 8.14826667,99.289528 C8.14826667,99.4506181 8.01848889,99.5770651 7.85315556,99.5770651 C7.68604444,99.5770651 7.55804444,99.4506181 7.55804444,99.289528 M7.55804444,100.439677 C7.55804444,100.278587 7.68604444,100.152139 7.85315556,100.152139 C8.01848889,100.152139 8.14826667,100.278587 8.14826667,100.439677 C8.14826667,100.600767 8.01848889,100.727214 7.85315556,100.727214 C7.68604444,100.727214 7.55804444,100.600767 7.55804444,100.439677 M7.55804444,101.591557 C7.55804444,101.428735 7.68604444,101.30402 7.85315556,101.30402 C8.01848889,101.30402 8.14826667,101.428735 8.14826667,101.591557 C8.14826667,101.745719 8.01848889,101.879095 7.85315556,101.879095 C7.68604444,101.879095 7.55804444,101.745719 7.55804444,101.591557 M7.55804444,102.734777 C7.55804444,102.578884 7.68604444,102.44724 7.85315556,102.44724 C8.01848889,102.44724 8.14826667,102.578884 8.14826667,102.734777 C8.14826667,102.895868 8.01848889,103.022315 7.85315556,103.022315 C7.68604444,103.022315 7.55804444,102.895868 7.55804444,102.734777 M7.55804444,103.884926 C7.55804444,103.723836 7.68604444,103.597389 7.85315556,103.597389 C8.01848889,103.597389 8.14826667,103.723836 8.14826667,103.884926 C8.14826667,104.046016 8.01848889,104.172463 7.85315556,104.172463 C7.68604444,104.172463 7.55804444,104.046016 7.55804444,103.884926 M7.55804444,105.035075 C7.55804444,104.873985 7.68604444,104.747538 7.85315556,104.747538 C8.01848889,104.747538 8.14826667,104.873985 8.14826667,105.035075 C8.14826667,105.190968 8.01848889,105.322612 7.85315556,105.322612 C7.68604444,105.322612 7.55804444,105.190968 7.55804444,105.035075 M7.55804444,106.180027 C7.55804444,106.024133 7.68604444,105.89249 7.85315556,105.89249 C8.01848889,105.89249 8.14826667,106.024133 8.14826667,106.180027 C8.14826667,106.341117 8.01848889,106.472761 7.85315556,106.472761 C7.68604444,106.472761 7.55804444,106.341117 7.55804444,106.180027 M7.55804444,107.330176 C7.55804444,107.169086 7.68604444,107.042639 7.85315556,107.042639 C8.01848889,107.042639 8.14826667,107.169086 8.14826667,107.330176 C8.14826667,107.491266 8.01848889,107.617713 7.85315556,107.617713 C7.68604444,107.617713 7.55804444,107.491266 7.55804444,107.330176 M7.55804444,108.480324 C7.55804444,108.319234 7.68604444,108.192787 7.85315556,108.192787 C8.01848889,108.192787 8.14826667,108.319234 8.14826667,108.480324 C8.14826667,108.636218 8.01848889,108.767862 7.85315556,108.767862 C7.68604444,108.767862 7.55804444,108.636218 7.55804444,108.480324 M7.55804444,109.625277 C7.55804444,109.469383 7.68604444,109.342936 7.85315556,109.342936 C8.01848889,109.342936 8.14826667,109.469383 8.14826667,109.625277 C8.14826667,109.786367 8.01848889,109.912814 7.85315556,109.912814 C7.68604444,109.912814 7.55804444,109.786367 7.55804444,109.625277 M7.55804444,110.775425 C7.55804444,110.619532 7.68604444,110.487888 7.85315556,110.487888 C8.01848889,110.487888 8.14826667,110.619532 8.14826667,110.775425 C8.14826667,110.936515 8.01848889,111.062962 7.85315556,111.062962 C7.68604444,111.062962 7.55804444,110.936515 7.55804444,110.775425 M7.55804444,111.925574 C7.55804444,111.764484 7.68604444,111.638037 7.85315556,111.638037 C8.01848889,111.638037 8.14826667,111.764484 8.14826667,111.925574 C8.14826667,112.086664 8.01848889,112.213111 7.85315556,112.213111 C7.68604444,112.213111 7.55804444,112.086664 7.55804444,111.925574 M7.55804444,113.075723 C7.55804444,112.914632 7.68604444,112.788185 7.85315556,112.788185 C8.01848889,112.788185 8.14826667,112.914632 8.14826667,113.075723 C8.14826667,113.231616 8.01848889,113.36326 7.85315556,113.36326 C7.68604444,113.36326 7.55804444,113.231616 7.55804444,113.075723 M7.55804444,114.220675 C7.55804444,114.064781 7.68604444,113.933138 7.85315556,113.933138 C8.01848889,113.933138 8.14826667,114.064781 8.14826667,114.220675 C8.14826667,114.381765 8.01848889,114.508212 7.85315556,114.508212 C7.68604444,114.508212 7.55804444,114.381765 7.55804444,114.220675 M7.55804444,115.370823 C7.55804444,115.209733 7.68604444,115.083286 7.85315556,115.083286 C8.01848889,115.083286 8.14826667,115.209733 8.14826667,115.370823 C8.14826667,115.531914 8.01848889,115.658361 7.85315556,115.658361 C7.68604444,115.658361 7.55804444,115.531914 7.55804444,115.370823 M7.55804444,116.520972 C7.55804444,116.359882 7.68604444,116.233435 7.85315556,116.233435 C8.01848889,116.233435 8.14826667,116.359882 8.14826667,116.520972 C8.14826667,116.676866 8.01848889,116.808509 7.85315556,116.808509 C7.68604444,116.808509 7.55804444,116.676866 7.55804444,116.520972 M7.55804444,117.665924 C7.55804444,117.510031 7.68604444,117.378387 7.85315556,117.378387 C8.01848889,117.378387 8.14826667,117.510031 8.14826667,117.665924 C8.14826667,117.827014 8.01848889,117.953461 7.85315556,117.953461 C7.68604444,117.953461 7.55804444,117.827014 7.55804444,117.665924 M7.55804444,118.816073 C7.55804444,118.654983 7.68604444,118.528536 7.85315556,118.528536 C8.01848889,118.528536 8.14826667,118.654983 8.14826667,118.816073 C8.14826667,118.977163 8.01848889,119.10361 7.85315556,119.10361 C7.68604444,119.10361 7.55804444,118.977163 7.55804444,118.816073 M7.55804444,119.966222 C7.55804444,119.805132 7.68604444,119.678684 7.85315556,119.678684 C8.01848889,119.678684 8.14826667,119.805132 8.14826667,119.966222 C8.14826667,120.120383 8.01848889,120.253759 7.85315556,120.253759 C7.68604444,120.253759 7.55804444,120.120383 7.55804444,119.966222 M7.55804444,121.111174 C7.55804444,120.95528 7.68604444,120.828833 7.85315556,120.828833 C8.01848889,120.828833 8.14826667,120.95528 8.14826667,121.111174 C8.14826667,121.270532 8.01848889,121.403907 7.85315556,121.403907 C7.68604444,121.403907 7.55804444,121.270532 7.55804444,121.111174 M7.55804444,122.261322 C7.55804444,122.100232 7.68604444,121.973785 7.85315556,121.973785 C8.01848889,121.973785 8.14826667,122.100232 8.14826667,122.261322 C8.14826667,122.42068 8.01848889,122.54886 7.85315556,122.54886 C7.68604444,122.54886 7.55804444,122.42068 7.55804444,122.261322 M7.55804444,123.411471 C7.55804444,123.250381 7.68604444,123.123934 7.85315556,123.123934 C8.01848889,123.123934 8.14826667,123.250381 8.14826667,123.411471 C8.14826667,123.565633 8.01848889,123.699008 7.85315556,123.699008 C7.68604444,123.699008 7.55804444,123.565633 7.55804444,123.411471 M7.55804444,124.56162 C7.55804444,124.40053 7.68604444,124.274083 7.85315556,124.274083 C8.01848889,124.274083 8.14826667,124.40053 8.14826667,124.56162 C8.14826667,124.715781 8.01848889,124.849157 7.85315556,124.849157 C7.68604444,124.849157 7.55804444,124.715781 7.55804444,124.56162 M7.55804444,125.70484 C7.55804444,125.550678 7.68604444,125.417303 7.85315556,125.417303 C8.01848889,125.417303 8.14826667,125.550678 8.14826667,125.70484 C8.14826667,125.86593 8.01848889,125.992377 7.85315556,125.992377 C7.68604444,125.992377 7.55804444,125.86593 7.55804444,125.70484 M7.55804444,126.854989 C7.55804444,126.695631 7.68604444,126.567451 7.85315556,126.567451 C8.01848889,126.567451 8.14826667,126.695631 8.14826667,126.854989 C8.14826667,127.016079 8.01848889,127.142526 7.85315556,127.142526 C7.68604444,127.142526 7.55804444,127.016079 7.55804444,126.854989 M7.55804444,128.006869 C7.55804444,127.845779 7.68604444,127.719332 7.85315556,127.719332 C8.01848889,127.719332 8.14826667,127.845779 8.14826667,128.006869 C8.14826667,128.161031 8.01848889,128.294407 7.85315556,128.294407 C7.68604444,128.294407 7.55804444,128.161031 7.55804444,128.006869 M7.55804444,129.150089 C7.55804444,128.995928 7.68604444,128.862552 7.85315556,128.862552 C8.01848889,128.862552 8.14826667,128.995928 8.14826667,129.150089 C8.14826667,129.311179 8.01848889,129.437627 7.85315556,129.437627 C7.68604444,129.437627 7.55804444,129.311179 7.55804444,129.150089 M7.55804444,130.300238 C7.55804444,130.139148 7.68604444,130.012701 7.85315556,130.012701 C8.01848889,130.012701 8.14826667,130.139148 8.14826667,130.300238 C8.14826667,130.461328 8.01848889,130.587775 7.85315556,130.587775 C7.68604444,130.587775 7.55804444,130.461328 7.55804444,130.300238 M7.55804444,131.450387 C7.55804444,131.291029 7.68604444,131.16285 7.85315556,131.16285 C8.01848889,131.16285 8.14826667,131.291029 8.14826667,131.450387 C8.14826667,131.60628 8.01848889,131.737924 7.85315556,131.737924 C7.68604444,131.737924 7.55804444,131.60628 7.55804444,131.450387 M7.55804444,132.595339 C7.55804444,132.441177 7.68604444,132.312998 7.85315556,132.312998 C8.01848889,132.312998 8.14826667,132.441177 8.14826667,132.595339 C8.14826667,132.756429 8.01848889,132.888073 7.85315556,132.888073 C7.68604444,132.888073 7.55804444,132.756429 7.55804444,132.595339 M7.55804444,133.745488 C7.55804444,133.591326 7.68604444,133.45795 7.85315556,133.45795 C8.01848889,133.45795 8.14826667,133.591326 8.14826667,133.745488 C8.14826667,133.906578 8.01848889,134.034757 7.85315556,134.034757 C7.68604444,134.034757 7.55804444,133.906578 7.55804444,133.745488 M7.55804444,134.897368 C7.55804444,134.734546 7.68604444,134.609831 7.85315556,134.609831 C8.01848889,134.609831 8.14826667,134.734546 8.14826667,134.897368 C8.14826667,135.056726 8.01848889,135.184906 7.85315556,135.184906 C7.68604444,135.184906 7.55804444,135.056726 7.55804444,134.897368 M7.55804444,136.047517 C7.55804444,135.884695 7.68604444,135.75998 7.85315556,135.75998 C8.01848889,135.75998 8.14826667,135.884695 8.14826667,136.047517 C8.14826667,136.201679 8.01848889,136.335054 7.85315556,136.335054 C7.68604444,136.335054 7.55804444,136.201679 7.55804444,136.047517 M7.55804444,137.190737 C7.55804444,137.034843 7.68604444,136.9032 7.85315556,136.9032 C8.01848889,136.9032 8.14826667,137.034843 8.14826667,137.190737 C8.14826667,137.351827 8.01848889,137.478274 7.85315556,137.478274 C7.68604444,137.478274 7.55804444,137.351827 7.55804444,137.190737 M7.55804444,138.340886 C7.55804444,138.179796 7.68604444,138.053349 7.85315556,138.053349 C8.01848889,138.053349 8.14826667,138.179796 8.14826667,138.340886 C8.14826667,138.501976 8.01848889,138.628423 7.85315556,138.628423 C7.68604444,138.628423 7.55804444,138.501976 7.55804444,138.340886 M7.55804444,139.491034 C7.55804444,139.329944 7.68604444,139.203497 7.85315556,139.203497 C8.01848889,139.203497 8.14826667,139.329944 8.14826667,139.491034 C8.14826667,139.646928 8.01848889,139.778572 7.85315556,139.778572 C7.68604444,139.778572 7.55804444,139.646928 7.55804444,139.491034 M7.55804444,140.635987 C7.55804444,140.480093 7.68604444,140.348449 7.85315556,140.348449 C8.01848889,140.348449 8.14826667,140.480093 8.14826667,140.635987 C8.14826667,140.797077 8.01848889,140.923524 7.85315556,140.923524 C7.68604444,140.923524 7.55804444,140.797077 7.55804444,140.635987 M7.55804444,141.786135 C7.55804444,141.625045 7.68604444,141.498598 7.85315556,141.498598 C8.01848889,141.498598 8.14826667,141.625045 8.14826667,141.786135 C8.14826667,141.947225 8.01848889,142.073672 7.85315556,142.073672 C7.68604444,142.073672 7.55804444,141.947225 7.55804444,141.786135 M7.55804444,142.936284 C7.55804444,142.775194 7.68604444,142.648747 7.85315556,142.648747 C8.01848889,142.648747 8.14826667,142.775194 8.14826667,142.936284 C8.14826667,143.092178 8.01848889,143.223821 7.85315556,143.223821 C7.68604444,143.223821 7.55804444,143.092178 7.55804444,142.936284 M7.55804444,144.081236 C7.55804444,143.925343 7.68604444,143.798895 7.85315556,143.798895 C8.01848889,143.798895 8.14826667,143.925343 8.14826667,144.081236 C8.14826667,144.242326 8.01848889,144.368773 7.85315556,144.368773 C7.68604444,144.368773 7.55804444,144.242326 7.55804444,144.081236 M7.55804444,145.231385 C7.55804444,145.070295 7.68604444,144.943848 7.85315556,144.943848 C8.01848889,144.943848 8.14826667,145.070295 8.14826667,145.231385 C8.14826667,145.392475 8.01848889,145.518922 7.85315556,145.518922 C7.68604444,145.518922 7.55804444,145.392475 7.55804444,145.231385 M7.55804444,146.381534 C7.55804444,146.220443 7.68604444,146.093996 7.85315556,146.093996 C8.01848889,146.093996 8.14826667,146.220443 8.14826667,146.381534 C8.14826667,146.537427 8.01848889,146.669071 7.85315556,146.669071 C7.68604444,146.669071 7.55804444,146.537427 7.55804444,146.381534 M7.55804444,147.531682 C7.55804444,147.370592 7.68604444,147.244145 7.85315556,147.244145 C8.01848889,147.244145 8.14826667,147.370592 8.14826667,147.531682 C8.14826667,147.687576 8.01848889,147.819219 7.85315556,147.819219 C7.68604444,147.819219 7.55804444,147.687576 7.55804444,147.531682 M7.55804444,148.676634 C7.55804444,148.520741 7.68604444,148.389097 7.85315556,148.389097 C8.01848889,148.389097 8.14826667,148.520741 8.14826667,148.676634 C8.14826667,148.837724 8.01848889,148.964172 7.85315556,148.964172 C7.68604444,148.964172 7.55804444,148.837724 7.55804444,148.676634 M7.55804444,149.826783 C7.55804444,149.665693 7.68604444,149.539246 7.85315556,149.539246 C8.01848889,149.539246 8.14826667,149.665693 8.14826667,149.826783 C8.14826667,149.987873 8.01848889,150.11432 7.85315556,150.11432 C7.68604444,150.11432 7.55804444,149.987873 7.55804444,149.826783 M7.55804444,150.976932 C7.55804444,150.815842 7.68604444,150.689395 7.85315556,150.689395 C8.01848889,150.689395 8.14826667,150.815842 8.14826667,150.976932 C8.14826667,151.132825 8.01848889,151.264469 7.85315556,151.264469 C7.68604444,151.264469 7.55804444,151.132825 7.55804444,150.976932 M7.55804444,152.121884 C7.55804444,151.96599 7.68604444,151.834347 7.85315556,151.834347 C8.01848889,151.834347 8.14826667,151.96599 8.14826667,152.121884 C8.14826667,152.282974 8.01848889,152.409421 7.85315556,152.409421 C7.68604444,152.409421 7.55804444,152.282974 7.55804444,152.121884 M7.55804444,153.272033 C7.55804444,153.110942 7.68604444,152.984495 7.85315556,152.984495 C8.01848889,152.984495 8.14826667,153.110942 8.14826667,153.272033 C8.14826667,153.433123 8.01848889,153.55957 7.85315556,153.55957 C7.68604444,153.55957 7.55804444,153.433123 7.55804444,153.272033 M7.55804444,154.422181 C7.55804444,154.261091 7.68604444,154.134644 7.85315556,154.134644 C8.01848889,154.134644 8.14826667,154.261091 8.14826667,154.422181 C8.14826667,154.576343 8.01848889,154.709718 7.85315556,154.709718 C7.68604444,154.709718 7.55804444,154.576343 7.55804444,154.422181 M7.55804444,155.567133 C7.55804444,155.41124 7.68604444,155.284793 7.85315556,155.284793 C8.01848889,155.284793 8.14826667,155.41124 8.14826667,155.567133 C8.14826667,155.726491 8.01848889,155.859867 7.85315556,155.859867 C7.68604444,155.859867 7.55804444,155.726491 7.55804444,155.567133 M7.55804444,156.717282 C7.55804444,156.55446 7.68604444,156.429745 7.85315556,156.429745 C8.01848889,156.429745 8.14826667,156.55446 8.14826667,156.717282 C8.14826667,156.87664 8.01848889,157.004819 7.85315556,157.004819 C7.68604444,157.004819 7.55804444,156.87664 7.55804444,156.717282 M7.55804444,157.867431 C7.55804444,157.706341 7.68604444,157.579894 7.85315556,157.579894 C8.01848889,157.579894 8.14826667,157.706341 8.14826667,157.867431 C8.14826667,158.028521 8.01848889,158.154968 7.85315556,158.154968 C7.68604444,158.154968 7.55804444,158.028521 7.55804444,157.867431 M7.55804444,159.017579 C7.55804444,158.856489 7.68604444,158.730042 7.85315556,158.730042 C8.01848889,158.730042 8.14826667,158.856489 8.14826667,159.017579 C8.14826667,159.171741 8.01848889,159.305117 7.85315556,159.305117 C7.68604444,159.305117 7.55804444,159.171741 7.55804444,159.017579 M7.55804444,160.160799 C7.55804444,160.006638 7.68604444,159.873262 7.85315556,159.873262 C8.01848889,159.873262 8.14826667,160.006638 8.14826667,160.160799 C8.14826667,160.32189 8.01848889,160.450069 7.85315556,160.450069 C7.68604444,160.450069 7.55804444,160.32189 7.55804444,160.160799 M7.55804444,161.31268 C7.55804444,161.149858 7.68604444,161.025143 7.85315556,161.025143 C8.01848889,161.025143 8.14826667,161.149858 8.14826667,161.31268 C8.14826667,161.472038 8.01848889,161.600217 7.85315556,161.600217 C7.68604444,161.600217 7.55804444,161.472038 7.55804444,161.31268" id="Fill-1" fill="#231F1E"></path>
                <path d="M7.55804444,0.287710381 C7.55804444,0.126620282 7.68604444,0.00017321516 7.85315556,0.00017321516 C8.01848889,0.00017321516 8.14826667,0.126620282 8.14826667,0.287710381 C8.14826667,0.44880048 8.01848889,0.575247546 7.85315556,0.575247546 C7.68604444,0.575247546 7.55804444,0.44880048 7.55804444,0.287710381 M7.55804444,1.43785904 C7.55804444,1.27676894 7.68604444,1.15032188 7.85315556,1.15032188 C8.01848889,1.15032188 8.14826667,1.27676894 8.14826667,1.43785904 C8.14826667,1.59202054 8.01848889,1.72539621 7.85315556,1.72539621 C7.68604444,1.72539621 7.55804444,1.59202054 7.55804444,1.43785904 M7.55804444,2.58281125 C7.55804444,2.42691761 7.68604444,2.29527409 7.85315556,2.29527409 C8.01848889,2.29527409 8.14826667,2.42691761 8.14826667,2.58281125 C8.14826667,2.7421692 8.01848889,2.87034842 7.85315556,2.87034842 C7.68604444,2.87034842 7.55804444,2.7421692 7.55804444,2.58281125 M7.55804444,3.73295991 C7.55804444,3.57186982 7.68604444,3.44542275 7.85315556,3.44542275 C8.01848889,3.44542275 8.14826667,3.57186982 8.14826667,3.73295991 C8.14826667,3.89405001 8.01848889,4.02049708 7.85315556,4.02049708 C7.68604444,4.02049708 7.55804444,3.89405001 7.55804444,3.73295991 M7.55804444,4.88310858 C7.55804444,4.72201848 7.68604444,4.59557141 7.85315556,4.59557141 C8.01848889,4.59557141 8.14826667,4.72201848 8.14826667,4.88310858 C8.14826667,5.03727007 8.01848889,5.17064574 7.85315556,5.17064574 C7.68604444,5.17064574 7.55804444,5.03727007 7.55804444,4.88310858 M7.55804444,6.03325724 C7.55804444,5.87216714 7.68604444,5.74572007 7.85315556,5.74572007 C8.01848889,5.74572007 8.14826667,5.87216714 8.14826667,6.03325724 C8.14826667,6.18741873 8.01848889,6.3138658 7.85315556,6.3138658 C7.68604444,6.3138658 7.55804444,6.18741873 7.55804444,6.03325724 M7.55804444,7.17820945 C7.55804444,7.0223158 7.68604444,6.89067228 7.85315556,6.89067228 C8.01848889,6.89067228 8.14826667,7.0223158 8.14826667,7.17820945 C8.14826667,7.33756739 8.01848889,7.46574661 7.85315556,7.46574661 C7.68604444,7.46574661 7.55804444,7.33756739 7.55804444,7.17820945 M7.55804444,8.32835811 C7.55804444,8.16553586 7.68604444,8.04082094 7.85315556,8.04082094 C8.01848889,8.04082094 8.14826667,8.16553586 8.14826667,8.32835811 C8.14826667,8.4825196 8.01848889,8.61589528 7.85315556,8.61589528 C7.68604444,8.61589528 7.55804444,8.4825196 7.55804444,8.32835811 M7.55804444,9.47850677 C7.55804444,9.31568452 7.68604444,9.19096961 7.85315556,9.19096961 C8.01848889,9.19096961 8.14826667,9.31568452 8.14826667,9.47850677 C8.14826667,9.63440042 8.01848889,9.76604394 7.85315556,9.76604394 C7.68604444,9.76604394 7.55804444,9.63440042 7.55804444,9.47850677 M7.55804444,10.6217268 C7.55804444,10.4658332 7.68604444,10.3341897 7.85315556,10.3341897 C8.01848889,10.3341897 8.14826667,10.4658332 8.14826667,10.6217268 C8.14826667,10.7845491 8.01848889,10.909264 7.85315556,10.909264 C7.68604444,10.909264 7.55804444,10.7845491 7.55804444,10.6217268 M7.55804444,11.7718755 C7.55804444,11.6125175 7.68604444,11.4843383 7.85315556,11.4843383 C8.01848889,11.4843383 8.14826667,11.6125175 8.14826667,11.7718755 C8.14826667,11.9346977 8.01848889,12.0594127 7.85315556,12.0594127 C7.68604444,12.0594127 7.55804444,11.9346977 7.55804444,11.7718755 M7.55804444,12.9220242 C7.55804444,12.7626662 7.68604444,12.634487 7.85315556,12.634487 C8.01848889,12.634487 8.14826667,12.7626662 8.14826667,12.9220242 C8.14826667,13.0779178 8.01848889,13.2095613 7.85315556,13.2095613 C7.68604444,13.2095613 7.55804444,13.0779178 7.55804444,12.9220242 M7.55804444,14.0669764 C7.55804444,13.9128149 7.68604444,13.7794392 7.85315556,13.7794392 C8.01848889,13.7794392 8.14826667,13.9128149 8.14826667,14.0669764 C8.14826667,14.2280665 8.01848889,14.3545135 7.85315556,14.3545135 C7.68604444,14.3545135 7.55804444,14.2280665 7.55804444,14.0669764 M7.55804444,15.217125 C7.55804444,15.0560349 7.68604444,14.9295879 7.85315556,14.9295879 C8.01848889,14.9295879 8.14826667,15.0560349 8.14826667,15.217125 C8.14826667,15.3782151 8.01848889,15.5046622 7.85315556,15.5046622 C7.68604444,15.5046622 7.55804444,15.3782151 7.55804444,15.217125 M7.55804444,16.3672737 C7.55804444,16.2061836 7.68604444,16.0797365 7.85315556,16.0797365 C8.01848889,16.0797365 8.14826667,16.2061836 8.14826667,16.3672737 C8.14826667,16.5231673 8.01848889,16.6548109 7.85315556,16.6548109 C7.68604444,16.6548109 7.55804444,16.5231673 7.55804444,16.3672737 M7.55804444,17.5122259 C7.55804444,17.3563323 7.68604444,17.2298852 7.85315556,17.2298852 C8.01848889,17.2298852 8.14826667,17.3563323 8.14826667,17.5122259 C8.14826667,17.673316 8.01848889,17.8049595 7.85315556,17.8049595 C7.68604444,17.8049595 7.55804444,17.673316 7.55804444,17.5122259 M7.55804444,18.6623746 C7.55804444,18.5012845 7.68604444,18.3748374 7.85315556,18.3748374 C8.01848889,18.3748374 8.14826667,18.5012845 8.14826667,18.6623746 C8.14826667,18.8234647 8.01848889,18.9499117 7.85315556,18.9499117 C7.68604444,18.9499117 7.55804444,18.8234647 7.55804444,18.6623746 M7.55804444,19.8125232 C7.55804444,19.6514331 7.68604444,19.5249861 7.85315556,19.5249861 C8.01848889,19.5249861 8.14826667,19.6514331 8.14826667,19.8125232 C8.14826667,19.9736133 8.01848889,20.1000604 7.85315556,20.1000604 C7.68604444,20.1000604 7.55804444,19.9736133 7.55804444,19.8125232 M7.55804444,20.9626719 C7.55804444,20.8015818 7.68604444,20.6751347 7.85315556,20.6751347 C8.01848889,20.6751347 8.14826667,20.8015818 8.14826667,20.9626719 C8.14826667,21.1185655 8.01848889,21.250209 7.85315556,21.250209 C7.68604444,21.250209 7.55804444,21.1185655 7.55804444,20.9626719 M7.55804444,22.1076241 C7.55804444,21.9517304 7.68604444,21.8200869 7.85315556,21.8200869 C8.01848889,21.8200869 8.14826667,21.9517304 8.14826667,22.1076241 C8.14826667,22.2687142 8.01848889,22.3951613 7.85315556,22.3951613 C7.68604444,22.3951613 7.55804444,22.2687142 7.55804444,22.1076241 M7.55804444,23.2577728 C7.55804444,23.0966827 7.68604444,22.9702356 7.85315556,22.9702356 C8.01848889,22.9702356 8.14826667,23.0966827 8.14826667,23.2577728 C8.14826667,23.4188629 8.01848889,23.5453099 7.85315556,23.5453099 C7.68604444,23.5453099 7.55804444,23.4188629 7.55804444,23.2577728 M7.55804444,24.4079214 C7.55804444,24.2468313 7.68604444,24.1203842 7.85315556,24.1203842 C8.01848889,24.1203842 8.14826667,24.2468313 8.14826667,24.4079214 C8.14826667,24.5638151 8.01848889,24.6954586 7.85315556,24.6954586 C7.68604444,24.6954586 7.55804444,24.5638151 7.55804444,24.4079214 M7.55804444,25.5528736 C7.55804444,25.39698 7.68604444,25.2653365 7.85315556,25.2653365 C8.01848889,25.2653365 8.14826667,25.39698 8.14826667,25.5528736 C8.14826667,25.7139637 8.01848889,25.8456072 7.85315556,25.8456072 C7.68604444,25.8456072 7.55804444,25.7139637 7.55804444,25.5528736 M7.55804444,26.7030223 C7.55804444,26.5419322 7.68604444,26.4154851 7.85315556,26.4154851 C8.01848889,26.4154851 8.14826667,26.5419322 8.14826667,26.7030223 C8.14826667,26.8641124 8.01848889,26.9905595 7.85315556,26.9905595 C7.68604444,26.9905595 7.55804444,26.8641124 7.55804444,26.7030223 M7.55804444,27.8531709 C7.55804444,27.6920808 7.68604444,27.5656338 7.85315556,27.5656338 C8.01848889,27.5656338 8.14826667,27.6920808 8.14826667,27.8531709 C8.14826667,28.0073324 8.01848889,28.1407081 7.85315556,28.1407081 C7.68604444,28.1407081 7.55804444,28.0073324 7.55804444,27.8531709 M7.55804444,28.9981232 C7.55804444,28.8422295 7.68604444,28.7157824 7.85315556,28.7157824 C8.01848889,28.7157824 8.14826667,28.8422295 8.14826667,28.9981232 C8.14826667,29.1574811 8.01848889,29.2856603 7.85315556,29.2856603 C7.68604444,29.2856603 7.55804444,29.1574811 7.55804444,28.9981232 M7.55804444,30.1482718 C7.55804444,29.9923782 7.68604444,29.8607347 7.85315556,29.8607347 C8.01848889,29.8607347 8.14826667,29.9923782 8.14826667,30.1482718 C8.14826667,30.3093619 8.01848889,30.435809 7.85315556,30.435809 C7.68604444,30.435809 7.55804444,30.3093619 7.55804444,30.1482718 M7.55804444,31.2984205 C7.55804444,31.1373304 7.68604444,31.0108833 7.85315556,31.0108833 C8.01848889,31.0108833 8.14826667,31.1373304 8.14826667,31.2984205 C8.14826667,31.4595106 8.01848889,31.5859576 7.85315556,31.5859576 C7.68604444,31.5859576 7.55804444,31.4595106 7.55804444,31.2984205 M7.55804444,32.4485691 C7.55804444,32.287479 7.68604444,32.161032 7.85315556,32.161032 C8.01848889,32.161032 8.14826667,32.287479 8.14826667,32.4485691 C8.14826667,32.6044628 8.01848889,32.7361063 7.85315556,32.7361063 C7.68604444,32.7361063 7.55804444,32.6044628 7.55804444,32.4485691 M7.55804444,33.5935214 C7.55804444,33.4376277 7.68604444,33.3059842 7.85315556,33.3059842 C8.01848889,33.3059842 8.14826667,33.4376277 8.14826667,33.5935214 C8.14826667,33.7546115 8.01848889,33.8810585 7.85315556,33.8810585 C7.68604444,33.8810585 7.55804444,33.7546115 7.55804444,33.5935214 M7.55804444,34.74367 C7.55804444,34.5825799 7.68604444,34.4561328 7.85315556,34.4561328 C8.01848889,34.4561328 8.14826667,34.5825799 8.14826667,34.74367 C8.14826667,34.9047601 8.01848889,35.0312072 7.85315556,35.0312072 C7.68604444,35.0312072 7.55804444,34.9047601 7.55804444,34.74367 M7.55804444,35.8938187 C7.55804444,35.7327286 7.68604444,35.6062815 7.85315556,35.6062815 C8.01848889,35.6062815 8.14826667,35.7327286 8.14826667,35.8938187 C8.14826667,36.0497123 8.01848889,36.1813558 7.85315556,36.1813558 C7.68604444,36.1813558 7.55804444,36.0497123 7.55804444,35.8938187 M7.55804444,37.0387709 C7.55804444,36.8828772 7.68604444,36.7512337 7.85315556,36.7512337 C8.01848889,36.7512337 8.14826667,36.8828772 8.14826667,37.0387709 C8.14826667,37.199861 8.01848889,37.3263081 7.85315556,37.3263081 C7.68604444,37.3263081 7.55804444,37.199861 7.55804444,37.0387709 M7.55804444,38.1889195 C7.55804444,38.0278294 7.68604444,37.9013824 7.85315556,37.9013824 C8.01848889,37.9013824 8.14826667,38.0278294 8.14826667,38.1889195 C8.14826667,38.3500096 8.01848889,38.4764567 7.85315556,38.4764567 C7.68604444,38.4764567 7.55804444,38.3500096 7.55804444,38.1889195 M7.55804444,39.3390682 C7.55804444,39.1779781 7.68604444,39.051531 7.85315556,39.051531 C8.01848889,39.051531 8.14826667,39.1779781 8.14826667,39.3390682 C8.14826667,39.4932297 8.01848889,39.6266054 7.85315556,39.6266054 C7.68604444,39.6266054 7.55804444,39.4932297 7.55804444,39.3390682 M7.55804444,40.4840204 C7.55804444,40.3281268 7.68604444,40.2016797 7.85315556,40.2016797 C8.01848889,40.2016797 8.14826667,40.3281268 8.14826667,40.4840204 C8.14826667,40.6433784 8.01848889,40.776754 7.85315556,40.776754 C7.68604444,40.776754 7.55804444,40.6433784 7.55804444,40.4840204 M7.55804444,41.6341691 C7.55804444,41.4713468 7.68604444,41.3466319 7.85315556,41.3466319 C8.01848889,41.3466319 8.14826667,41.4713468 8.14826667,41.6341691 C8.14826667,41.793527 8.01848889,41.9217062 7.85315556,41.9217062 C7.68604444,41.9217062 7.55804444,41.793527 7.55804444,41.6341691 M7.55804444,42.7843177 C7.55804444,42.6214955 7.68604444,42.4967806 7.85315556,42.4967806 C8.01848889,42.4967806 8.14826667,42.6214955 8.14826667,42.7843177 C8.14826667,42.9384792 8.01848889,43.0718549 7.85315556,43.0718549 C7.68604444,43.0718549 7.55804444,42.9384792 7.55804444,42.7843177 M7.55804444,43.9344664 C7.55804444,43.7716442 7.68604444,43.6469292 7.85315556,43.6469292 C8.01848889,43.6469292 8.14826667,43.7716442 8.14826667,43.9344664 C8.14826667,44.0886279 8.01848889,44.2220036 7.85315556,44.2220036 C7.68604444,44.2220036 7.55804444,44.0886279 7.55804444,43.9344664 M7.55804444,45.0776865 C7.55804444,44.923525 7.68604444,44.7901493 7.85315556,44.7901493 C8.01848889,44.7901493 8.14826667,44.923525 8.14826667,45.0776865 C8.14826667,45.2387766 8.01848889,45.3652236 7.85315556,45.3652236 C7.68604444,45.3652236 7.55804444,45.2387766 7.55804444,45.0776865 M7.55804444,46.2278351 C7.55804444,46.066745 7.68604444,45.940298 7.85315556,45.940298 C8.01848889,45.940298 8.14826667,46.066745 8.14826667,46.2278351 C8.14826667,46.3889252 8.01848889,46.5153723 7.85315556,46.5153723 C7.68604444,46.5153723 7.55804444,46.3889252 7.55804444,46.2278351 M7.55804444,47.3797159 C7.55804444,47.2168937 7.68604444,47.0921788 7.85315556,47.0921788 C8.01848889,47.0921788 8.14826667,47.2168937 8.14826667,47.3797159 C8.14826667,47.5338774 8.01848889,47.6672531 7.85315556,47.6672531 C7.68604444,47.6672531 7.55804444,47.5338774 7.55804444,47.3797159 M7.55804444,48.522936 C7.55804444,48.3670424 7.68604444,48.2353988 7.85315556,48.2353988 C8.01848889,48.2353988 8.14826667,48.3670424 8.14826667,48.522936 C8.14826667,48.6840261 8.01848889,48.8104732 7.85315556,48.8104732 C7.68604444,48.8104732 7.55804444,48.6840261 7.55804444,48.522936 M7.55804444,49.6730847 C7.55804444,49.5119946 7.68604444,49.3855475 7.85315556,49.3855475 C8.01848889,49.3855475 8.14826667,49.5119946 8.14826667,49.6730847 C8.14826667,49.8341748 8.01848889,49.9606218 7.85315556,49.9606218 C7.68604444,49.9606218 7.55804444,49.8341748 7.55804444,49.6730847 M7.55804444,50.8232333 C7.55804444,50.6638754 7.68604444,50.5356962 7.85315556,50.5356962 C8.01848889,50.5356962 8.14826667,50.6638754 8.14826667,50.8232333 C8.14826667,50.979127 8.01848889,51.1107705 7.85315556,51.1107705 C7.68604444,51.1107705 7.55804444,50.979127 7.55804444,50.8232333 M7.55804444,51.9681855 C7.55804444,51.814024 7.68604444,51.6858448 7.85315556,51.6858448 C8.01848889,51.6858448 8.14826667,51.814024 8.14826667,51.9681855 C8.14826667,52.1292756 8.01848889,52.2609191 7.85315556,52.2609191 C7.68604444,52.2609191 7.55804444,52.1292756 7.55804444,51.9681855 M7.55804444,53.1183342 C7.55804444,52.9641727 7.68604444,52.830797 7.85315556,52.830797 C8.01848889,52.830797 8.14826667,52.9641727 8.14826667,53.1183342 C8.14826667,53.2794243 8.01848889,53.4058714 7.85315556,53.4058714 C7.68604444,53.4058714 7.55804444,53.2794243 7.55804444,53.1183342 M7.55804444,54.2684829 C7.55804444,54.1073928 7.68604444,53.9809457 7.85315556,53.9809457 C8.01848889,53.9809457 8.14826667,54.1073928 8.14826667,54.2684829 C8.14826667,54.429573 8.01848889,54.55602 7.85315556,54.55602 C7.68604444,54.55602 7.55804444,54.429573 7.55804444,54.2684829 M7.55804444,55.4186315 C7.55804444,55.2575414 7.68604444,55.1310944 7.85315556,55.1310944 C8.01848889,55.1310944 8.14826667,55.2575414 8.14826667,55.4186315 C8.14826667,55.5745252 8.01848889,55.7061687 7.85315556,55.7061687 C7.68604444,55.7061687 7.55804444,55.5745252 7.55804444,55.4186315 M7.55804444,56.5635837 C7.55804444,56.4076901 7.68604444,56.2760466 7.85315556,56.2760466 C8.01848889,56.2760466 8.14826667,56.4076901 8.14826667,56.5635837 C8.14826667,56.7246738 8.01848889,56.8511209 7.85315556,56.8511209 C7.68604444,56.8511209 7.55804444,56.7246738 7.55804444,56.5635837 M7.55804444,57.7137324 C7.55804444,57.5526423 7.68604444,57.4261952 7.85315556,57.4261952 C8.01848889,57.4261952 8.14826667,57.5526423 8.14826667,57.7137324 C8.14826667,57.8748225 8.01848889,58.0012696 7.85315556,58.0012696 C7.68604444,58.0012696 7.55804444,57.8748225 7.55804444,57.7137324 M7.55804444,58.863881 C7.55804444,58.702791 7.68604444,58.5763439 7.85315556,58.5763439 C8.01848889,58.5763439 8.14826667,58.702791 8.14826667,58.863881 C8.14826667,59.0197747 8.01848889,59.1514182 7.85315556,59.1514182 C7.68604444,59.1514182 7.55804444,59.0197747 7.55804444,58.863881 M7.55804444,60.0088333 C7.55804444,59.8529396 7.68604444,59.7212961 7.85315556,59.7212961 C8.01848889,59.7212961 8.14826667,59.8529396 8.14826667,60.0088333 C8.14826667,60.1699234 8.01848889,60.2963704 7.85315556,60.2963704 C7.68604444,60.2963704 7.55804444,60.1699234 7.55804444,60.0088333 M7.55804444,61.1589819 C7.55804444,60.9978918 7.68604444,60.8714448 7.85315556,60.8714448 C8.01848889,60.8714448 8.14826667,60.9978918 8.14826667,61.1589819 C8.14826667,61.320072 8.01848889,61.4465191 7.85315556,61.4465191 C7.68604444,61.4465191 7.55804444,61.320072 7.55804444,61.1589819 M7.55804444,62.3091306 C7.55804444,62.1480405 7.68604444,62.0215934 7.85315556,62.0215934 C8.01848889,62.0215934 8.14826667,62.1480405 8.14826667,62.3091306 C8.14826667,62.4650242 8.01848889,62.5966677 7.85315556,62.5966677 C7.68604444,62.5966677 7.55804444,62.4650242 7.55804444,62.3091306 M7.55804444,63.4540828 C7.55804444,63.2981891 7.68604444,63.1717421 7.85315556,63.1717421 C8.01848889,63.1717421 8.14826667,63.2981891 8.14826667,63.4540828 C8.14826667,63.6151729 8.01848889,63.74162 7.85315556,63.74162 C7.68604444,63.74162 7.55804444,63.6151729 7.55804444,63.4540828 M7.55804444,64.6042315 C7.55804444,64.4431414 7.68604444,64.3166943 7.85315556,64.3166943 C8.01848889,64.3166943 8.14826667,64.4431414 8.14826667,64.6042315 C8.14826667,64.7653216 8.01848889,64.8917686 7.85315556,64.8917686 C7.68604444,64.8917686 7.55804444,64.7653216 7.55804444,64.6042315 M7.55804444,65.7543801 C7.55804444,65.59329 7.68604444,65.4668429 7.85315556,65.4668429 C8.01848889,65.4668429 8.14826667,65.59329 8.14826667,65.7543801 C8.14826667,65.9085416 8.01848889,66.0419173 7.85315556,66.0419173 C7.68604444,66.0419173 7.55804444,65.9085416 7.55804444,65.7543801 M7.55804444,66.9045288 C7.55804444,66.7434387 7.68604444,66.6169916 7.85315556,66.6169916 C8.01848889,66.6169916 8.14826667,66.7434387 8.14826667,66.9045288 C8.14826667,67.0586903 8.01848889,67.1920659 7.85315556,67.1920659 C7.68604444,67.1920659 7.55804444,67.0586903 7.55804444,66.9045288 M7.55804444,68.049481 C7.55804444,67.8935873 7.68604444,67.7619438 7.85315556,67.7619438 C8.01848889,67.7619438 8.14826667,67.8935873 8.14826667,68.049481 C8.14826667,68.2088389 8.01848889,68.3370182 7.85315556,68.3370182 C7.68604444,68.3370182 7.55804444,68.2088389 7.55804444,68.049481 M7.55804444,69.1996296 C7.55804444,69.0385395 7.68604444,68.9120925 7.85315556,68.9120925 C8.01848889,68.9120925 8.14826667,69.0385395 8.14826667,69.1996296 C8.14826667,69.3589876 8.01848889,69.4871668 7.85315556,69.4871668 C7.68604444,69.4871668 7.55804444,69.3589876 7.55804444,69.1996296 M7.55804444,70.3497783 C7.55804444,70.1886882 7.68604444,70.0622411 7.85315556,70.0622411 C8.01848889,70.0622411 8.14826667,70.1886882 8.14826667,70.3497783 C8.14826667,70.505672 8.01848889,70.6373155 7.85315556,70.6373155 C7.68604444,70.6373155 7.55804444,70.505672 7.55804444,70.3497783 M7.55804444,71.4929984 C7.55804444,71.3388369 7.68604444,71.2054612 7.85315556,71.2054612 C8.01848889,71.2054612 8.14826667,71.3388369 8.14826667,71.4929984 C8.14826667,71.6558206 8.01848889,71.7805355 7.85315556,71.7805355 C7.68604444,71.7805355 7.55804444,71.6558206 7.55804444,71.4929984 M7.55804444,72.643147 C7.55804444,72.4837891 7.68604444,72.3556099 7.85315556,72.3556099 C8.01848889,72.3556099 8.14826667,72.4837891 8.14826667,72.643147 C8.14826667,72.8059693 8.01848889,72.9306842 7.85315556,72.9306842 C7.68604444,72.9306842 7.55804444,72.8059693 7.55804444,72.643147 M7.55804444,73.7950278 C7.55804444,73.6339377 7.68604444,73.5074907 7.85315556,73.5074907 C8.01848889,73.5074907 8.14826667,73.6339377 8.14826667,73.7950278 C8.14826667,73.9491893 8.01848889,74.082565 7.85315556,74.082565 C7.68604444,74.082565 7.55804444,73.9491893 7.55804444,73.7950278 M7.55804444,74.9382479 C7.55804444,74.7840864 7.68604444,74.6576393 7.85315556,74.6576393 C8.01848889,74.6576393 8.14826667,74.7840864 8.14826667,74.9382479 C8.14826667,75.099338 8.01848889,75.2327137 7.85315556,75.2327137 C7.68604444,75.2327137 7.55804444,75.099338 7.55804444,74.9382479 M7.55804444,76.0883966 C7.55804444,75.9273065 7.68604444,75.8008594 7.85315556,75.8008594 C8.01848889,75.8008594 8.14826667,75.9273065 8.14826667,76.0883966 C8.14826667,76.2494867 8.01848889,76.3759337 7.85315556,76.3759337 C7.68604444,76.3759337 7.55804444,76.2494867 7.55804444,76.0883966 M7.55804444,77.2385452 C7.55804444,77.0791873 7.68604444,76.9510081 7.85315556,76.9510081 C8.01848889,76.9510081 8.14826667,77.0791873 8.14826667,77.2385452 C8.14826667,77.4013675 8.01848889,77.5260824 7.85315556,77.5260824 C7.68604444,77.5260824 7.55804444,77.4013675 7.55804444,77.2385452 M7.55804444,78.3886939 C7.55804444,78.2293359 7.68604444,78.1011567 7.85315556,78.1011567 C8.01848889,78.1011567 8.14826667,78.2293359 8.14826667,78.3886939 C8.14826667,78.5445875 8.01848889,78.6762311 7.85315556,78.6762311 C7.68604444,78.6762311 7.55804444,78.5445875 7.55804444,78.3886939 M7.55804444,79.5336461 C7.55804444,79.3794846 7.68604444,79.2461089 7.85315556,79.2461089 C8.01848889,79.2461089 8.14826667,79.3794846 8.14826667,79.5336461 C8.14826667,79.6947362 8.01848889,79.8229154 7.85315556,79.8229154 C7.68604444,79.8229154 7.55804444,79.6947362 7.55804444,79.5336461 M7.55804444,80.6855269 C7.55804444,80.5227047 7.68604444,80.3979897 7.85315556,80.3979897 C8.01848889,80.3979897 8.14826667,80.5227047 8.14826667,80.6855269 C8.14826667,80.8448849 8.01848889,80.9730641 7.85315556,80.9730641 C7.68604444,80.9730641 7.55804444,80.8448849 7.55804444,80.6855269" id="Fill-3" fill="#231F1E"></path>
                <path d="M2.46257778,177.833249 L2.46257778,178.494931 C2.46257778,178.494931 0.293688889,179.601776 0.256355556,181.330463 C0.215466667,183.060883 0.256355556,197.647332 0.256355556,197.647332 C0.256355556,197.647332 0.414577778,199.078089 1.95057778,199.829843 C3.48835556,200.581596 13.3052444,201.560262 14.4092444,198.738587 C14.4092444,198.738587 14.7630222,195.02139 14.6848,193.216488 C14.6048,191.411586 14.6848,181.217874 14.6848,181.217874 C14.6848,181.217874 14.5248,179.497847 12.6332444,178.494931 L12.6332444,177.819392 C12.6332444,177.819392 8.10168889,179.300382 2.46257778,177.833249" id="Fill-5" fill="#FEFEFE"></path>
                <path d="M1.27857778,180.055946 C1.27857778,180.055946 1.67324444,179.491265 2.69724444,180.055946 C3.72124444,180.620628 4.82524444,180.469931 4.39324444,181.484971 C3.95946667,182.501744 3.4848,183.366088 3.32657778,184.682523 C3.17013333,185.998958 2.77546667,188.404917 2.34346667,188.744419 C1.90791111,189.082188 0.608355556,189.496173 0.608355556,186.712605 L0.608355556,181.860848 C0.608355556,181.860848 0.4928,180.566931 1.27857778,180.055946" id="Fill-7" fill="#FEFEFE"></path>
                <path d="M1.63448889,177.330059 C1.63448889,177.330059 1.66293333,176.85545 2.10737778,176.540198 C2.10737778,176.540198 1.7536,175.942606 2.34382222,175.774587 C2.34382222,175.774587 1.60248889,175.059209 2.46293333,174.922369 L2.46293333,174.395795 C2.46293333,174.395795 2.66915556,173.602469 7.45848889,173.685612 C12.2496,173.770488 12.3971556,174.395795 12.3971556,174.395795 L12.4184889,175.202977 C12.4184889,175.202977 13.2256,175.407371 12.5162667,175.887177 C12.5162667,175.887177 12.4931556,176.327144 12.8736,176.656252 C13.2540444,176.987093 13.3429333,177.494614 13.0176,177.719793 C12.6940444,177.944973 5.92071111,179.592249 1.63448889,177.330059" id="Fill-9" fill="#D0D2D3"></path>
                <g id="Group-13" transform="translate(0.000000, 177.555293)">
                    <mask id="mask-2" fill="white">
                        <use xlink:href="#path-1"></use>
                    </mask>
                    <g id="Clip-12"></g>
                    <path d="M7.38968889,23.1181071 C1.79324444,23.1181071 0.829688889,21.5886173 0.790577778,21.5227955 C0.109688889,20.5302727 0.182577778,19.8322156 0.186133333,19.802769 L0.186133333,3.45991863 C0.186133333,2.20237657 2.0048,1.08340664 2.35324444,0.880744899 L2.35324444,0.149776923 L2.57013333,0.149776923 L2.57013333,1.00199551 L2.5168,1.03317424 C2.49368889,1.04356715 0.401244444,2.22143024 0.401244444,3.45991863 L0.401244444,19.814894 C0.399466667,19.8339477 0.339022222,20.4835046 0.975466667,21.4119378 C0.986133333,21.4309915 1.95324444,22.9067846 7.38968889,22.9067846 C12.8492444,22.9067846 13.5408,22.1134592 13.9123556,21.6873499 L13.9319111,21.664832 C14.2785778,21.2681692 14.5754667,17.9355096 14.5754667,17.0018798 L14.5754667,3.79942035 C14.5861333,3.71800922 14.8048,2.21969809 12.5808,1.03317424 L12.5256889,1.00199551 L12.5256889,0.264098929 L12.7425778,0.264098929 L12.7425778,0.879012747 C15.0483556,2.13655481 14.8012444,3.7474558 14.7888,3.81674186 L14.7905778,17.0018798 C14.7905778,17.6289187 14.5399111,21.2924194 14.0936889,21.8016719 L14.0776889,21.8224577 C13.6545778,22.3074602 12.9488,23.1181071 7.38968889,23.1181071" id="Fill-11" fill="#020303" mask="url(#mask-2)"></path>
                </g>
                <path d="M1.74382222,177.282598 C1.93226667,177.428099 3.04337778,178.146942 6.80337778,178.276853 C11.2442667,178.434479 12.9882667,177.805708 13.0789333,177.34842 C13.1304889,177.085133 12.9989333,176.950025 12.8193778,176.764685 C12.6469333,176.584541 12.4478222,176.38188 12.4069333,176.025056 L12.3944889,175.921127 L12.5011556,175.909002 C12.5349333,175.903806 12.7091556,175.865698 12.6824889,175.611072 C12.6540444,175.321803 12.4336,175.292356 12.4229333,175.290624 L12.3322667,175.280231 L12.2896,174.400298 C12.2824889,174.400298 11.9767111,173.823492 8.21848889,173.823492 C4.74115556,173.823492 3.09137778,174.003635 2.57048889,174.44187 L2.57048889,175.006551 L2.48515556,175.025605 C2.41582222,175.041194 2.21671111,175.11048 2.21671111,175.22307 C2.21671111,175.352982 2.42648889,175.552179 2.52604444,175.628394 L2.70204444,175.758305 L2.49048889,175.813734 C2.34471111,175.851841 2.09582222,175.959235 2.05137778,176.085682 C2.00337778,176.222522 2.13848889,176.41479 2.18826667,176.470219 L2.28071111,176.572416 L2.15448889,176.634774 C2.13848889,176.641702 1.76871111,176.828775 1.74382222,177.282598 M8.10293333,178.510694 C7.68515556,178.510694 7.2496,178.503765 6.79448889,178.488176 C2.50293333,178.337479 1.59271111,177.440224 1.55537778,177.402117 L1.52693333,177.370938 L1.52693333,177.329367 C1.52693333,176.877275 1.79537778,176.620917 1.95182222,176.511791 C1.87715556,176.397469 1.78115556,176.201736 1.84693333,176.018128 C1.90737778,175.846645 2.10293333,175.735787 2.25226667,175.67343 C2.13848889,175.56084 1.99982222,175.392821 1.99982222,175.22307 C1.99982222,175.016944 2.1936,174.897426 2.3536,174.841997 L2.3536,174.351798 L2.3856,174.320619 C2.83004444,173.896242 3.99448889,173.613901 8.21848889,173.613901 C12.2131556,173.613901 12.4887111,174.254797 12.5047111,174.384709 L12.5402667,175.103552 C12.6824889,175.153784 12.8673778,175.294088 12.8976,175.588554 C12.9296,175.88302 12.7749333,176.030253 12.6362667,176.089146 C12.6896,176.322986 12.8353778,176.473684 12.9758222,176.619184 C13.1678222,176.814917 13.3633778,177.019311 13.2904889,177.38826 C13.1518222,178.093245 11.1607111,178.510694 8.10293333,178.510694" id="Fill-14" fill="#020303"></path>
                <path d="M7.46773333,179.248244 C6.64995556,179.246512 5.83395556,179.22919 5.01795556,179.144315 C4.58951111,179.099279 4.1664,179.017868 3.74684444,178.919135 C3.41617778,178.841188 2.81884444,178.759777 2.60373333,178.475704 C2.51484444,178.35965 2.3104,178.47224 2.39928889,178.590026 C2.77973333,179.090618 3.75217778,179.165101 4.32995556,179.272494 C5.35928889,179.464763 6.42417778,179.471692 7.46773333,179.473424 C7.62062222,179.473424 7.62062222,179.248244 7.46773333,179.248244" id="Fill-16" fill="#020303"></path>
                <path d="M1.38097778,197.463724 C1.10542222,196.980453 1.14097778,196.469468 1.08231111,195.941162 C1.03431111,195.499464 1.03431111,195.050836 1.03964444,194.605673 C1.03964444,194.598745 1.0432,194.593548 1.0432,194.58662 L1.0432,189.057592 C1.0432,188.912091 0.806755556,188.912091 0.806755556,189.057592 L0.806755556,194.060046 C0.806755556,194.745978 0.788977778,195.428445 0.865422222,196.110913 C0.922311111,196.635755 0.900977778,197.09824 1.17831111,197.578046 C1.2512,197.706225 1.45386667,197.591903 1.38097778,197.463724" id="Fill-18" fill="#020303"></path>
                <path d="M13.9973333,198.554806 C13.8942222,198.402376 13.736,198.293251 13.5848889,198.189322 C13.4942222,198.125232 13.4088889,198.0265 13.3004444,197.990124 C13.2524444,197.946821 13.1973333,197.91391 13.1351111,197.88966 C12.6462222,197.508586 11.9191111,197.435836 11.3395556,197.304192 C10.4808889,197.106727 9.60977778,197.021852 8.72977778,196.994137 C6.85955556,196.933512 5.096,196.923119 3.28088889,197.413318 C2.47911111,197.629837 1.65955556,197.919106 1.02666667,198.457805 C0.916444444,198.553074 0.715555556,198.717628 0.747555556,198.887379 C0.752888889,198.916825 0.884444444,199.256327 0.884444444,199.100434 C0.884444444,199.180113 0.955555556,199.214756 1.01955556,199.206095 C1.05511111,199.310024 1.12977778,199.398364 1.25955556,199.460721 C1.39466667,199.526543 1.51555556,199.33081 1.37688889,199.26672 C1.07466667,199.121219 1.08,198.738414 1.24355556,198.591181 C1.31288889,198.528824 1.688,198.270733 1.77155556,198.222233 C1.60266667,198.546145 1.65066667,199.093505 2.21422222,199.351596 C3.4,199.895491 4.74222222,200.066974 6.00977778,200.153582 C6.16266667,200.163975 6.16088889,199.938795 6.00977778,199.928402 C5.20266667,199.872973 4.39733333,199.829669 3.60444444,199.658186 C3.21333333,199.573311 2.82933333,199.431275 2.47733333,199.247666 C1.85866667,198.927218 1.81422222,198.390251 2.20355556,198.090589 C2.20888889,198.088857 2.87733333,197.726837 3.25955556,197.655819 C4.51644444,197.143102 6.23911111,197.156959 6.45066667,197.155227 C7.09422222,197.148299 11.4284444,196.904065 13.1724444,198.275929 C13.4835556,198.520163 13.5333333,198.875254 13.32,199.119487 C13.3146667,199.239006 12.6693333,199.704954 12.6248889,199.788098 C12.9626667,199.61315 13.2684444,199.370649 13.5208889,199.110826 C13.6986667,198.928951 13.6826667,198.693378 13.592,198.473395 C13.6133333,198.490716 13.6328889,198.506306 13.6435556,198.514966 C13.9528889,198.757468 13.992,199.119487 13.752,199.420882 C13.6613333,199.535204 13.8675556,199.647793 13.9582222,199.533471 C14.2,199.230345 14.2088889,198.875254 13.9973333,198.554806" id="Fill-20" fill="#020303"></path>
                <path d="M9.44693333,198.915959 C8.65937778,199.063192 7.87182222,199.208693 7.06826667,199.245068 C6.31448889,199.277979 5.27448889,199.208693 4.6736,198.720226 C4.55982222,198.62669 4.39093333,198.784316 4.50826667,198.879584 C5.08071111,199.347265 5.89671111,199.428676 6.62382222,199.470248 C7.58915556,199.523945 8.56871111,199.309158 9.51093333,199.134211 C9.66026667,199.106496 9.59626667,198.888245 9.44693333,198.915959" id="Fill-22" fill="#020303"></path>
                <path d="M12.2785778,174.395968 C12.2394667,174.709487 10.4474667,174.889631 10.2252444,174.913881 C9.85191111,174.957185 9.45546667,174.901756 9.08213333,174.887899 C8.68568889,174.872309 8.28924444,174.924274 7.89102222,174.92081 C7.06257778,174.913881 6.23413333,174.891363 5.40391111,174.877506 C5.02168889,174.872309 2.56124444,174.89656 2.73368889,174.312825 C2.77457778,174.17252 2.54702222,174.111895 2.50613333,174.252199 C2.31057778,174.924274 3.17813333,174.927738 3.68124444,174.988364 C4.94168889,175.142525 6.2128,175.092293 7.48035556,175.135597 C8.07946667,175.156382 8.67502222,175.097489 9.27235556,175.120007 C9.81635556,175.140793 10.3159111,175.147722 10.8510222,175.040328 C11.2563556,174.958917 12.4456889,174.939863 12.5150222,174.395968 C12.5345778,174.252199 12.2963556,174.252199 12.2785778,174.395968" id="Fill-24" fill="#020303"></path>
                <path d="M11.992,176.02419 C11.9991111,176.010333 12.0026667,175.993012 12.0026667,175.97569 L12.0026667,175.449116 C12.0026667,175.445652 12.0008889,175.442187 11.9991111,175.438723 L12.0151111,175.433527 C12.0346667,175.551313 12.0755556,175.665635 12.0808889,175.786886 C12.088,175.932386 12.3244444,175.932386 12.3173333,175.786886 C12.312,175.641385 12.2515556,175.504545 12.2426667,175.360776 C12.344,175.514938 12.3564444,175.67776 12.3564444,175.8631 C12.3564444,175.866564 12.3582222,175.868297 12.3582222,175.871761 C12.2408889,175.918529 12.1217778,175.989547 12.0151111,176.018994 C12.008,176.020726 11.9991111,176.022458 11.992,176.02419 M11.5315556,176.114262 C11.5742222,176.100405 11.6062222,176.067494 11.608,176.013797 C11.6097778,175.849243 11.6435556,175.688153 11.6471111,175.523598 C11.6488889,175.513206 11.6435556,175.504545 11.6417778,175.495884 C11.6684444,175.49242 11.6986667,175.488955 11.7271111,175.485491 C11.7395556,175.485491 11.752,175.483759 11.7662222,175.482027 L11.7662222,175.97569 C11.7662222,176.017262 11.7857778,176.046708 11.8142222,176.06403 C11.7235556,176.083083 11.6293333,176.098673 11.5315556,176.114262 M10.7226667,176.214727 C10.7262222,176.207798 10.7333333,176.202602 10.7368889,176.193941 C10.8097778,176.013797 10.856,175.831921 10.8577778,175.636188 C10.8577778,175.630992 10.856,175.627528 10.856,175.620599 C10.9111111,175.611938 10.9644444,175.603277 11.0177778,175.592885 C11.0177778,175.594617 11.016,175.596349 11.016,175.599813 C11.0088889,175.752242 10.9431111,175.896011 10.9377778,176.050173 C10.9306667,176.195673 11.1671111,176.195673 11.1742222,176.050173 C11.1813333,175.897743 11.2471111,175.753975 11.2524444,175.599813 C11.2542222,175.582492 11.2506667,175.56517 11.2453333,175.553045 C11.2986667,175.542652 11.3555556,175.533991 11.4106667,175.525331 C11.4071111,175.688153 11.3733333,175.849243 11.3715556,176.013797 C11.3697778,176.084816 11.4266667,176.121191 11.4853333,176.121191 C11.2293333,176.16103 10.9662222,176.188745 10.7226667,176.214727 M10.5306667,176.235513 C10.5217778,176.237245 10.5128889,176.238977 10.504,176.238977 C9.61155556,176.341174 8.744,176.403531 7.84622222,176.424317 C7.32533333,176.438175 6.81511111,176.406996 6.31022222,176.349835 C6.32088889,176.330781 6.32444444,176.309995 6.32266667,176.284013 C6.28888889,176.090012 6.28711111,175.894279 6.28711111,175.696814 C6.35111111,175.70201 6.41688889,175.707207 6.48266667,175.712403 C6.48444444,175.889082 6.52,176.062298 6.52177778,176.238977 C6.52533333,176.384478 6.76177778,176.384478 6.76,176.238977 C6.75644444,176.067494 6.72622222,175.901208 6.72088889,175.731457 C6.76177778,175.734921 6.80088889,175.734921 6.84177778,175.736653 C6.84,175.74185 6.83822222,175.745314 6.83822222,175.75051 C6.84177778,175.925458 6.87377778,176.100405 6.87733333,176.277084 C6.87911111,176.420853 7.11733333,176.420853 7.11377778,176.277084 C7.112,176.126387 7.08888889,175.977422 7.08,175.828457 C7.09955556,175.807671 7.10844444,175.779957 7.10844444,175.752242 C7.144,175.753975 7.18133333,175.757439 7.21511111,175.759171 C7.23466667,175.759171 7.25244444,175.759171 7.272,175.759171 L7.272,176.126387 C7.272,176.271888 7.50844444,176.271888 7.50844444,176.126387 L7.50844444,175.764368 C7.58666667,175.7661 7.66311111,175.7661 7.74311111,175.7661 C7.73777778,175.923725 7.71466667,176.074423 7.74844444,176.232048 C7.78044444,176.374085 8.008,176.31346 7.976,176.171423 C7.94933333,176.038047 7.97422222,175.90294 7.97955556,175.769564 C8.04533333,175.769564 8.11111111,175.767832 8.17688889,175.767832 L8.17688889,176.164495 C8.17688889,176.309995 8.41333333,176.309995 8.41333333,176.164495 L8.41333333,175.7661 C8.47911111,175.7661 8.54666667,175.760903 8.61244444,175.760903 L8.61244444,176.20087 C8.61244444,176.34637 8.84711111,176.34637 8.84711111,176.20087 L8.84711111,175.753975 C8.904,175.752242 8.95911111,175.748778 9.01422222,175.747046 C9.01066667,175.759171 9.00533333,175.771296 9.00533333,175.786886 C9.00177778,175.939315 8.96977778,176.08828 8.96622222,176.238977 C8.96444444,176.384478 9.20088889,176.384478 9.20444444,176.238977 C9.208,176.08828 9.23822222,175.939315 9.24177778,175.786886 C9.24355556,175.767832 9.23822222,175.752242 9.23288889,175.738385 C9.30222222,175.734921 9.37333333,175.731457 9.44444444,175.727992 C9.39822222,175.866564 9.4,176.022458 9.4,176.164495 C9.4,176.309995 9.63644444,176.309995 9.63644444,176.164495 C9.63644444,176.02419 9.62222222,175.854439 9.70044444,175.731457 C9.70222222,175.72626 9.70222222,175.721064 9.70577778,175.715867 C9.74844444,175.714135 9.79466667,175.708939 9.83911111,175.707207 C9.83733333,175.74185 9.85155556,175.776493 9.88,175.799011 C9.88533333,175.880422 9.89066667,175.961833 9.84977778,176.031119 C9.77333333,176.157566 9.97777778,176.271888 10.0542222,176.145441 C10.1377778,176.006869 10.1128889,175.864832 10.1093333,175.712403 C10.1093333,175.703742 10.1057778,175.698546 10.104,175.689885 C10.1431111,175.688153 10.1822222,175.684689 10.2213333,175.682956 C10.2124444,175.830189 10.1911111,175.977422 10.1875556,176.126387 C10.1857778,176.271888 10.4222222,176.271888 10.424,176.126387 C10.4275556,175.972226 10.4506667,175.819796 10.4595556,175.667367 C10.4862222,175.663903 10.5146667,175.663903 10.5431111,175.662171 C10.568,175.660438 10.5946667,175.655242 10.6213333,175.651778 C10.6177778,175.821529 10.5733333,175.97569 10.5075556,176.133316 C10.4897778,176.17662 10.504,176.211263 10.5306667,176.235513 M4.16977778,175.994744 C4.216,175.965297 4.24977778,175.906404 4.21955556,175.844047 C4.18933333,175.778225 4.16444444,175.572099 4.20177778,175.528795 C4.21777778,175.509741 4.22488889,175.488955 4.22666667,175.46817 C4.26933333,175.473366 4.312,175.480295 4.35466667,175.483759 L4.35466667,175.485491 C4.35466667,175.665635 4.37066667,175.830189 4.44888889,175.994744 C4.51288889,176.126387 4.71733333,176.012065 4.65333333,175.880422 C4.59822222,175.764368 4.59111111,175.641385 4.59111111,175.514938 C4.64266667,175.521866 4.696,175.528795 4.74933333,175.535724 C4.74933333,175.549581 4.75466667,175.56517 4.76533333,175.580759 C4.84177778,175.703742 4.82755556,175.875225 4.82755556,176.013797 C4.82755556,176.159298 5.064,176.159298 5.064,176.013797 C5.064,175.868297 5.064,175.708939 5.01422222,175.570367 C5.06933333,175.577295 5.12622222,175.582492 5.18133333,175.58942 C5.15822222,175.714135 5.25422222,175.882154 5.26133333,175.97569 C5.272,176.119459 5.51022222,176.121191 5.49777778,175.97569 C5.49244444,175.916797 5.47288889,175.861368 5.45333333,175.805939 C5.44088889,175.767832 5.43022222,175.729725 5.42133333,175.689885 C5.41777778,175.67776 5.416,175.667367 5.41422222,175.655242 L5.41422222,175.648313 C5.42844444,175.639653 5.43555556,175.630992 5.44266667,175.620599 C5.49066667,175.625795 5.53511111,175.627528 5.58133333,175.632724 C5.64177778,175.785153 5.656,175.92719 5.656,176.08828 C5.656,176.233781 5.89066667,176.233781 5.89066667,176.08828 C5.89066667,175.939315 5.88,175.799011 5.83733333,175.658706 C5.90844444,175.663903 5.97777778,175.669099 6.04888889,175.676028 C6.04888889,175.894279 6.05777778,176.109066 6.09155556,176.325585 C5.44444444,176.244174 4.808,176.124655 4.16977778,175.994744 M3.51733333,175.861368 C3.51377778,175.854439 3.51377778,175.849243 3.51022222,175.844047 C3.41066667,175.705474 3.40888889,175.547849 3.40888889,175.385026 C3.47644444,175.393687 3.544,175.398884 3.61155556,175.407544 C3.608,175.417937 3.60444444,175.433527 3.60444444,175.449116 C3.60977778,175.551313 3.64177778,175.648313 3.64533333,175.75051 C3.65244444,175.894279 3.88711111,175.896011 3.88177778,175.75051 C3.87822222,175.648313 3.84622222,175.549581 3.84088889,175.449116 C3.84088889,175.442187 3.83733333,175.435259 3.83555556,175.42833 C3.88711111,175.433527 3.93866667,175.438723 3.98844444,175.443919 C3.91733333,175.598081 3.95111111,175.8146 4.01688889,175.956636 C4.01866667,175.960101 4.02044444,175.961833 4.02222222,175.965297 C3.85511111,175.930654 3.68622222,175.896011 3.51733333,175.861368 M3.07644444,175.771296 L3.07644444,175.767832 C2.98044444,175.632724 2.97511111,175.469902 2.97511111,175.310544 C3.04088889,175.327865 3.11022222,175.336526 3.176,175.348651 C3.17422222,175.357312 3.17066667,175.364241 3.17066667,175.374633 C3.17066667,175.520134 3.17777778,175.665635 3.22577778,175.802475 C3.176,175.792082 3.128,175.781689 3.07644444,175.771296 M2.60355556,175.187561 C2.64622222,175.206615 2.696,175.223936 2.74222222,175.239526 C2.74044444,175.248186 2.73866667,175.253383 2.73866667,175.262044 C2.73866667,175.407544 2.74222222,175.558242 2.78488889,175.698546 C2.70311111,175.537456 2.504,175.35558 2.60355556,175.187561 M12.6728889,175.523598 C12.6693333,175.573831 12.6355556,175.658706 12.5893333,175.731457 C12.5804444,175.542652 12.5466667,175.364241 12.4186667,175.20315 C12.4115556,175.19449 12.4026667,175.191025 12.3973333,175.184097 C12.3884444,175.114811 12.3066667,175.047257 12.2195556,175.087096 C11.7413333,175.314008 11.0764444,175.405812 10.5431111,175.436991 C9.56888889,175.49242 8.64088889,175.58942 7.65777778,175.551313 C6.82933333,175.518402 6.00977778,175.393687 5.18133333,175.367705 C4.76177778,175.353848 4.30844444,175.260311 3.89244444,175.192758 C3.58666667,175.142525 2.71911111,175.177168 2.56444444,174.865381 C2.49866667,174.733737 2.29422222,174.848059 2.36,174.979703 C2.37422222,175.007417 2.39377778,175.026471 2.40977778,175.048989 C2.35466667,175.128668 2.33866667,175.244722 2.34044444,175.336526 C2.344,175.466437 2.42933333,175.558242 2.50044444,175.656974 C2.472,175.651778 2.44355556,175.646581 2.41333333,175.641385 C2.26577778,175.61367 2.20177778,175.831921 2.35111111,175.857904 C3.23466667,176.020726 4.10577778,176.284013 5,176.415657 C5.86755556,176.542104 6.74577778,176.63564 7.62577778,176.652961 C8.59822222,176.672015 9.544,176.568086 10.504,176.464157 C10.9626667,176.415657 11.4106667,176.289209 11.8711111,176.266692 C12.04,176.259763 12.232,176.141977 12.3973333,176.084816 C12.408,176.086548 12.4204444,176.090012 12.4364444,176.08828 C12.4826667,176.084816 12.5288889,176.067494 12.5715556,176.046708 C12.6088889,176.041512 12.632,176.02419 12.648,175.99994 C12.7991111,175.885618 12.9004444,175.686421 12.9093333,175.523598 C12.9182222,175.378098 12.68,175.37983 12.6728889,175.523598" id="Fill-26" fill="#020303"></path>
                <path d="M12.7073778,176.497761 C12.3678222,176.821673 11.7864889,176.878834 11.3384889,176.956781 C10.9047111,177.032995 10.4780444,177.124799 10.0389333,177.183693 C9.16426667,177.299747 8.30915556,177.204478 7.43271111,177.220068 C6.53137778,177.237389 5.66382222,177.048585 4.76604444,177.022602 C4.31093333,177.008745 3.89137778,176.858048 3.44693333,176.802619 C3.2496,176.778369 2.18115556,176.670976 2.14737778,176.390367 C2.1296,176.246599 1.89315556,176.244866 1.91093333,176.390367 C1.96782222,176.852852 2.90648889,176.961977 3.26737778,177.007013 C4.45671111,177.152514 5.6336,177.367301 6.8336,177.457373 C7.32604444,177.493748 7.82915556,177.450444 8.32337778,177.476426 C8.84248889,177.504141 9.38115556,177.497212 9.89493333,177.427926 C10.4656,177.351711 11.0238222,177.240854 11.5909333,177.142121 C12.0389333,177.064174 12.5420444,176.974102 12.8744889,176.657118 C12.9811556,176.553189 12.8158222,176.393831 12.7073778,176.497761" id="Fill-28" fill="#020303"></path>
                <path d="M12.8305778,176.765032 C12.7879111,177.598196 10.9621333,177.726376 10.3025778,177.799126 C9.35324444,177.906519 8.40391111,177.877073 7.45102222,177.859751 C6.51591111,177.844162 5.62524444,177.774876 4.7008,177.651893 C4.24746667,177.591268 3.80302222,177.521982 3.36035556,177.409392 C3.14346667,177.352231 2.01102222,177.123587 1.98791111,176.839514 C1.97902222,176.695745 1.7408,176.695745 1.75324444,176.839514 C1.7728,177.123587 1.92391111,177.203266 2.19413333,177.296802 C2.76302222,177.494267 3.3728,177.664018 3.96835556,177.773144 C5.19857778,177.996591 6.42524444,178.06761 7.67502222,178.090127 C8.90168889,178.110913 10.1070222,178.102253 11.3141333,177.877073 C12.0128,177.745429 13.0243556,177.582607 13.0670222,176.765032 C13.0741333,176.619531 12.8376889,176.621263 12.8305778,176.765032" id="Fill-30" fill="#020303"></path>
                <path d="M11.6152889,176.355724 C11.3504,176.447528 11.0641778,176.450992 10.7886222,176.506421 C10.3281778,176.598225 9.85351111,176.695226 9.38595556,176.717744 C8.58062222,176.755851 7.75928889,176.702154 6.95217778,176.683101 C6.15751111,176.665779 5.36462222,176.582636 4.57351111,176.518546 C4.15217778,176.485635 3.74862222,176.397296 3.34151111,176.295099 C3.07484444,176.229277 2.42951111,176.149598 2.24817778,175.919222 C2.15928889,175.803168 1.95128889,175.915758 2.04373333,176.031812 C2.36017778,176.435403 3.20817778,176.501225 3.68462222,176.61035 C4.53084444,176.807816 5.43573333,176.823405 6.30328889,176.878834 C7.25084444,176.941191 8.2144,176.951584 9.16373333,176.94812 C9.6224,176.946388 10.0241778,176.873637 10.4686222,176.785298 C10.8686222,176.703887 11.2935111,176.705619 11.6775111,176.573975 C11.8197333,176.525475 11.7592889,176.307224 11.6152889,176.355724" id="Fill-32" fill="#020303"></path>
                <path d="M8.64995556,179.773432 C8.64995556,179.773432 11.2117333,179.660843 12.0401778,179.323073 L12.4721778,179.134268 C12.4721778,179.134268 12.2375111,179.81154 10.9361778,180.074827 C10.2624,180.209935 8.01884444,179.847915 8.01884444,179.847915 L8.64995556,179.773432 Z" id="Fill-34" fill="#FEFEFE"></path>
                <g id="Group-38" transform="translate(6.476190, 199.823172)">
                    <mask id="mask-4" fill="white">
                        <use xlink:href="#path-3"></use>
                    </mask>
                    <g id="Clip-37"></g>
                    <path d="M1.38567619,0.0856570292 C1.00345397,0.0873891808 0.623009524,0.120300061 0.240787302,0.122032213 C0.0896761905,0.123764364 0.0896761905,0.348944072 0.240787302,0.348944072 C0.623009524,0.345479769 1.00345397,0.312568889 1.38567619,0.310836737 C1.5367873,0.309104586 1.53856508,0.0839248776 1.38567619,0.0856570292" id="Fill-36" fill="#020303" mask="url(#mask-4)"></path>
                </g>
                <path d="M12.5198222,178.410056 C12.0060444,179.068274 10.5198222,179.076934 9.7536,179.142756 C9.3376,179.179131 8.91804444,179.206846 8.49848889,179.231096 C8.07004444,179.238024 7.64337778,179.264007 7.21493333,179.277864 C7.11893333,179.269203 7.02826667,179.255346 6.94648889,179.232828 C6.79893333,179.191256 6.73848889,179.407775 6.88426667,179.451079 C6.90204444,179.454543 6.9216,179.458008 6.9376,179.461472 C6.95715556,179.490918 6.98737778,179.511704 7.0336,179.509972 C7.09048889,179.50824 7.14915556,179.506508 7.20426667,179.504776 C7.55448889,179.53249 7.94382222,179.48399 8.26382222,179.471865 C8.3456,179.468401 8.4256,179.45974 8.5056,179.456275 C8.58737778,179.456275 8.66737778,179.454543 8.74915556,179.454543 C8.77226667,179.454543 8.78826667,179.447615 8.80604444,179.438954 C9.25582222,179.41124 9.7056,179.374864 10.1518222,179.333293 C10.9589333,179.25881 12.1944889,179.203381 12.7224889,178.522646 C12.8149333,178.406592 12.6104889,178.294002 12.5198222,178.410056" id="Fill-39" fill="#020303"></path>
                <g id="Group-43" transform="translate(0.000000, 161.715836)">
                    <mask id="mask-6" fill="white">
                        <use xlink:href="#path-5"></use>
                    </mask>
                    <g id="Clip-42"></g>
                    <path d="M13.2524444,16.8177218 C13.1688889,16.8471684 13.1137778,16.7917396 13.0817778,16.72765 C13.0871111,16.6427745 13.0728889,16.5578991 13.0302222,16.4903452 C13.1653333,16.3690946 13.3662222,16.3067371 13.5564444,16.2980764 C13.5475556,16.3535052 13.5315556,16.4072019 13.512,16.4608986 L13.5066667,16.4678272 C13.4462222,16.4816844 13.4,16.5301847 13.4248889,16.6012029 C13.4266667,16.6098637 13.4302222,16.6185244 13.4337778,16.625453 L13.4337778,16.6271852 C13.432,16.6323816 13.4302222,16.6358459 13.4284444,16.6393102 C13.3875556,16.705132 13.3288889,16.7900074 13.2524444,16.8177218 M2.01155556,16.4366485 C2.02577778,16.4747558 2.02044444,16.4643629 2.05244444,16.4383806 L2.05422222,16.4383806 C2.024,16.4643629 2.01155556,16.4990059 2.01511111,16.5319168 C1.97777778,16.5925421 1.95644444,16.660096 1.94755556,16.7311143 C1.93866667,16.7328464 1.92622222,16.7363107 1.91733333,16.739775 C1.79288889,16.7900074 1.71288889,16.8367755 1.63822222,16.7120606 C1.576,16.6098637 1.48533333,16.5215239 1.41777778,16.4210591 C1.61333333,16.4089341 1.81244444,16.4279877 2.01155556,16.4366485 M14.7813333,8.42025088 C14.6853333,6.94272557 14.3422222,5.55527214 13.6666667,4.21978325 C13.1226667,3.14411711 12.5235556,2.07537957 11.6275556,1.22489314 C10.7155556,0.36228164 9.56533333,0.0470300485 8.30844444,0.0106548649 C7.58488889,-0.00839880266 6.84177778,0.112851809 6.16266667,0.339763669 C5.45333333,0.575336287 4.76177778,0.79531954 4.16266667,1.23182174 C3.03377778,2.05459375 2.18755556,3.32772518 1.55466667,4.51424903 C0.838222222,5.85666652 0.205333333,7.36883486 0.0293333333,8.8740746 C-0.0577777778,9.632757 0.0755555556,10.4001002 0.109333333,11.1587826 C0.144888889,11.9434472 0.150222222,12.7281119 0.210666667,13.5110444 C0.283555556,14.4723886 0.370666667,15.6762339 1.07466667,16.4262556 C1.10666667,16.4574343 1.14222222,16.4643629 1.17422222,16.4574343 C1.21511111,16.533649 1.26311111,16.6046672 1.32,16.6739533 C1.39822222,16.762293 1.44977778,16.8644899 1.52622222,16.9528297 C1.59022222,17.02558 1.70933333,17.048098 1.80177778,17.0221157 C1.86222222,17.0047942 1.91911111,16.9822762 1.976,16.9597583 C1.98311111,16.9736155 1.98488889,16.990937 1.99377778,17.0047942 C2.06133333,17.1329734 2.25866667,17.0238479 2.2,16.8974008 C2.21422222,16.8939365 2.232,16.8922044 2.24622222,16.8887401 C2.37955556,16.8367755 2.328,16.6375781 2.2,16.6670247 C2.23733333,16.5977386 2.30311111,16.5475062 2.392,16.5544348 C2.54488889,16.5630956 2.54311111,16.3361837 2.392,16.3275229 C2.32977778,16.3240586 2.27644444,16.3361837 2.22666667,16.3535052 C2.22133333,16.3361837 2.21422222,16.31713 2.20888889,16.2980764 C2.19822222,16.247844 2.14666667,16.2149331 2.09688889,16.2149331 C1.79822222,16.2097366 1.50488889,16.1664328 1.208,16.2183974 L1.20622222,16.2201295 C0.772444444,15.7281985 0.651555556,15.0422665 0.552,14.4256205 C0.413333333,13.5578125 0.393777778,12.6761474 0.368888889,11.8014108 C0.342222222,10.9561208 0.228444444,10.1073665 0.240888889,9.26380871 C0.253333333,8.35269697 0.553777778,7.47969257 0.872,6.63093828 C1.47288889,5.02523375 2.27111111,3.53904767 3.42844444,2.23473752 C4.52888889,0.992784822 6.23555556,0.336299366 7.92266667,0.241031028 C9.50666667,0.150959145 10.8453333,0.670604625 11.8782222,1.81209253 C12.7902222,2.82540122 13.496,4.19380098 13.9671111,5.44268228 C14.5555556,6.99815442 14.5946667,8.7025916 14.6035556,10.3377427 C14.6124444,12.1183946 14.8364444,13.9891183 13.9528889,15.6173408 C13.8871111,15.7351271 13.816,15.9135387 13.7342222,16.0867539 C13.72,16.0798253 13.7022222,16.0746288 13.6862222,16.0728967 C13.3982222,16.0486465 13.0302222,16.1473792 12.8311111,16.3604338 C12.7653333,16.3500409 12.6942222,16.3535052 12.6231111,16.3552374 C12.4702222,16.3587017 12.4702222,16.5856135 12.6231111,16.5821492 C12.6853333,16.5804171 12.7884444,16.5544348 12.8346667,16.6046672 C12.8417778,16.613328 12.8453333,16.6271852 12.8471111,16.6410424 C12.8346667,16.6635604 12.8257778,16.6912748 12.8328889,16.7241857 C12.8364444,16.7363107 12.8417778,16.7449715 12.8453333,16.7570965 C12.8417778,16.7761502 12.8382222,16.7934717 12.8328889,16.8055968 C12.8062222,16.8956687 12.8915556,16.9510975 12.9662222,16.9424368 C13.096,17.0602231 13.2897778,17.1069912 13.4426667,16.9718833 C13.5688889,16.8644899 13.6595556,16.7259178 13.72,16.5769528 C13.9404444,16.2980764 14.104,15.825199 14.2533333,15.551519 C14.6337778,14.8517298 14.7777778,14.1294226 14.8293333,13.3482222 C14.936,11.7286604 14.888,10.0380805 14.7813333,8.42025088" id="Fill-41" fill="#020303" mask="url(#mask-6)"></path>
                </g>
                <path d="M2.49546667,179.453677 C2.09013333,180.049537 1.64746667,180.586504 1.38257778,181.256847 C1.09102222,181.986083 1.06435556,182.801926 1.0608,183.572734 C1.05902222,183.718234 1.29724444,183.718234 1.29724444,183.572734 C1.3008,182.86948 1.34702222,182.181816 1.54613333,181.502813 C1.76302222,180.764916 2.27324444,180.195038 2.69991111,179.566267 C2.78346667,179.445016 2.57902222,179.332427 2.49546667,179.453677" id="Fill-44" fill="#020303"></path>
                <path d="M13.6673778,181.969974 C13.5767111,181.420882 13.3918222,181.199166 13.0309333,180.785182 C12.9331556,180.672592 12.7660444,180.833682 12.8638222,180.94454 C13.2638222,181.405292 13.4291556,181.781169 13.4700444,182.380494 C13.5020444,182.867228 13.4789333,183.360892 13.4789333,183.847626 L13.4789333,186.95857 C13.4789333,187.102339 13.7153778,187.102339 13.7153778,186.95857 L13.7153778,183.402463 C13.7153778,182.927854 13.7456,182.439387 13.6673778,181.969974" id="Fill-46" fill="#020303"></path>
            </g>
        </g>
    </g>
</svg>