<?xml version="1.0" encoding="UTF-8"?>
<svg width="90px" height="22px" viewBox="0 0 90 22" version="1.1" xmlns="http://www.w3.org/2000/svg" xmlns:xlink="http://www.w3.org/1999/xlink">
    <!-- Generator: Sketch 45.2 (43514) - http://www.bohemiancoding.com/sketch -->
    <title>Page 1</title>
    <desc>Created with Sketch.</desc>
    <defs>
        <polygon id="path-1" points="0 0.00040760551 0 21.7709901 89.5020162 21.7709901 89.5020162 0.00040760551"></polygon>
    </defs>
    <g id="Page-1" stroke="none" stroke-width="1" fill="none" fill-rule="evenodd">
        <g id="Home" transform="translate(-259.000000, -522.000000)">
            <g id="Page-1" transform="translate(259.000000, 522.000000)">
                <mask id="mask-2" fill="white">
                    <use xlink:href="#path-1"></use>
                </mask>
                <g id="Clip-2"></g>
                <path d="M88.410881,13.2203936 C89.4556345,15.9467822 88.9558244,17.9443508 85.5490924,18.6263659 C80.4908141,19.6376872 78.1539096,8.73881928 73.2377178,8.02671533 C65.1972953,6.85993469 65.2307274,16.4666515 69.8861488,16.3646836 C74.4479602,16.2643873 72.995335,3.78585216 65.2524583,4.91752909 C55.9850774,6.27152955 56.7673888,21.3126359 61.4729583,19.0810426 C66.4627007,16.7140492 65.4246337,2.81632096 55.067366,3.08879266 C44.7084266,3.36293596 45.672943,22.3456881 52.1587724,20.8663172 C57.7820533,19.587539 55.9650181,-2.70332043 43.3159792,0.273808982 C28.8783224,3.67385459 36.0779274,25.8493733 40.7717956,21.1103716 C46.7645014,15.0608313 39.3375581,-0.662290103 30.1119673,3.78585216 C22.0414559,7.67902139 28.1511741,23.9688171 31.4576097,18.8186005 C35.3959123,12.6754503 27.5694553,3.54514096 21.3728137,6.55235927 C16.0905403,9.11660212 17.0316542,19.6159563 21.3143075,17.1269357 C24.4251654,15.3199302 23.1915205,7.9565079 16.9079554,8.38945373 C13.3942406,8.63183653 13.8188284,11.1760201 9.4124763,17.0818024 C4.81221794,23.2450119 -0.809391387,18.8988376 0.280495404,15.4904339 C0.280495404,15.4904339 -1.87086089,21.9679053 5.73160097,21.4430211 C12.9546084,20.9432111 12.854312,10.6227187 16.180807,9.94906167 C19.769744,9.22191327 22.9040044,15.1577844 20.5403542,16.354654 C17.5314643,17.8791582 18.9573438,8.45130313 22.6014438,7.54362134 C26.4778969,6.57241854 28.3283642,11.6825166 29.1424361,13.7202037 C30.1119673,16.1423601 29.5068461,19.1729809 27.9305221,16.5067701 C26.5096574,14.0979865 26.2087685,6.73790748 31.7167086,4.9526328 C38.2142392,2.84808147 41.4454527,15.2647672 39.3943927,18.8537042 C37.4570019,22.2453918 31.113259,3.87277564 43.5282731,1.72643417 C50.8883522,0.454342377 53.9758076,16.8711801 52.1587724,19.0492821 C49.6948258,22.0080238 44.5145204,6.24979868 54.0978348,4.75705496 C63.4253935,3.30108656 62.673171,17.2690222 60.8360766,17.9443508 C58.5342758,18.7935264 57.9742879,7.41992253 63.9101591,6.81480134 C69.8460303,6.20968014 71.512621,16.1874934 68.9667658,15.2179622 C65.4714386,13.8873642 68.787904,8.25405368 72.8749794,9.72172332 C77.5989366,11.4184029 79.220394,21.5516755 86.0489025,19.5340477 C92.0449514,17.7638174 88.410881,13.2203936 88.410881,13.2203936" id="Fill-1" fill="#1E2F55" mask="url(#mask-2)"></path>
            </g>
        </g>
    </g>
</svg>